G04 #@! TF.GenerationSoftware,KiCad,Pcbnew,7.0.1*
G04 #@! TF.CreationDate,2023-04-24T18:26:11+10:00*
G04 #@! TF.ProjectId,phi,7068692e-6b69-4636-9164-5f7063625858,rev?*
G04 #@! TF.SameCoordinates,Original*
G04 #@! TF.FileFunction,Legend,Bot*
G04 #@! TF.FilePolarity,Positive*
%FSLAX46Y46*%
G04 Gerber Fmt 4.6, Leading zero omitted, Abs format (unit mm)*
G04 Created by KiCad (PCBNEW 7.0.1) date 2023-04-24 18:26:11*
%MOMM*%
%LPD*%
G01*
G04 APERTURE LIST*
%ADD10C,0.150000*%
%ADD11C,0.300000*%
%ADD12C,0.120000*%
%ADD13C,0.100000*%
G04 APERTURE END LIST*
D10*
X107735000Y-53155000D02*
X106235000Y-54405000D01*
X106235000Y-51905000D01*
X107735000Y-53155000D01*
G36*
X107735000Y-53155000D02*
G01*
X106235000Y-54405000D01*
X106235000Y-51905000D01*
X107735000Y-53155000D01*
G37*
D11*
G36*
X105259905Y-52556771D02*
G01*
X104993192Y-52556771D01*
X105048879Y-53341376D01*
X104749926Y-52556771D01*
X104512229Y-52556771D01*
X104547693Y-53342842D01*
X104258412Y-52556771D01*
X104033611Y-52556771D01*
X104511643Y-53701000D01*
X104744651Y-53701000D01*
X104729703Y-52964461D01*
X105024846Y-53701000D01*
X105255509Y-53701000D01*
X105259905Y-52556771D01*
G37*
G36*
X104327581Y-53701000D02*
G01*
X104083436Y-53701000D01*
X103978803Y-53457147D01*
X103684246Y-53457147D01*
X103680143Y-53701000D01*
X103413429Y-53701000D01*
X103445602Y-53250811D01*
X103691866Y-53250811D01*
X103885307Y-53250811D01*
X103706228Y-52848397D01*
X103691866Y-53250811D01*
X103445602Y-53250811D01*
X103495202Y-52556771D01*
X103753415Y-52556771D01*
X104327581Y-53701000D01*
G37*
G36*
X103333709Y-53701000D02*
G01*
X103072564Y-53701000D01*
X102979068Y-53250811D01*
X102874141Y-53250811D01*
X102820799Y-53701000D01*
X102537672Y-53701000D01*
X102637616Y-53200106D01*
X102627097Y-53194740D01*
X102606795Y-53183245D01*
X102587479Y-53170734D01*
X102569147Y-53157206D01*
X102551800Y-53142661D01*
X102535437Y-53127100D01*
X102520059Y-53110522D01*
X102505665Y-53092928D01*
X102492256Y-53074316D01*
X102479832Y-53054688D01*
X102473989Y-53044493D01*
X102468392Y-53034044D01*
X102463042Y-53023340D01*
X102457937Y-53012382D01*
X102453079Y-53001170D01*
X102448467Y-52989704D01*
X102444100Y-52977984D01*
X102439981Y-52966010D01*
X102436107Y-52953781D01*
X102432479Y-52941299D01*
X102429098Y-52928562D01*
X102425963Y-52915571D01*
X102423073Y-52902325D01*
X102420797Y-52890962D01*
X102417916Y-52874171D01*
X102415937Y-52859624D01*
X102671601Y-52859624D01*
X102672494Y-52873364D01*
X102674033Y-52885047D01*
X102676304Y-52897343D01*
X102680557Y-52915160D01*
X102685619Y-52931827D01*
X102691493Y-52947345D01*
X102698176Y-52961713D01*
X102705671Y-52974932D01*
X102713976Y-52987001D01*
X102723091Y-52997921D01*
X102733018Y-53007692D01*
X102743754Y-53016313D01*
X102755302Y-53023784D01*
X102767660Y-53030106D01*
X102780828Y-53035279D01*
X102794807Y-53039302D01*
X102809597Y-53042176D01*
X102825197Y-53043900D01*
X102841608Y-53044475D01*
X102936277Y-53044475D01*
X102877658Y-52763107D01*
X102788852Y-52763107D01*
X102779330Y-52763205D01*
X102764617Y-52763803D01*
X102751349Y-52764945D01*
X102737335Y-52767033D01*
X102725403Y-52769905D01*
X102714113Y-52774244D01*
X102708558Y-52777272D01*
X102698410Y-52785222D01*
X102690582Y-52794252D01*
X102683736Y-52805217D01*
X102678649Y-52816157D01*
X102676437Y-52822099D01*
X102673250Y-52835021D01*
X102671853Y-52846843D01*
X102671601Y-52859624D01*
X102415937Y-52859624D01*
X102415673Y-52857684D01*
X102414069Y-52841501D01*
X102413104Y-52825621D01*
X102412777Y-52810046D01*
X102413090Y-52794775D01*
X102414041Y-52779807D01*
X102415632Y-52765144D01*
X102417861Y-52750784D01*
X102420729Y-52736729D01*
X102422975Y-52727581D01*
X102426800Y-52714315D01*
X102431170Y-52701594D01*
X102436087Y-52689420D01*
X102441550Y-52677792D01*
X102447559Y-52666710D01*
X102454114Y-52656174D01*
X102461215Y-52646185D01*
X102468862Y-52636741D01*
X102477056Y-52627844D01*
X102485795Y-52619492D01*
X102488805Y-52616814D01*
X102497899Y-52609174D01*
X102510177Y-52599910D01*
X102522628Y-52591699D01*
X102535254Y-52584541D01*
X102548054Y-52578436D01*
X102561028Y-52573385D01*
X102574176Y-52569387D01*
X102587498Y-52566443D01*
X102590879Y-52565848D01*
X102605348Y-52563656D01*
X102617192Y-52562211D01*
X102629885Y-52560936D01*
X102643429Y-52559831D01*
X102657823Y-52558896D01*
X102673067Y-52558131D01*
X102689161Y-52557536D01*
X102706105Y-52557111D01*
X102717873Y-52556922D01*
X102730019Y-52556808D01*
X102742543Y-52556771D01*
X103096011Y-52556771D01*
X103333709Y-53701000D01*
G37*
G36*
X102190359Y-52556771D02*
G01*
X101906939Y-52556771D01*
X101776221Y-53218278D01*
X101638761Y-52556771D01*
X101433011Y-52556771D01*
X101670708Y-53701000D01*
X101901957Y-53701000D01*
X102060519Y-52923721D01*
X102222306Y-53701000D01*
X102428056Y-53701000D01*
X102190359Y-52556771D01*
G37*
G36*
X101237812Y-52556771D02*
G01*
X100976667Y-52556771D01*
X101214364Y-53701000D01*
X101475509Y-53701000D01*
X101237812Y-52556771D01*
G37*
G36*
X100789382Y-52556771D02*
G01*
X100505963Y-52556771D01*
X100375244Y-53218278D01*
X100237784Y-52556771D01*
X100032034Y-52556771D01*
X100269731Y-53701000D01*
X100500980Y-53701000D01*
X100659542Y-52923721D01*
X100821329Y-53701000D01*
X101027079Y-53701000D01*
X100789382Y-52556771D01*
G37*
G36*
X99559570Y-53081990D02*
G01*
X99158621Y-53081990D01*
X99287288Y-53701000D01*
X99406284Y-53701000D01*
X99410387Y-53588452D01*
X99423980Y-53604353D01*
X99438162Y-53619227D01*
X99452932Y-53633076D01*
X99468291Y-53645898D01*
X99484238Y-53657695D01*
X99500773Y-53668466D01*
X99517898Y-53678212D01*
X99535610Y-53686931D01*
X99553911Y-53694625D01*
X99572801Y-53701293D01*
X99592279Y-53706935D01*
X99612345Y-53711551D01*
X99633000Y-53715141D01*
X99654243Y-53717706D01*
X99676075Y-53719244D01*
X99698496Y-53719757D01*
X99710476Y-53719605D01*
X99722236Y-53719149D01*
X99745097Y-53717326D01*
X99767079Y-53714286D01*
X99788182Y-53710030D01*
X99808405Y-53704559D01*
X99827749Y-53697872D01*
X99846214Y-53689969D01*
X99863799Y-53680849D01*
X99880505Y-53670515D01*
X99896332Y-53658964D01*
X99911280Y-53646197D01*
X99925348Y-53632215D01*
X99938538Y-53617016D01*
X99950847Y-53600602D01*
X99962278Y-53582972D01*
X99972829Y-53564126D01*
X99982378Y-53544265D01*
X99990873Y-53523592D01*
X99998314Y-53502106D01*
X100004703Y-53479807D01*
X100007502Y-53468353D01*
X100010038Y-53456695D01*
X100012311Y-53444834D01*
X100014320Y-53432770D01*
X100016066Y-53420503D01*
X100017549Y-53408033D01*
X100018768Y-53395359D01*
X100019724Y-53382482D01*
X100020417Y-53369402D01*
X100020846Y-53356119D01*
X100021012Y-53342633D01*
X100020915Y-53328943D01*
X100020554Y-53315050D01*
X100019930Y-53300954D01*
X100019043Y-53286654D01*
X100017892Y-53272152D01*
X100016478Y-53257446D01*
X100014801Y-53242537D01*
X100012860Y-53227425D01*
X100010656Y-53212109D01*
X100008189Y-53196591D01*
X100005459Y-53180869D01*
X100002465Y-53164944D01*
X99999207Y-53148815D01*
X99995496Y-53131362D01*
X99991615Y-53114135D01*
X99987564Y-53097136D01*
X99983344Y-53080365D01*
X99978954Y-53063820D01*
X99974395Y-53047503D01*
X99969667Y-53031413D01*
X99964769Y-53015550D01*
X99959702Y-52999915D01*
X99954465Y-52984507D01*
X99949059Y-52969326D01*
X99943483Y-52954372D01*
X99937738Y-52939646D01*
X99931824Y-52925146D01*
X99925740Y-52910875D01*
X99919487Y-52896830D01*
X99913064Y-52883013D01*
X99906471Y-52869422D01*
X99899710Y-52856060D01*
X99892779Y-52842924D01*
X99885678Y-52830016D01*
X99878408Y-52817335D01*
X99870969Y-52804881D01*
X99863360Y-52792654D01*
X99855581Y-52780655D01*
X99847633Y-52768883D01*
X99839516Y-52757338D01*
X99831229Y-52746021D01*
X99822773Y-52734930D01*
X99814148Y-52724067D01*
X99805353Y-52713432D01*
X99796388Y-52703023D01*
X99787270Y-52692871D01*
X99778013Y-52683041D01*
X99768617Y-52673534D01*
X99759083Y-52664349D01*
X99749411Y-52655486D01*
X99739599Y-52646945D01*
X99729650Y-52638727D01*
X99719562Y-52630831D01*
X99709335Y-52623257D01*
X99698970Y-52616006D01*
X99688466Y-52609077D01*
X99677824Y-52602470D01*
X99667043Y-52596185D01*
X99656123Y-52590223D01*
X99645065Y-52584583D01*
X99633869Y-52579265D01*
X99622534Y-52574270D01*
X99611061Y-52569597D01*
X99599449Y-52565246D01*
X99587698Y-52561217D01*
X99575809Y-52557511D01*
X99563781Y-52554127D01*
X99551615Y-52551065D01*
X99539310Y-52548326D01*
X99526867Y-52545909D01*
X99514285Y-52543814D01*
X99501565Y-52542041D01*
X99488706Y-52540591D01*
X99475709Y-52539463D01*
X99462573Y-52538657D01*
X99449299Y-52538174D01*
X99435886Y-52538013D01*
X99414484Y-52538398D01*
X99393841Y-52539555D01*
X99373955Y-52541483D01*
X99354828Y-52544181D01*
X99336458Y-52547651D01*
X99318846Y-52551892D01*
X99301992Y-52556904D01*
X99285896Y-52562687D01*
X99270558Y-52569242D01*
X99255978Y-52576567D01*
X99242156Y-52584663D01*
X99229091Y-52593531D01*
X99216785Y-52603169D01*
X99205237Y-52613579D01*
X99194446Y-52624760D01*
X99184413Y-52636711D01*
X99175139Y-52649434D01*
X99166622Y-52662928D01*
X99158863Y-52677193D01*
X99151862Y-52692229D01*
X99145619Y-52708036D01*
X99140134Y-52724615D01*
X99135406Y-52741964D01*
X99131437Y-52760084D01*
X99128226Y-52778976D01*
X99125772Y-52798639D01*
X99124077Y-52819072D01*
X99123139Y-52840277D01*
X99122959Y-52862253D01*
X99123537Y-52885000D01*
X99124873Y-52908518D01*
X99126967Y-52932807D01*
X99370819Y-52971202D01*
X99369678Y-52958399D01*
X99368818Y-52946003D01*
X99368240Y-52934013D01*
X99367929Y-52911253D01*
X99368744Y-52890118D01*
X99370686Y-52870609D01*
X99373754Y-52852726D01*
X99377949Y-52836469D01*
X99383270Y-52821837D01*
X99389718Y-52808831D01*
X99397293Y-52797451D01*
X99405994Y-52787696D01*
X99415822Y-52779568D01*
X99426776Y-52773065D01*
X99438857Y-52768187D01*
X99452064Y-52764936D01*
X99466398Y-52763310D01*
X99473988Y-52763107D01*
X99488320Y-52763795D01*
X99502409Y-52765858D01*
X99516257Y-52769297D01*
X99529863Y-52774112D01*
X99543226Y-52780302D01*
X99556347Y-52787867D01*
X99569227Y-52796809D01*
X99581864Y-52807126D01*
X99594258Y-52818818D01*
X99602387Y-52827377D01*
X99610408Y-52836548D01*
X99614378Y-52841362D01*
X99622191Y-52851710D01*
X99629876Y-52863189D01*
X99637432Y-52875798D01*
X99644860Y-52889539D01*
X99652160Y-52904411D01*
X99659331Y-52920415D01*
X99666375Y-52937549D01*
X99673290Y-52955815D01*
X99680077Y-52975211D01*
X99686735Y-52995739D01*
X99693266Y-53017398D01*
X99699668Y-53040188D01*
X99702821Y-53052008D01*
X99705942Y-53064110D01*
X99709031Y-53076494D01*
X99712088Y-53089162D01*
X99715113Y-53102112D01*
X99718105Y-53115346D01*
X99721066Y-53128862D01*
X99723995Y-53142660D01*
X99726491Y-53154871D01*
X99728851Y-53166848D01*
X99731075Y-53178591D01*
X99735114Y-53201375D01*
X99738609Y-53223221D01*
X99741558Y-53244132D01*
X99743962Y-53264105D01*
X99745821Y-53283142D01*
X99747136Y-53301243D01*
X99747905Y-53318407D01*
X99748129Y-53334635D01*
X99747809Y-53349926D01*
X99746943Y-53364281D01*
X99745533Y-53377699D01*
X99743577Y-53390180D01*
X99741077Y-53401725D01*
X99736304Y-53417287D01*
X99730367Y-53431115D01*
X99723435Y-53443583D01*
X99715508Y-53454691D01*
X99706588Y-53464438D01*
X99696673Y-53472826D01*
X99685763Y-53479853D01*
X99673860Y-53485520D01*
X99660962Y-53489827D01*
X99647069Y-53492774D01*
X99632183Y-53494361D01*
X99621706Y-53494663D01*
X99604606Y-53493857D01*
X99588257Y-53491439D01*
X99572659Y-53487409D01*
X99557812Y-53481767D01*
X99543716Y-53474513D01*
X99530371Y-53465647D01*
X99517777Y-53455169D01*
X99505935Y-53443079D01*
X99494843Y-53429377D01*
X99484502Y-53414063D01*
X99474913Y-53397137D01*
X99466074Y-53378599D01*
X99457987Y-53358449D01*
X99450650Y-53336687D01*
X99447264Y-53325201D01*
X99444065Y-53313313D01*
X99441054Y-53301021D01*
X99438230Y-53288327D01*
X99602362Y-53288327D01*
X99559570Y-53081990D01*
G37*
G36*
X98931769Y-52856896D02*
G01*
X98687916Y-52856896D01*
X98742431Y-53119506D01*
X98985990Y-53118627D01*
X98931769Y-52856896D01*
G37*
G36*
X99052522Y-53438390D02*
G01*
X98808670Y-53438390D01*
X98863185Y-53701000D01*
X99107037Y-53701000D01*
X99052522Y-53438390D01*
G37*
G36*
X97815090Y-52556771D02*
G01*
X97614909Y-52556771D01*
X97809815Y-53494663D01*
X97627512Y-53494663D01*
X97670303Y-53701000D01*
X98298984Y-53701000D01*
X98256193Y-53494663D01*
X98070666Y-53494663D01*
X97943171Y-52880930D01*
X97953380Y-52889727D01*
X97964004Y-52898460D01*
X97975041Y-52907129D01*
X97986494Y-52915734D01*
X97998361Y-52924275D01*
X98010642Y-52932752D01*
X98023337Y-52941165D01*
X98036448Y-52949513D01*
X98049972Y-52957798D01*
X98063911Y-52966018D01*
X98078265Y-52974174D01*
X98093032Y-52982266D01*
X98108215Y-52990294D01*
X98123812Y-52998258D01*
X98139823Y-53006158D01*
X98156249Y-53013993D01*
X98105251Y-52769262D01*
X98084608Y-52758918D01*
X98064300Y-52748182D01*
X98044327Y-52737055D01*
X98024687Y-52725536D01*
X98005382Y-52713626D01*
X97986411Y-52701324D01*
X97967775Y-52688631D01*
X97949473Y-52675546D01*
X97931505Y-52662069D01*
X97913871Y-52648201D01*
X97896572Y-52633942D01*
X97879607Y-52619291D01*
X97862976Y-52604248D01*
X97846680Y-52588814D01*
X97830718Y-52572988D01*
X97815090Y-52556771D01*
G37*
G36*
X97298956Y-52556771D02*
G01*
X96626605Y-52556771D01*
X96669689Y-52764866D01*
X96690405Y-52786702D01*
X96710715Y-52809017D01*
X96730618Y-52831811D01*
X96750115Y-52855083D01*
X96769206Y-52878833D01*
X96787890Y-52903063D01*
X96806167Y-52927771D01*
X96824038Y-52952957D01*
X96841503Y-52978622D01*
X96858561Y-53004765D01*
X96875213Y-53031388D01*
X96891458Y-53058488D01*
X96907297Y-53086067D01*
X96922730Y-53114125D01*
X96937756Y-53142661D01*
X96952376Y-53171676D01*
X96966589Y-53201170D01*
X96980396Y-53231142D01*
X96993796Y-53261592D01*
X97006790Y-53292522D01*
X97019377Y-53323929D01*
X97031558Y-53355816D01*
X97043333Y-53388181D01*
X97054701Y-53421024D01*
X97065663Y-53454346D01*
X97076218Y-53488146D01*
X97086367Y-53522426D01*
X97096109Y-53557183D01*
X97105445Y-53592419D01*
X97114375Y-53628134D01*
X97122898Y-53664328D01*
X97131015Y-53701000D01*
X97413262Y-53701000D01*
X97405730Y-53668231D01*
X97397679Y-53635761D01*
X97389108Y-53603591D01*
X97380019Y-53571719D01*
X97370410Y-53540146D01*
X97360282Y-53508871D01*
X97349635Y-53477896D01*
X97338469Y-53447219D01*
X97326783Y-53416841D01*
X97314578Y-53386762D01*
X97301854Y-53356982D01*
X97288611Y-53327500D01*
X97274849Y-53298318D01*
X97260567Y-53269434D01*
X97245766Y-53240849D01*
X97230446Y-53212563D01*
X97214607Y-53184575D01*
X97198248Y-53156887D01*
X97181371Y-53129497D01*
X97163974Y-53102406D01*
X97146058Y-53075614D01*
X97127623Y-53049121D01*
X97108668Y-53022926D01*
X97089194Y-52997031D01*
X97069201Y-52971434D01*
X97048689Y-52946136D01*
X97027658Y-52921136D01*
X97006108Y-52896436D01*
X96984038Y-52872035D01*
X96961449Y-52847932D01*
X96938341Y-52824128D01*
X96914713Y-52800623D01*
X97369591Y-52800623D01*
X97298956Y-52556771D01*
G37*
G36*
X96179780Y-52538156D02*
G01*
X96192068Y-52538586D01*
X96204195Y-52539303D01*
X96216162Y-52540307D01*
X96227968Y-52541598D01*
X96239613Y-52543175D01*
X96262420Y-52547190D01*
X96284584Y-52552352D01*
X96306104Y-52558662D01*
X96326982Y-52566119D01*
X96347215Y-52574722D01*
X96366805Y-52584473D01*
X96385752Y-52595372D01*
X96404055Y-52607417D01*
X96421715Y-52620610D01*
X96438732Y-52634949D01*
X96455105Y-52650436D01*
X96470834Y-52667070D01*
X96485921Y-52684852D01*
X96493250Y-52694188D01*
X96500474Y-52703842D01*
X96507593Y-52713814D01*
X96514607Y-52724103D01*
X96521515Y-52734710D01*
X96528318Y-52745635D01*
X96535016Y-52756877D01*
X96541608Y-52768438D01*
X96548095Y-52780315D01*
X96554477Y-52792511D01*
X96560753Y-52805024D01*
X96566924Y-52817856D01*
X96572989Y-52831004D01*
X96578950Y-52844471D01*
X96584805Y-52858255D01*
X96590554Y-52872357D01*
X96596199Y-52886776D01*
X96601738Y-52901514D01*
X96607171Y-52916569D01*
X96612500Y-52931941D01*
X96617722Y-52947632D01*
X96622840Y-52963640D01*
X96627852Y-52979966D01*
X96632759Y-52996609D01*
X96637561Y-53013570D01*
X96642257Y-53030849D01*
X96646848Y-53048446D01*
X96651334Y-53066360D01*
X96655714Y-53084592D01*
X96659989Y-53103142D01*
X96664159Y-53122010D01*
X96668224Y-53141195D01*
X96671616Y-53157935D01*
X96674796Y-53174450D01*
X96677764Y-53190741D01*
X96680520Y-53206806D01*
X96683063Y-53222647D01*
X96685393Y-53238262D01*
X96687512Y-53253652D01*
X96689418Y-53268818D01*
X96691111Y-53283758D01*
X96692592Y-53298474D01*
X96693861Y-53312964D01*
X96694918Y-53327230D01*
X96695762Y-53341271D01*
X96696393Y-53355086D01*
X96696813Y-53368677D01*
X96697020Y-53382043D01*
X96697014Y-53395184D01*
X96696796Y-53408099D01*
X96696366Y-53420790D01*
X96695724Y-53433256D01*
X96694869Y-53445497D01*
X96693801Y-53457513D01*
X96691030Y-53480870D01*
X96687408Y-53503327D01*
X96682938Y-53524884D01*
X96677617Y-53545541D01*
X96671448Y-53565298D01*
X96667979Y-53574801D01*
X96660128Y-53592902D01*
X96651056Y-53609796D01*
X96640763Y-53625483D01*
X96629250Y-53639963D01*
X96616517Y-53653237D01*
X96602563Y-53665304D01*
X96587388Y-53676165D01*
X96570994Y-53685819D01*
X96553378Y-53694266D01*
X96534543Y-53701506D01*
X96514486Y-53707539D01*
X96493210Y-53712366D01*
X96470713Y-53715986D01*
X96459007Y-53717344D01*
X96446995Y-53718400D01*
X96434679Y-53719154D01*
X96422057Y-53719607D01*
X96409131Y-53719757D01*
X96396699Y-53719614D01*
X96384429Y-53719183D01*
X96372318Y-53718464D01*
X96360368Y-53717458D01*
X96348578Y-53716165D01*
X96325478Y-53712717D01*
X96303020Y-53708119D01*
X96281203Y-53702372D01*
X96260027Y-53695475D01*
X96239493Y-53687429D01*
X96219599Y-53678233D01*
X96200347Y-53667888D01*
X96181735Y-53656393D01*
X96163765Y-53643749D01*
X96146436Y-53629955D01*
X96129748Y-53615012D01*
X96113701Y-53598920D01*
X96098296Y-53581678D01*
X96090833Y-53572625D01*
X96083504Y-53563255D01*
X96076281Y-53553570D01*
X96069163Y-53543572D01*
X96062152Y-53533260D01*
X96055246Y-53522634D01*
X96048446Y-53511695D01*
X96041752Y-53500441D01*
X96035164Y-53488875D01*
X96028682Y-53476994D01*
X96022306Y-53464800D01*
X96016036Y-53452292D01*
X96009871Y-53439470D01*
X96003813Y-53426335D01*
X95997860Y-53412886D01*
X95992014Y-53399123D01*
X95986273Y-53385047D01*
X95980638Y-53370657D01*
X95975109Y-53355953D01*
X95969686Y-53340936D01*
X95964369Y-53325604D01*
X95959158Y-53309959D01*
X95954052Y-53294001D01*
X95949053Y-53277729D01*
X95944159Y-53261143D01*
X95939372Y-53244243D01*
X95934690Y-53227029D01*
X95930114Y-53209502D01*
X95925644Y-53191662D01*
X95921280Y-53173507D01*
X95917022Y-53155039D01*
X95912870Y-53136257D01*
X95908824Y-53117161D01*
X95905413Y-53100385D01*
X95902216Y-53083835D01*
X95899233Y-53067511D01*
X95896463Y-53051413D01*
X95893907Y-53035541D01*
X95891564Y-53019895D01*
X95889435Y-53004475D01*
X95887520Y-52989282D01*
X95885817Y-52974315D01*
X95884329Y-52959573D01*
X95883054Y-52945058D01*
X95881992Y-52930769D01*
X95881144Y-52916706D01*
X95880509Y-52902869D01*
X95880088Y-52889258D01*
X95879881Y-52875874D01*
X95879887Y-52862715D01*
X95880106Y-52849783D01*
X95880539Y-52837077D01*
X95880611Y-52835697D01*
X96139822Y-52835697D01*
X96140300Y-52848261D01*
X96141244Y-52862265D01*
X96142652Y-52877709D01*
X96144525Y-52894594D01*
X96146863Y-52912919D01*
X96149666Y-52932685D01*
X96152933Y-52953890D01*
X96156665Y-52976536D01*
X96158706Y-52988399D01*
X96160863Y-53000622D01*
X96163135Y-53013206D01*
X96165524Y-53026149D01*
X96168030Y-53039452D01*
X96170651Y-53053115D01*
X96173389Y-53067139D01*
X96176243Y-53081522D01*
X96179213Y-53096266D01*
X96182299Y-53111370D01*
X96185502Y-53126833D01*
X96189072Y-53143874D01*
X96192600Y-53160483D01*
X96196088Y-53176661D01*
X96199534Y-53192408D01*
X96202939Y-53207724D01*
X96206302Y-53222609D01*
X96209625Y-53237063D01*
X96212906Y-53251086D01*
X96216146Y-53264678D01*
X96219345Y-53277838D01*
X96222502Y-53290568D01*
X96225619Y-53302867D01*
X96228694Y-53314734D01*
X96231728Y-53326171D01*
X96237672Y-53347751D01*
X96243452Y-53367607D01*
X96249066Y-53385738D01*
X96254516Y-53402146D01*
X96259801Y-53416829D01*
X96264921Y-53429788D01*
X96272291Y-53445994D01*
X96279291Y-53458320D01*
X96281580Y-53461710D01*
X96288661Y-53471234D01*
X96298599Y-53482427D01*
X96309104Y-53491897D01*
X96320177Y-53499646D01*
X96331819Y-53505672D01*
X96344028Y-53509977D01*
X96356805Y-53512560D01*
X96370150Y-53513421D01*
X96383110Y-53512533D01*
X96397429Y-53508923D01*
X96409660Y-53502538D01*
X96419800Y-53493376D01*
X96427852Y-53481437D01*
X96432789Y-53469888D01*
X96436388Y-53456561D01*
X96437590Y-53448592D01*
X96438406Y-53433542D01*
X96438292Y-53421445D01*
X96437650Y-53407697D01*
X96436483Y-53392298D01*
X96434788Y-53375249D01*
X96432567Y-53356548D01*
X96429819Y-53336197D01*
X96426545Y-53314194D01*
X96424710Y-53302574D01*
X96422744Y-53290541D01*
X96420646Y-53278095D01*
X96418416Y-53265236D01*
X96416055Y-53251965D01*
X96413562Y-53238281D01*
X96410937Y-53224184D01*
X96408181Y-53209675D01*
X96405293Y-53194753D01*
X96402273Y-53179418D01*
X96399122Y-53163670D01*
X96395839Y-53147510D01*
X96392424Y-53130937D01*
X96388908Y-53114129D01*
X96385430Y-53097742D01*
X96381991Y-53081775D01*
X96378590Y-53066228D01*
X96375227Y-53051101D01*
X96371902Y-53036394D01*
X96368616Y-53022108D01*
X96365368Y-53008241D01*
X96362159Y-52994795D01*
X96358988Y-52981769D01*
X96355855Y-52969163D01*
X96352761Y-52956978D01*
X96349705Y-52945212D01*
X96346687Y-52933867D01*
X96340767Y-52912437D01*
X96335000Y-52892688D01*
X96329387Y-52874619D01*
X96323927Y-52858231D01*
X96318620Y-52843524D01*
X96313467Y-52830497D01*
X96306025Y-52814109D01*
X96298928Y-52801502D01*
X96296602Y-52797986D01*
X96289403Y-52788107D01*
X96279291Y-52776498D01*
X96268593Y-52766674D01*
X96257309Y-52758637D01*
X96245439Y-52752386D01*
X96232983Y-52747921D01*
X96219940Y-52745242D01*
X96206311Y-52744349D01*
X96192527Y-52745384D01*
X96180336Y-52748489D01*
X96169739Y-52753664D01*
X96158734Y-52763043D01*
X96151723Y-52772876D01*
X96146305Y-52784778D01*
X96142481Y-52798750D01*
X96140659Y-52810588D01*
X96139975Y-52819551D01*
X96139822Y-52835697D01*
X95880611Y-52835697D01*
X95881186Y-52824597D01*
X95882046Y-52812343D01*
X95883120Y-52800315D01*
X95885908Y-52776937D01*
X95889549Y-52754464D01*
X95894045Y-52732896D01*
X95899395Y-52712232D01*
X95905600Y-52692472D01*
X95909067Y-52682969D01*
X95916914Y-52664868D01*
X95925977Y-52647974D01*
X95936256Y-52632287D01*
X95947751Y-52617807D01*
X95960461Y-52604533D01*
X95974388Y-52592466D01*
X95989530Y-52581605D01*
X96005888Y-52571952D01*
X96023462Y-52563505D01*
X96042252Y-52556264D01*
X96062258Y-52550231D01*
X96083480Y-52545404D01*
X96105917Y-52541784D01*
X96117592Y-52540426D01*
X96129570Y-52539370D01*
X96141853Y-52538616D01*
X96154440Y-52538164D01*
X96167330Y-52538013D01*
X96179780Y-52538156D01*
G37*
G36*
X95767260Y-52556771D02*
G01*
X95494392Y-52556771D01*
X95502599Y-53374789D01*
X95165544Y-52556771D01*
X94937812Y-52556771D01*
X95449842Y-53701000D01*
X95735900Y-53701000D01*
X95767260Y-52556771D01*
G37*
G36*
X95103702Y-53701000D02*
G01*
X94802697Y-53701000D01*
X94787882Y-53700908D01*
X94773333Y-53700633D01*
X94759049Y-53700175D01*
X94745031Y-53699534D01*
X94731279Y-53698710D01*
X94717792Y-53697702D01*
X94704571Y-53696512D01*
X94691615Y-53695138D01*
X94678925Y-53693581D01*
X94666501Y-53691840D01*
X94654342Y-53689917D01*
X94642449Y-53687810D01*
X94630821Y-53685521D01*
X94613878Y-53681742D01*
X94597533Y-53677552D01*
X94592191Y-53676024D01*
X94576251Y-53670912D01*
X94560441Y-53665006D01*
X94544759Y-53658307D01*
X94529206Y-53650814D01*
X94513782Y-53642528D01*
X94503571Y-53636563D01*
X94493417Y-53630245D01*
X94483320Y-53623575D01*
X94473280Y-53616553D01*
X94463298Y-53609177D01*
X94453373Y-53601449D01*
X94443505Y-53593369D01*
X94433695Y-53584935D01*
X94423970Y-53576131D01*
X94414360Y-53566938D01*
X94404864Y-53557355D01*
X94395483Y-53547383D01*
X94386216Y-53537022D01*
X94377064Y-53526271D01*
X94368026Y-53515131D01*
X94359103Y-53503602D01*
X94350294Y-53491684D01*
X94341600Y-53479377D01*
X94333020Y-53466680D01*
X94324555Y-53453594D01*
X94316204Y-53440118D01*
X94307967Y-53426254D01*
X94299846Y-53412000D01*
X94291838Y-53397357D01*
X94283976Y-53382351D01*
X94276364Y-53367081D01*
X94269001Y-53351549D01*
X94261888Y-53335753D01*
X94255024Y-53319693D01*
X94248410Y-53303371D01*
X94242046Y-53286785D01*
X94235931Y-53269935D01*
X94230066Y-53252823D01*
X94224450Y-53235447D01*
X94219084Y-53217807D01*
X94213968Y-53199905D01*
X94209101Y-53181739D01*
X94204483Y-53163310D01*
X94200116Y-53144617D01*
X94195997Y-53125661D01*
X94193276Y-53112246D01*
X94190717Y-53099002D01*
X94188321Y-53085930D01*
X94186087Y-53073028D01*
X94184016Y-53060298D01*
X94182108Y-53047739D01*
X94180362Y-53035351D01*
X94178778Y-53023134D01*
X94177357Y-53011088D01*
X94176099Y-52999214D01*
X94174071Y-52975978D01*
X94172692Y-52953427D01*
X94172420Y-52945272D01*
X94446951Y-52945272D01*
X94447154Y-52957683D01*
X94447693Y-52970625D01*
X94448569Y-52984098D01*
X94449781Y-52998102D01*
X94451330Y-53012638D01*
X94453216Y-53027704D01*
X94455438Y-53043302D01*
X94457997Y-53059432D01*
X94460893Y-53076092D01*
X94464125Y-53093284D01*
X94467693Y-53111006D01*
X94471769Y-53130242D01*
X94475936Y-53148893D01*
X94480195Y-53166961D01*
X94484546Y-53184444D01*
X94488988Y-53201344D01*
X94493522Y-53217660D01*
X94498147Y-53233392D01*
X94502864Y-53248540D01*
X94507673Y-53263104D01*
X94512573Y-53277084D01*
X94517564Y-53290480D01*
X94522648Y-53303293D01*
X94527823Y-53315521D01*
X94533089Y-53327166D01*
X94538447Y-53338227D01*
X94543897Y-53348704D01*
X94546633Y-53353748D01*
X94554924Y-53368304D01*
X94563339Y-53381995D01*
X94571878Y-53394820D01*
X94580540Y-53406779D01*
X94589326Y-53417873D01*
X94598236Y-53428102D01*
X94607269Y-53437465D01*
X94616426Y-53445962D01*
X94625706Y-53453594D01*
X94638272Y-53462423D01*
X94651429Y-53469979D01*
X94665548Y-53476528D01*
X94676768Y-53480779D01*
X94688530Y-53484462D01*
X94700832Y-53487579D01*
X94713675Y-53490129D01*
X94727059Y-53492113D01*
X94740984Y-53493530D01*
X94755450Y-53494380D01*
X94770457Y-53494663D01*
X94799766Y-53494663D01*
X94647651Y-52763107D01*
X94614532Y-52763107D01*
X94605160Y-52763209D01*
X94591677Y-52763744D01*
X94578885Y-52764737D01*
X94566783Y-52766189D01*
X94551721Y-52768839D01*
X94537886Y-52772303D01*
X94525278Y-52776583D01*
X94513898Y-52781677D01*
X94501399Y-52789192D01*
X94492469Y-52796492D01*
X94484289Y-52805349D01*
X94476861Y-52815763D01*
X94470184Y-52827734D01*
X94464258Y-52841262D01*
X94460307Y-52852429D01*
X94456778Y-52864473D01*
X94453671Y-52877393D01*
X94450987Y-52891188D01*
X94449507Y-52900942D01*
X94447917Y-52916570D01*
X94447085Y-52933393D01*
X94446951Y-52945272D01*
X94172420Y-52945272D01*
X94171964Y-52931561D01*
X94171886Y-52910380D01*
X94172459Y-52889883D01*
X94173681Y-52870070D01*
X94175554Y-52850943D01*
X94178078Y-52832500D01*
X94181251Y-52814741D01*
X94185075Y-52797668D01*
X94189549Y-52781279D01*
X94194587Y-52765511D01*
X94200101Y-52750376D01*
X94206091Y-52735872D01*
X94212557Y-52722001D01*
X94219500Y-52708761D01*
X94226919Y-52696154D01*
X94234814Y-52684178D01*
X94243185Y-52672835D01*
X94252033Y-52662123D01*
X94261357Y-52652044D01*
X94271157Y-52642596D01*
X94281434Y-52633780D01*
X94292186Y-52625597D01*
X94303415Y-52618045D01*
X94315121Y-52611125D01*
X94327302Y-52604838D01*
X94340004Y-52599017D01*
X94353268Y-52593572D01*
X94367096Y-52588502D01*
X94381488Y-52583808D01*
X94396442Y-52579490D01*
X94411960Y-52575547D01*
X94428041Y-52571979D01*
X94444685Y-52568787D01*
X94461893Y-52565971D01*
X94479664Y-52563530D01*
X94497998Y-52561465D01*
X94516896Y-52559775D01*
X94536357Y-52558460D01*
X94556381Y-52557522D01*
X94576968Y-52556958D01*
X94598119Y-52556771D01*
X94866004Y-52556771D01*
X95103702Y-53701000D01*
G37*
G36*
X93534197Y-53268983D02*
G01*
X93295034Y-53284517D01*
X93298495Y-53296840D01*
X93302101Y-53309007D01*
X93305850Y-53321018D01*
X93309744Y-53332872D01*
X93313782Y-53344570D01*
X93317964Y-53356112D01*
X93322291Y-53367498D01*
X93326762Y-53378727D01*
X93331377Y-53389800D01*
X93336136Y-53400717D01*
X93341039Y-53411478D01*
X93346087Y-53422082D01*
X93356616Y-53442821D01*
X93367721Y-53462936D01*
X93379404Y-53482425D01*
X93391663Y-53501290D01*
X93404499Y-53519529D01*
X93417913Y-53537143D01*
X93431904Y-53554132D01*
X93446471Y-53570496D01*
X93461616Y-53586235D01*
X93477337Y-53601348D01*
X93493479Y-53615687D01*
X93509957Y-53629101D01*
X93526772Y-53641589D01*
X93543924Y-53653152D01*
X93561412Y-53663791D01*
X93579237Y-53673504D01*
X93597398Y-53682292D01*
X93615896Y-53690155D01*
X93634731Y-53697093D01*
X93653902Y-53703106D01*
X93673410Y-53708194D01*
X93693254Y-53712357D01*
X93713435Y-53715595D01*
X93733953Y-53717907D01*
X93754807Y-53719295D01*
X93775997Y-53719757D01*
X93788929Y-53719603D01*
X93801602Y-53719138D01*
X93814016Y-53718364D01*
X93826171Y-53717280D01*
X93838068Y-53715886D01*
X93849705Y-53714183D01*
X93872205Y-53709847D01*
X93893669Y-53704273D01*
X93914098Y-53697460D01*
X93933493Y-53689408D01*
X93951852Y-53680117D01*
X93969177Y-53669587D01*
X93985466Y-53657819D01*
X94000721Y-53644812D01*
X94014940Y-53630566D01*
X94028125Y-53615081D01*
X94040274Y-53598358D01*
X94051389Y-53580396D01*
X94061468Y-53561195D01*
X94070473Y-53540887D01*
X94078436Y-53519677D01*
X94085357Y-53497564D01*
X94088426Y-53486170D01*
X94091236Y-53474550D01*
X94093784Y-53462704D01*
X94096073Y-53450633D01*
X94098101Y-53438336D01*
X94099868Y-53425814D01*
X94101375Y-53413066D01*
X94102621Y-53400093D01*
X94103607Y-53386894D01*
X94104333Y-53373470D01*
X94104798Y-53359820D01*
X94105003Y-53345944D01*
X94104947Y-53331843D01*
X94104631Y-53317517D01*
X94104054Y-53302965D01*
X94103217Y-53288187D01*
X94102119Y-53273184D01*
X94100761Y-53257955D01*
X94099142Y-53242501D01*
X94097263Y-53226821D01*
X94095124Y-53210916D01*
X94092724Y-53194785D01*
X94090063Y-53178428D01*
X94087143Y-53161846D01*
X94083961Y-53145039D01*
X94080519Y-53128006D01*
X94076866Y-53110884D01*
X94073051Y-53093995D01*
X94069074Y-53077337D01*
X94064935Y-53060911D01*
X94060634Y-53044717D01*
X94056171Y-53028754D01*
X94051546Y-53013024D01*
X94046759Y-52997525D01*
X94041810Y-52982258D01*
X94036699Y-52967223D01*
X94031426Y-52952420D01*
X94025991Y-52937849D01*
X94020394Y-52923510D01*
X94014634Y-52909402D01*
X94008713Y-52895526D01*
X94002630Y-52881882D01*
X93996385Y-52868470D01*
X93989978Y-52855290D01*
X93983409Y-52842342D01*
X93976678Y-52829625D01*
X93969785Y-52817140D01*
X93962730Y-52804887D01*
X93955513Y-52792866D01*
X93948134Y-52781077D01*
X93940593Y-52769520D01*
X93932889Y-52758194D01*
X93925024Y-52747101D01*
X93916997Y-52736239D01*
X93908808Y-52725609D01*
X93900457Y-52715211D01*
X93891944Y-52705044D01*
X93883269Y-52695110D01*
X93874425Y-52685445D01*
X93865441Y-52676086D01*
X93856317Y-52667035D01*
X93847054Y-52658290D01*
X93837651Y-52649852D01*
X93828108Y-52641721D01*
X93818426Y-52633897D01*
X93808604Y-52626380D01*
X93798642Y-52619169D01*
X93788541Y-52612266D01*
X93778300Y-52605669D01*
X93767919Y-52599379D01*
X93757399Y-52593396D01*
X93746739Y-52587719D01*
X93735939Y-52582350D01*
X93725000Y-52577287D01*
X93713920Y-52572531D01*
X93702702Y-52568082D01*
X93691343Y-52563940D01*
X93679845Y-52560105D01*
X93668207Y-52556576D01*
X93656430Y-52553354D01*
X93644513Y-52550439D01*
X93632456Y-52547831D01*
X93620259Y-52545530D01*
X93607923Y-52543536D01*
X93595447Y-52541848D01*
X93582832Y-52540467D01*
X93570077Y-52539393D01*
X93557182Y-52538626D01*
X93544147Y-52538166D01*
X93530973Y-52538013D01*
X93509179Y-52538454D01*
X93488200Y-52539778D01*
X93468036Y-52541985D01*
X93448688Y-52545074D01*
X93430154Y-52549047D01*
X93412436Y-52553902D01*
X93395533Y-52559639D01*
X93379445Y-52566259D01*
X93364172Y-52573762D01*
X93349714Y-52582148D01*
X93336072Y-52591417D01*
X93323244Y-52601568D01*
X93311232Y-52612602D01*
X93300035Y-52624518D01*
X93289653Y-52637318D01*
X93280087Y-52651000D01*
X93271335Y-52665564D01*
X93263399Y-52681012D01*
X93256278Y-52697342D01*
X93249972Y-52714555D01*
X93244481Y-52732650D01*
X93239805Y-52751628D01*
X93235944Y-52771489D01*
X93232899Y-52792233D01*
X93230669Y-52813859D01*
X93229254Y-52836368D01*
X93228654Y-52859760D01*
X93228869Y-52884035D01*
X93229899Y-52909192D01*
X93231745Y-52935232D01*
X93234406Y-52962154D01*
X93237882Y-52989960D01*
X93481734Y-53007838D01*
X93479285Y-52992782D01*
X93477178Y-52978203D01*
X93475413Y-52964102D01*
X93473990Y-52950479D01*
X93472908Y-52937335D01*
X93472168Y-52924668D01*
X93471770Y-52912479D01*
X93471999Y-52889536D01*
X93473595Y-52868504D01*
X93476558Y-52849384D01*
X93480888Y-52832177D01*
X93486585Y-52816881D01*
X93493649Y-52803497D01*
X93502080Y-52792025D01*
X93511878Y-52782466D01*
X93523043Y-52774818D01*
X93535575Y-52769082D01*
X93549474Y-52765258D01*
X93564739Y-52763346D01*
X93572885Y-52763107D01*
X93586133Y-52763787D01*
X93599171Y-52765827D01*
X93611996Y-52769228D01*
X93624611Y-52773988D01*
X93637015Y-52780109D01*
X93649207Y-52787589D01*
X93661188Y-52796430D01*
X93672957Y-52806631D01*
X93684516Y-52818192D01*
X93695863Y-52831113D01*
X93703311Y-52840483D01*
X93710667Y-52850745D01*
X93717933Y-52862186D01*
X93725111Y-52874806D01*
X93732199Y-52888605D01*
X93739197Y-52903584D01*
X93746107Y-52919741D01*
X93752927Y-52937078D01*
X93759658Y-52955595D01*
X93766299Y-52975290D01*
X93772851Y-52996165D01*
X93779314Y-53018219D01*
X93782512Y-53029688D01*
X93785688Y-53041452D01*
X93788841Y-53053511D01*
X93791972Y-53065865D01*
X93795081Y-53078513D01*
X93798167Y-53091456D01*
X93801231Y-53104694D01*
X93804273Y-53118227D01*
X93807292Y-53132055D01*
X93810289Y-53146177D01*
X93812863Y-53158745D01*
X93815308Y-53171057D01*
X93817626Y-53183115D01*
X93819815Y-53194918D01*
X93821875Y-53206466D01*
X93825612Y-53228798D01*
X93828836Y-53250111D01*
X93831547Y-53270406D01*
X93833746Y-53289681D01*
X93835431Y-53307937D01*
X93836603Y-53325175D01*
X93837263Y-53341393D01*
X93837409Y-53356593D01*
X93837043Y-53370773D01*
X93836164Y-53383935D01*
X93834771Y-53396078D01*
X93831721Y-53412381D01*
X93829047Y-53421976D01*
X93824142Y-53434966D01*
X93818331Y-53446679D01*
X93811613Y-53457113D01*
X93803988Y-53466270D01*
X93792411Y-53476491D01*
X93779221Y-53484442D01*
X93768272Y-53488914D01*
X93756415Y-53492108D01*
X93743652Y-53494024D01*
X93729982Y-53494663D01*
X93714551Y-53493782D01*
X93699546Y-53491137D01*
X93684967Y-53486729D01*
X93670814Y-53480558D01*
X93657087Y-53472624D01*
X93643786Y-53462927D01*
X93630910Y-53451467D01*
X93618461Y-53438243D01*
X93606437Y-53423256D01*
X93594839Y-53406507D01*
X93583668Y-53387994D01*
X93572922Y-53367718D01*
X93567708Y-53356919D01*
X93562602Y-53345679D01*
X93557601Y-53333998D01*
X93552708Y-53321877D01*
X93547920Y-53309314D01*
X93543239Y-53296311D01*
X93538665Y-53282867D01*
X93534197Y-53268983D01*
G37*
D10*
X97081094Y-122962619D02*
X97081094Y-121962619D01*
X96509666Y-122962619D02*
X96938237Y-122391190D01*
X96509666Y-121962619D02*
X97081094Y-122534047D01*
X95604904Y-121962619D02*
X96081094Y-121962619D01*
X96081094Y-121962619D02*
X96128713Y-122438809D01*
X96128713Y-122438809D02*
X96081094Y-122391190D01*
X96081094Y-122391190D02*
X95985856Y-122343571D01*
X95985856Y-122343571D02*
X95747761Y-122343571D01*
X95747761Y-122343571D02*
X95652523Y-122391190D01*
X95652523Y-122391190D02*
X95604904Y-122438809D01*
X95604904Y-122438809D02*
X95557285Y-122534047D01*
X95557285Y-122534047D02*
X95557285Y-122772142D01*
X95557285Y-122772142D02*
X95604904Y-122867380D01*
X95604904Y-122867380D02*
X95652523Y-122915000D01*
X95652523Y-122915000D02*
X95747761Y-122962619D01*
X95747761Y-122962619D02*
X95985856Y-122962619D01*
X95985856Y-122962619D02*
X96081094Y-122915000D01*
X96081094Y-122915000D02*
X96128713Y-122867380D01*
X76867094Y-122962619D02*
X76867094Y-121962619D01*
X76295666Y-122962619D02*
X76724237Y-122391190D01*
X76295666Y-121962619D02*
X76867094Y-122534047D01*
X75438523Y-122295952D02*
X75438523Y-122962619D01*
X75676618Y-121915000D02*
X75914713Y-122629285D01*
X75914713Y-122629285D02*
X75295666Y-122629285D01*
X76881094Y-102762619D02*
X76881094Y-101762619D01*
X76309666Y-102762619D02*
X76738237Y-102191190D01*
X76309666Y-101762619D02*
X76881094Y-102334047D01*
X75357285Y-102762619D02*
X75928713Y-102762619D01*
X75642999Y-102762619D02*
X75642999Y-101762619D01*
X75642999Y-101762619D02*
X75738237Y-101905476D01*
X75738237Y-101905476D02*
X75833475Y-102000714D01*
X75833475Y-102000714D02*
X75928713Y-102048333D01*
X97081094Y-102762619D02*
X97081094Y-101762619D01*
X96509666Y-102762619D02*
X96938237Y-102191190D01*
X96509666Y-101762619D02*
X97081094Y-102334047D01*
X96128713Y-101857857D02*
X96081094Y-101810238D01*
X96081094Y-101810238D02*
X95985856Y-101762619D01*
X95985856Y-101762619D02*
X95747761Y-101762619D01*
X95747761Y-101762619D02*
X95652523Y-101810238D01*
X95652523Y-101810238D02*
X95604904Y-101857857D01*
X95604904Y-101857857D02*
X95557285Y-101953095D01*
X95557285Y-101953095D02*
X95557285Y-102048333D01*
X95557285Y-102048333D02*
X95604904Y-102191190D01*
X95604904Y-102191190D02*
X96176332Y-102762619D01*
X96176332Y-102762619D02*
X95557285Y-102762619D01*
X117281094Y-122962619D02*
X117281094Y-121962619D01*
X116709666Y-122962619D02*
X117138237Y-122391190D01*
X116709666Y-121962619D02*
X117281094Y-122534047D01*
X115852523Y-121962619D02*
X116042999Y-121962619D01*
X116042999Y-121962619D02*
X116138237Y-122010238D01*
X116138237Y-122010238D02*
X116185856Y-122057857D01*
X116185856Y-122057857D02*
X116281094Y-122200714D01*
X116281094Y-122200714D02*
X116328713Y-122391190D01*
X116328713Y-122391190D02*
X116328713Y-122772142D01*
X116328713Y-122772142D02*
X116281094Y-122867380D01*
X116281094Y-122867380D02*
X116233475Y-122915000D01*
X116233475Y-122915000D02*
X116138237Y-122962619D01*
X116138237Y-122962619D02*
X115947761Y-122962619D01*
X115947761Y-122962619D02*
X115852523Y-122915000D01*
X115852523Y-122915000D02*
X115804904Y-122867380D01*
X115804904Y-122867380D02*
X115757285Y-122772142D01*
X115757285Y-122772142D02*
X115757285Y-122534047D01*
X115757285Y-122534047D02*
X115804904Y-122438809D01*
X115804904Y-122438809D02*
X115852523Y-122391190D01*
X115852523Y-122391190D02*
X115947761Y-122343571D01*
X115947761Y-122343571D02*
X116138237Y-122343571D01*
X116138237Y-122343571D02*
X116233475Y-122391190D01*
X116233475Y-122391190D02*
X116281094Y-122438809D01*
X116281094Y-122438809D02*
X116328713Y-122534047D01*
X117281094Y-102762619D02*
X117281094Y-101762619D01*
X116709666Y-102762619D02*
X117138237Y-102191190D01*
X116709666Y-101762619D02*
X117281094Y-102334047D01*
X116376332Y-101762619D02*
X115757285Y-101762619D01*
X115757285Y-101762619D02*
X116090618Y-102143571D01*
X116090618Y-102143571D02*
X115947761Y-102143571D01*
X115947761Y-102143571D02*
X115852523Y-102191190D01*
X115852523Y-102191190D02*
X115804904Y-102238809D01*
X115804904Y-102238809D02*
X115757285Y-102334047D01*
X115757285Y-102334047D02*
X115757285Y-102572142D01*
X115757285Y-102572142D02*
X115804904Y-102667380D01*
X115804904Y-102667380D02*
X115852523Y-102715000D01*
X115852523Y-102715000D02*
X115947761Y-102762619D01*
X115947761Y-102762619D02*
X116233475Y-102762619D01*
X116233475Y-102762619D02*
X116328713Y-102715000D01*
X116328713Y-102715000D02*
X116376332Y-102667380D01*
X64625666Y-58584380D02*
X64673285Y-58632000D01*
X64673285Y-58632000D02*
X64816142Y-58679619D01*
X64816142Y-58679619D02*
X64911380Y-58679619D01*
X64911380Y-58679619D02*
X65054237Y-58632000D01*
X65054237Y-58632000D02*
X65149475Y-58536761D01*
X65149475Y-58536761D02*
X65197094Y-58441523D01*
X65197094Y-58441523D02*
X65244713Y-58251047D01*
X65244713Y-58251047D02*
X65244713Y-58108190D01*
X65244713Y-58108190D02*
X65197094Y-57917714D01*
X65197094Y-57917714D02*
X65149475Y-57822476D01*
X65149475Y-57822476D02*
X65054237Y-57727238D01*
X65054237Y-57727238D02*
X64911380Y-57679619D01*
X64911380Y-57679619D02*
X64816142Y-57679619D01*
X64816142Y-57679619D02*
X64673285Y-57727238D01*
X64673285Y-57727238D02*
X64625666Y-57774857D01*
X63673285Y-58679619D02*
X64244713Y-58679619D01*
X63958999Y-58679619D02*
X63958999Y-57679619D01*
X63958999Y-57679619D02*
X64054237Y-57822476D01*
X64054237Y-57822476D02*
X64149475Y-57917714D01*
X64149475Y-57917714D02*
X64244713Y-57965333D01*
X125855475Y-55361809D02*
X125522142Y-55361809D01*
X125379285Y-55885619D02*
X125855475Y-55885619D01*
X125855475Y-55885619D02*
X125855475Y-54885619D01*
X125855475Y-54885619D02*
X125379285Y-54885619D01*
X124998332Y-54980857D02*
X124950713Y-54933238D01*
X124950713Y-54933238D02*
X124855475Y-54885619D01*
X124855475Y-54885619D02*
X124617380Y-54885619D01*
X124617380Y-54885619D02*
X124522142Y-54933238D01*
X124522142Y-54933238D02*
X124474523Y-54980857D01*
X124474523Y-54980857D02*
X124426904Y-55076095D01*
X124426904Y-55076095D02*
X124426904Y-55171333D01*
X124426904Y-55171333D02*
X124474523Y-55314190D01*
X124474523Y-55314190D02*
X125045951Y-55885619D01*
X125045951Y-55885619D02*
X124426904Y-55885619D01*
X89771666Y-58584380D02*
X89819285Y-58632000D01*
X89819285Y-58632000D02*
X89962142Y-58679619D01*
X89962142Y-58679619D02*
X90057380Y-58679619D01*
X90057380Y-58679619D02*
X90200237Y-58632000D01*
X90200237Y-58632000D02*
X90295475Y-58536761D01*
X90295475Y-58536761D02*
X90343094Y-58441523D01*
X90343094Y-58441523D02*
X90390713Y-58251047D01*
X90390713Y-58251047D02*
X90390713Y-58108190D01*
X90390713Y-58108190D02*
X90343094Y-57917714D01*
X90343094Y-57917714D02*
X90295475Y-57822476D01*
X90295475Y-57822476D02*
X90200237Y-57727238D01*
X90200237Y-57727238D02*
X90057380Y-57679619D01*
X90057380Y-57679619D02*
X89962142Y-57679619D01*
X89962142Y-57679619D02*
X89819285Y-57727238D01*
X89819285Y-57727238D02*
X89771666Y-57774857D01*
X89438332Y-57679619D02*
X88819285Y-57679619D01*
X88819285Y-57679619D02*
X89152618Y-58060571D01*
X89152618Y-58060571D02*
X89009761Y-58060571D01*
X89009761Y-58060571D02*
X88914523Y-58108190D01*
X88914523Y-58108190D02*
X88866904Y-58155809D01*
X88866904Y-58155809D02*
X88819285Y-58251047D01*
X88819285Y-58251047D02*
X88819285Y-58489142D01*
X88819285Y-58489142D02*
X88866904Y-58584380D01*
X88866904Y-58584380D02*
X88914523Y-58632000D01*
X88914523Y-58632000D02*
X89009761Y-58679619D01*
X89009761Y-58679619D02*
X89295475Y-58679619D01*
X89295475Y-58679619D02*
X89390713Y-58632000D01*
X89390713Y-58632000D02*
X89438332Y-58584380D01*
X114663666Y-58584380D02*
X114711285Y-58632000D01*
X114711285Y-58632000D02*
X114854142Y-58679619D01*
X114854142Y-58679619D02*
X114949380Y-58679619D01*
X114949380Y-58679619D02*
X115092237Y-58632000D01*
X115092237Y-58632000D02*
X115187475Y-58536761D01*
X115187475Y-58536761D02*
X115235094Y-58441523D01*
X115235094Y-58441523D02*
X115282713Y-58251047D01*
X115282713Y-58251047D02*
X115282713Y-58108190D01*
X115282713Y-58108190D02*
X115235094Y-57917714D01*
X115235094Y-57917714D02*
X115187475Y-57822476D01*
X115187475Y-57822476D02*
X115092237Y-57727238D01*
X115092237Y-57727238D02*
X114949380Y-57679619D01*
X114949380Y-57679619D02*
X114854142Y-57679619D01*
X114854142Y-57679619D02*
X114711285Y-57727238D01*
X114711285Y-57727238D02*
X114663666Y-57774857D01*
X114282713Y-57774857D02*
X114235094Y-57727238D01*
X114235094Y-57727238D02*
X114139856Y-57679619D01*
X114139856Y-57679619D02*
X113901761Y-57679619D01*
X113901761Y-57679619D02*
X113806523Y-57727238D01*
X113806523Y-57727238D02*
X113758904Y-57774857D01*
X113758904Y-57774857D02*
X113711285Y-57870095D01*
X113711285Y-57870095D02*
X113711285Y-57965333D01*
X113711285Y-57965333D02*
X113758904Y-58108190D01*
X113758904Y-58108190D02*
X114330332Y-58679619D01*
X114330332Y-58679619D02*
X113711285Y-58679619D01*
X87453000Y-116785000D02*
X87453000Y-117801000D01*
X87453000Y-120849000D02*
X87453000Y-121230000D01*
X87453000Y-121230000D02*
X96343000Y-121230000D01*
X92533000Y-116785000D02*
X87453000Y-116785000D01*
X96724000Y-114880000D02*
X95073000Y-114880000D01*
X98883000Y-114880000D02*
X98502000Y-114880000D01*
X98883000Y-115261000D02*
X98883000Y-114880000D01*
X98883000Y-118690000D02*
X98883000Y-118309000D01*
X92533000Y-116784999D02*
G75*
G03*
X94997161Y-114861040I0J2539999D01*
G01*
X96343000Y-121230000D02*
G75*
G03*
X98883000Y-118690000I0J2540000D01*
G01*
X67239000Y-116785000D02*
X67239000Y-117801000D01*
X67239000Y-120849000D02*
X67239000Y-121230000D01*
X67239000Y-121230000D02*
X76129000Y-121230000D01*
X72319000Y-116785000D02*
X67239000Y-116785000D01*
X76510000Y-114880000D02*
X74859000Y-114880000D01*
X78669000Y-114880000D02*
X78288000Y-114880000D01*
X78669000Y-115261000D02*
X78669000Y-114880000D01*
X78669000Y-118690000D02*
X78669000Y-118309000D01*
X72319000Y-116784999D02*
G75*
G03*
X74783161Y-114861040I0J2539999D01*
G01*
X76129000Y-121230000D02*
G75*
G03*
X78669000Y-118690000I0J2540000D01*
G01*
X67253000Y-96585000D02*
X67253000Y-97601000D01*
X67253000Y-100649000D02*
X67253000Y-101030000D01*
X67253000Y-101030000D02*
X76143000Y-101030000D01*
X72333000Y-96585000D02*
X67253000Y-96585000D01*
X76524000Y-94680000D02*
X74873000Y-94680000D01*
X78683000Y-94680000D02*
X78302000Y-94680000D01*
X78683000Y-95061000D02*
X78683000Y-94680000D01*
X78683000Y-98490000D02*
X78683000Y-98109000D01*
X72333000Y-96584999D02*
G75*
G03*
X74797161Y-94661040I0J2539999D01*
G01*
X76143000Y-101030000D02*
G75*
G03*
X78683000Y-98490000I0J2540000D01*
G01*
X87453000Y-96585000D02*
X87453000Y-97601000D01*
X87453000Y-100649000D02*
X87453000Y-101030000D01*
X87453000Y-101030000D02*
X96343000Y-101030000D01*
X92533000Y-96585000D02*
X87453000Y-96585000D01*
X96724000Y-94680000D02*
X95073000Y-94680000D01*
X98883000Y-94680000D02*
X98502000Y-94680000D01*
X98883000Y-95061000D02*
X98883000Y-94680000D01*
X98883000Y-98490000D02*
X98883000Y-98109000D01*
X92533000Y-96584999D02*
G75*
G03*
X94997161Y-94661040I0J2539999D01*
G01*
X96343000Y-101030000D02*
G75*
G03*
X98883000Y-98490000I0J2540000D01*
G01*
X107653000Y-116785000D02*
X107653000Y-117801000D01*
X107653000Y-120849000D02*
X107653000Y-121230000D01*
X107653000Y-121230000D02*
X116543000Y-121230000D01*
X112733000Y-116785000D02*
X107653000Y-116785000D01*
X116924000Y-114880000D02*
X115273000Y-114880000D01*
X119083000Y-114880000D02*
X118702000Y-114880000D01*
X119083000Y-115261000D02*
X119083000Y-114880000D01*
X119083000Y-118690000D02*
X119083000Y-118309000D01*
X112733000Y-116784999D02*
G75*
G03*
X115197161Y-114861040I0J2539999D01*
G01*
X116543000Y-121230000D02*
G75*
G03*
X119083000Y-118690000I0J2540000D01*
G01*
X107653000Y-96585000D02*
X107653000Y-97601000D01*
X107653000Y-100649000D02*
X107653000Y-101030000D01*
X107653000Y-101030000D02*
X116543000Y-101030000D01*
X112733000Y-96585000D02*
X107653000Y-96585000D01*
X116924000Y-94680000D02*
X115273000Y-94680000D01*
X119083000Y-94680000D02*
X118702000Y-94680000D01*
X119083000Y-95061000D02*
X119083000Y-94680000D01*
X119083000Y-98490000D02*
X119083000Y-98109000D01*
X112733000Y-96584999D02*
G75*
G03*
X115197161Y-94661040I0J2539999D01*
G01*
X116543000Y-101030000D02*
G75*
G03*
X119083000Y-98490000I0J2540000D01*
G01*
X144977000Y-27483000D02*
X144977000Y-30023000D01*
X137357000Y-27483000D02*
X144977000Y-27483000D01*
X150057000Y-30023000D02*
X150057000Y-60503000D01*
X144977000Y-30023000D02*
X150057000Y-30023000D01*
X137357000Y-30023000D02*
X137357000Y-27483000D01*
X132277000Y-30023000D02*
X137357000Y-30023000D01*
X150057000Y-60503000D02*
X132277000Y-60503000D01*
X132277000Y-60503000D02*
X132277000Y-30023000D01*
D12*
X58875000Y-63712000D02*
X59500000Y-63712000D01*
X59187500Y-64024500D02*
X59187500Y-63399500D01*
X59740000Y-60331437D02*
X59740000Y-60967000D01*
X59740000Y-60331437D02*
X60804437Y-59267000D01*
X59740000Y-63722563D02*
X59740000Y-63087000D01*
X59740000Y-63722563D02*
X60804437Y-64787000D01*
X60804437Y-59267000D02*
X65260000Y-59267000D01*
X60804437Y-64787000D02*
X65260000Y-64787000D01*
X65260000Y-59267000D02*
X65260000Y-60967000D01*
X65260000Y-64787000D02*
X65260000Y-63087000D01*
D13*
X108545000Y-54517000D02*
X126045000Y-54517000D01*
X126045000Y-54517000D02*
X126045000Y-36517000D01*
X126045000Y-36517000D02*
X108545000Y-36517000D01*
X108545000Y-36517000D02*
X108545000Y-54517000D01*
D12*
X83875000Y-63712000D02*
X84500000Y-63712000D01*
X84187500Y-64024500D02*
X84187500Y-63399500D01*
X84740000Y-60331437D02*
X84740000Y-60967000D01*
X84740000Y-60331437D02*
X85804437Y-59267000D01*
X84740000Y-63722563D02*
X84740000Y-63087000D01*
X84740000Y-63722563D02*
X85804437Y-64787000D01*
X85804437Y-59267000D02*
X90260000Y-59267000D01*
X85804437Y-64787000D02*
X90260000Y-64787000D01*
X90260000Y-59267000D02*
X90260000Y-60967000D01*
X90260000Y-64787000D02*
X90260000Y-63087000D01*
G36*
X99847034Y-48200752D02*
G01*
X99857158Y-48245264D01*
X99873747Y-48319855D01*
X99891891Y-48402820D01*
X99909147Y-48483053D01*
X99923465Y-48550193D01*
X99937752Y-48616906D01*
X99949382Y-48670922D01*
X99956715Y-48704606D01*
X99960661Y-48722527D01*
X99971366Y-48771388D01*
X99985669Y-48836846D01*
X100002007Y-48911727D01*
X100018815Y-48988858D01*
X100034531Y-49061063D01*
X100047591Y-49121171D01*
X100056429Y-49162006D01*
X100061297Y-49184532D01*
X100073131Y-49239069D01*
X100088094Y-49307852D01*
X100104653Y-49383851D01*
X100121273Y-49460037D01*
X100136423Y-49529378D01*
X100148569Y-49584845D01*
X100156178Y-49619407D01*
X100156639Y-49621492D01*
X100164278Y-49656764D01*
X100176111Y-49712139D01*
X100190609Y-49780438D01*
X100206244Y-49854483D01*
X100206831Y-49857269D01*
X100223326Y-49934148D01*
X100239599Y-50007667D01*
X100253805Y-50069612D01*
X100264097Y-50111770D01*
X100270443Y-50139421D01*
X100275436Y-50175370D01*
X100273277Y-50193351D01*
X100261329Y-50191454D01*
X100229398Y-50177354D01*
X100183137Y-50152984D01*
X100127858Y-50120987D01*
X100122958Y-50118037D01*
X100021710Y-50057258D01*
X99922313Y-49997888D01*
X99828538Y-49942155D01*
X99744150Y-49892285D01*
X99672919Y-49850506D01*
X99618613Y-49819045D01*
X99585000Y-49800129D01*
X99581817Y-49798394D01*
X99535719Y-49771321D01*
X99493832Y-49743964D01*
X99452664Y-49714834D01*
X99461931Y-49842219D01*
X99468588Y-49929873D01*
X99478866Y-50056550D01*
X99490505Y-50192845D01*
X99502612Y-50328317D01*
X99514290Y-50452530D01*
X99517044Y-50482403D01*
X99522582Y-50552916D01*
X99526422Y-50616881D01*
X99527858Y-50663363D01*
X99528667Y-50692717D01*
X99534377Y-50720679D01*
X99548614Y-50731479D01*
X99574903Y-50725041D01*
X99616766Y-50701288D01*
X99677726Y-50660147D01*
X99702212Y-50643404D01*
X99745713Y-50615275D01*
X99777103Y-50597186D01*
X99790837Y-50592457D01*
X99791184Y-50593052D01*
X99789781Y-50611663D01*
X99781711Y-50649364D01*
X99768518Y-50698791D01*
X99752571Y-50754215D01*
X99737754Y-50805936D01*
X99727633Y-50841523D01*
X99724459Y-50852667D01*
X99712368Y-50894476D01*
X99695898Y-50950924D01*
X99677662Y-51013048D01*
X99669862Y-51039583D01*
X99652089Y-51100386D01*
X99637219Y-51151704D01*
X99627854Y-51184573D01*
X99611423Y-51242419D01*
X99590986Y-51311275D01*
X99572531Y-51370291D01*
X99557918Y-51413558D01*
X99549006Y-51435166D01*
X99547390Y-51437805D01*
X99542341Y-51444096D01*
X99535691Y-51443677D01*
X99524398Y-51433268D01*
X99505418Y-51409588D01*
X99475709Y-51369356D01*
X99432227Y-51309294D01*
X99413436Y-51283323D01*
X99374983Y-51230315D01*
X99333119Y-51172803D01*
X99285139Y-51107085D01*
X99228337Y-51029457D01*
X99160007Y-50936215D01*
X99077442Y-50823655D01*
X99072893Y-50817448D01*
X99043983Y-50776454D01*
X99030397Y-50750171D01*
X99034598Y-50737101D01*
X99059051Y-50735746D01*
X99106220Y-50744609D01*
X99178570Y-50762192D01*
X99193568Y-50765865D01*
X99244468Y-50777099D01*
X99282349Y-50783565D01*
X99299920Y-50783956D01*
X99301014Y-50782086D01*
X99300625Y-50759990D01*
X99294177Y-50719210D01*
X99282698Y-50666748D01*
X99281680Y-50662569D01*
X99266479Y-50598976D01*
X99252268Y-50537649D01*
X99242001Y-50491326D01*
X99234261Y-50455237D01*
X99221057Y-50394780D01*
X99207596Y-50334094D01*
X99204995Y-50322455D01*
X99190904Y-50258846D01*
X99174525Y-50184274D01*
X99158891Y-50112541D01*
X99151611Y-50079132D01*
X99134940Y-50003334D01*
X99115444Y-49915344D01*
X99094618Y-49821847D01*
X99073955Y-49729529D01*
X99054949Y-49645074D01*
X99039097Y-49575169D01*
X99027890Y-49526497D01*
X99024407Y-49511480D01*
X99013209Y-49462476D01*
X98999045Y-49399873D01*
X98984150Y-49333532D01*
X98978526Y-49308482D01*
X98961993Y-49235769D01*
X98946030Y-49166704D01*
X98933431Y-49113420D01*
X98924946Y-49074374D01*
X98919426Y-49038623D01*
X98919989Y-49022178D01*
X98922380Y-49022105D01*
X98944209Y-49030546D01*
X98984590Y-49050004D01*
X99038867Y-49078167D01*
X99102382Y-49112722D01*
X99117662Y-49121209D01*
X99185263Y-49158748D01*
X99246529Y-49192757D01*
X99295245Y-49219789D01*
X99325198Y-49236393D01*
X99328377Y-49238157D01*
X99369515Y-49261600D01*
X99403769Y-49282022D01*
X99424784Y-49294500D01*
X99466184Y-49318039D01*
X99513572Y-49344227D01*
X99557176Y-49368224D01*
X99621387Y-49404088D01*
X99681429Y-49438110D01*
X99687420Y-49441525D01*
X99729612Y-49464696D01*
X99759418Y-49479544D01*
X99770715Y-49482990D01*
X99768036Y-49473954D01*
X99757337Y-49443795D01*
X99740979Y-49399589D01*
X99721674Y-49348560D01*
X99702133Y-49297928D01*
X99685068Y-49254916D01*
X99684661Y-49253906D01*
X99674681Y-49228104D01*
X99657255Y-49182195D01*
X99634723Y-49122366D01*
X99609425Y-49054803D01*
X99589456Y-49001405D01*
X99554331Y-48907777D01*
X99517205Y-48809120D01*
X99479583Y-48709409D01*
X99442971Y-48612617D01*
X99408876Y-48522718D01*
X99378802Y-48443685D01*
X99354257Y-48379494D01*
X99336745Y-48334117D01*
X99327772Y-48311528D01*
X99323664Y-48301646D01*
X99307121Y-48258836D01*
X99289252Y-48209273D01*
X99272933Y-48161322D01*
X99261034Y-48123353D01*
X99256429Y-48103733D01*
X99266000Y-48099703D01*
X99301480Y-48095644D01*
X99360591Y-48092582D01*
X99440638Y-48090649D01*
X99538927Y-48089975D01*
X99821426Y-48089975D01*
X99847034Y-48200752D01*
G37*
G36*
X102373632Y-51617450D02*
G01*
X102381750Y-51642361D01*
X102384619Y-51676812D01*
X102377270Y-51706338D01*
X102360863Y-51735275D01*
X102319757Y-51780288D01*
X102263572Y-51808573D01*
X102263231Y-51808653D01*
X102243941Y-51809587D01*
X102197596Y-51810472D01*
X102125593Y-51811305D01*
X102029334Y-51812082D01*
X101910216Y-51812799D01*
X101769640Y-51813453D01*
X101609004Y-51814041D01*
X101429709Y-51814557D01*
X101233153Y-51815000D01*
X101020736Y-51815365D01*
X100793857Y-51815648D01*
X100553916Y-51815847D01*
X100302312Y-51815957D01*
X100040444Y-51815975D01*
X99769711Y-51815897D01*
X99491513Y-51815720D01*
X99280356Y-51815545D01*
X98968218Y-51815267D01*
X98682691Y-51814976D01*
X98422574Y-51814661D01*
X98186664Y-51814309D01*
X97973760Y-51813910D01*
X97782660Y-51813452D01*
X97612162Y-51812922D01*
X97461064Y-51812308D01*
X97328164Y-51811600D01*
X97212261Y-51810784D01*
X97112152Y-51809850D01*
X97026636Y-51808785D01*
X96954511Y-51807577D01*
X96894575Y-51806215D01*
X96845626Y-51804688D01*
X96806463Y-51802982D01*
X96775882Y-51801086D01*
X96752684Y-51798989D01*
X96735665Y-51796679D01*
X96723624Y-51794143D01*
X96715359Y-51791371D01*
X96709668Y-51788349D01*
X96700432Y-51781790D01*
X96660373Y-51738390D01*
X96636876Y-51686410D01*
X96634798Y-51635750D01*
X96636707Y-51629758D01*
X96643819Y-51614109D01*
X96859533Y-51614109D01*
X96860622Y-51614311D01*
X96882301Y-51615110D01*
X96930404Y-51615893D01*
X97003214Y-51616657D01*
X97099013Y-51617401D01*
X97216083Y-51618121D01*
X97352707Y-51618816D01*
X97507167Y-51619485D01*
X97677745Y-51620124D01*
X97862723Y-51620732D01*
X98060384Y-51621306D01*
X98269009Y-51621846D01*
X98486882Y-51622347D01*
X98712285Y-51622809D01*
X98943498Y-51623230D01*
X99178806Y-51623607D01*
X99416490Y-51623937D01*
X99654832Y-51624220D01*
X99892115Y-51624453D01*
X100126621Y-51624634D01*
X100356631Y-51624761D01*
X100580429Y-51624832D01*
X100796297Y-51624844D01*
X101002517Y-51624795D01*
X101197371Y-51624685D01*
X101379141Y-51624509D01*
X101546110Y-51624267D01*
X101696559Y-51623957D01*
X101828772Y-51623575D01*
X101941030Y-51623121D01*
X102031616Y-51622591D01*
X102098812Y-51621985D01*
X102140900Y-51621299D01*
X102156162Y-51620532D01*
X102157859Y-51617450D01*
X102156224Y-51607472D01*
X102148853Y-51589092D01*
X102134627Y-51560296D01*
X102112426Y-51519068D01*
X102081133Y-51463393D01*
X102039629Y-51391257D01*
X101986794Y-51300644D01*
X101921510Y-51189540D01*
X101842658Y-51055929D01*
X101820204Y-51017877D01*
X101777665Y-50945487D01*
X101739171Y-50879612D01*
X101708234Y-50826274D01*
X101688370Y-50791494D01*
X101676766Y-50771184D01*
X101648981Y-50724938D01*
X101625815Y-50689232D01*
X101624582Y-50687459D01*
X101606675Y-50659380D01*
X101599286Y-50643280D01*
X101599286Y-50643279D01*
X101592397Y-50628561D01*
X101573653Y-50594427D01*
X101545914Y-50545964D01*
X101512043Y-50488256D01*
X101482543Y-50438462D01*
X101440190Y-50366743D01*
X101400987Y-50300122D01*
X101370670Y-50248332D01*
X101352654Y-50217448D01*
X101321487Y-50164159D01*
X101282956Y-50098421D01*
X101235630Y-50017801D01*
X101178081Y-49919862D01*
X101108877Y-49802170D01*
X101026590Y-49662288D01*
X101014927Y-49642441D01*
X100975280Y-49574642D01*
X100939614Y-49513172D01*
X100911454Y-49464124D01*
X100894320Y-49433588D01*
X100892127Y-49429582D01*
X100865880Y-49384841D01*
X100840373Y-49345619D01*
X100839208Y-49343961D01*
X100821063Y-49315236D01*
X100813572Y-49297797D01*
X100813550Y-49297365D01*
X100805420Y-49279028D01*
X100787043Y-49249976D01*
X100777791Y-49236190D01*
X100751454Y-49193940D01*
X100724518Y-49147713D01*
X100716534Y-49133483D01*
X100695235Y-49095871D01*
X100669036Y-49050101D01*
X100635558Y-48992041D01*
X100592421Y-48917561D01*
X100537246Y-48822530D01*
X100527469Y-48805751D01*
X100497734Y-48754982D01*
X100459176Y-48689374D01*
X100415705Y-48615574D01*
X100371229Y-48540228D01*
X100348775Y-48502176D01*
X100306237Y-48429787D01*
X100267742Y-48363911D01*
X100236806Y-48310573D01*
X100216941Y-48275794D01*
X100205337Y-48255483D01*
X100177552Y-48209237D01*
X100154387Y-48173531D01*
X100153254Y-48171902D01*
X100135279Y-48143370D01*
X100127858Y-48126390D01*
X100121585Y-48112130D01*
X100103544Y-48080474D01*
X100077858Y-48038983D01*
X100053590Y-48000117D01*
X100034980Y-47968420D01*
X100027858Y-47953600D01*
X100026591Y-47949638D01*
X100014690Y-47926987D01*
X99994318Y-47893129D01*
X99990218Y-47886558D01*
X99964659Y-47844408D01*
X99932274Y-47789731D01*
X99899057Y-47732631D01*
X99896341Y-47727918D01*
X99858268Y-47662703D01*
X99817566Y-47594183D01*
X99782597Y-47536442D01*
X99779044Y-47530654D01*
X99753121Y-47487544D01*
X99734802Y-47455559D01*
X99727858Y-47441256D01*
X99727783Y-47440884D01*
X99719459Y-47424828D01*
X99699334Y-47389731D01*
X99670239Y-47340448D01*
X99635000Y-47281837D01*
X99631626Y-47276261D01*
X99596751Y-47217767D01*
X99568313Y-47168524D01*
X99549161Y-47133563D01*
X99542143Y-47117912D01*
X99539769Y-47110739D01*
X99523419Y-47091658D01*
X99521456Y-47090141D01*
X99514521Y-47087651D01*
X99505918Y-47091400D01*
X99493847Y-47104034D01*
X99476511Y-47128202D01*
X99452108Y-47166550D01*
X99418841Y-47221727D01*
X99374909Y-47296379D01*
X99318513Y-47393154D01*
X99296837Y-47430426D01*
X99258127Y-47496985D01*
X99222912Y-47557533D01*
X99209961Y-47579747D01*
X99179717Y-47631466D01*
X99136280Y-47705627D01*
X99079435Y-47802594D01*
X99008967Y-47922737D01*
X98924660Y-48066420D01*
X98826299Y-48234012D01*
X98713669Y-48425878D01*
X98694713Y-48458320D01*
X98666754Y-48506375D01*
X98636748Y-48558095D01*
X98622084Y-48583405D01*
X98592974Y-48633598D01*
X98564374Y-48682817D01*
X98534415Y-48734268D01*
X98501222Y-48791153D01*
X98462926Y-48856675D01*
X98417653Y-48934039D01*
X98363534Y-49026447D01*
X98298695Y-49137103D01*
X98221266Y-49269210D01*
X98221096Y-49269500D01*
X98159176Y-49375133D01*
X98100949Y-49474464D01*
X98048207Y-49564432D01*
X98002745Y-49641978D01*
X97966355Y-49704043D01*
X97940832Y-49747567D01*
X97927969Y-49769491D01*
X97909007Y-49801932D01*
X97881042Y-49849988D01*
X97851033Y-49901708D01*
X97839845Y-49921021D01*
X97805929Y-49979507D01*
X97773658Y-50035043D01*
X97740728Y-50091571D01*
X97704834Y-50153033D01*
X97663672Y-50223372D01*
X97614940Y-50306528D01*
X97556333Y-50406443D01*
X97485548Y-50527060D01*
X97469306Y-50554735D01*
X97413841Y-50649312D01*
X97362425Y-50737081D01*
X97317143Y-50814474D01*
X97280083Y-50877924D01*
X97253331Y-50923863D01*
X97238971Y-50948726D01*
X97233698Y-50957922D01*
X97213367Y-50992049D01*
X97199676Y-51013048D01*
X97193706Y-51021968D01*
X97175645Y-51051929D01*
X97152959Y-51091663D01*
X97132770Y-51127634D01*
X97080021Y-51220013D01*
X97014653Y-51332625D01*
X96935479Y-51467522D01*
X96905901Y-51518930D01*
X96880069Y-51566530D01*
X96863725Y-51599970D01*
X96859533Y-51614109D01*
X96643819Y-51614109D01*
X96651090Y-51598109D01*
X96677049Y-51547676D01*
X96712307Y-51482682D01*
X96754592Y-51407350D01*
X96801629Y-51325904D01*
X96816012Y-51301327D01*
X96864389Y-51218504D01*
X96909295Y-51141383D01*
X96947981Y-51074702D01*
X96977697Y-51023198D01*
X96995694Y-50991607D01*
X97008820Y-50968463D01*
X97029648Y-50933080D01*
X97042533Y-50912991D01*
X97044927Y-50909634D01*
X97060926Y-50884240D01*
X97081731Y-50848669D01*
X97085438Y-50842138D01*
X97116524Y-50787838D01*
X97158587Y-50714936D01*
X97208609Y-50628652D01*
X97263572Y-50534207D01*
X97288159Y-50492009D01*
X97326828Y-50425581D01*
X97361326Y-50366255D01*
X97371104Y-50349476D01*
X97400839Y-50298707D01*
X97439396Y-50233100D01*
X97482867Y-50159299D01*
X97527343Y-50083954D01*
X97549797Y-50045901D01*
X97592336Y-49973512D01*
X97630830Y-49907637D01*
X97661767Y-49854298D01*
X97681631Y-49819519D01*
X97693235Y-49799208D01*
X97721020Y-49752962D01*
X97744186Y-49717256D01*
X97745353Y-49715579D01*
X97763304Y-49687199D01*
X97770715Y-49670518D01*
X97772644Y-49664642D01*
X97785763Y-49639558D01*
X97807196Y-49603897D01*
X97815777Y-49590195D01*
X97845194Y-49542102D01*
X97869735Y-49500551D01*
X97879082Y-49484258D01*
X97910372Y-49429976D01*
X97951125Y-49359516D01*
X97997855Y-49278904D01*
X98047073Y-49194167D01*
X98054353Y-49181672D01*
X98080881Y-49136312D01*
X98117868Y-49073210D01*
X98162461Y-48997232D01*
X98211805Y-48913241D01*
X98263046Y-48826103D01*
X98286249Y-48786635D01*
X98335666Y-48702396D01*
X98381119Y-48624679D01*
X98419969Y-48558009D01*
X98449576Y-48506910D01*
X98467301Y-48475906D01*
X98478927Y-48455580D01*
X98506730Y-48409342D01*
X98529900Y-48373644D01*
X98530976Y-48372097D01*
X98548989Y-48343307D01*
X98556429Y-48325822D01*
X98556451Y-48325390D01*
X98564581Y-48307053D01*
X98582958Y-48278000D01*
X98592210Y-48264215D01*
X98618547Y-48221965D01*
X98645483Y-48175737D01*
X98646810Y-48173367D01*
X98669053Y-48133949D01*
X98696451Y-48085990D01*
X98731324Y-48025459D01*
X98775995Y-47948325D01*
X98832787Y-47850555D01*
X98840067Y-47838060D01*
X98866595Y-47792699D01*
X98903582Y-47729597D01*
X98948176Y-47653619D01*
X98997520Y-47569628D01*
X99048760Y-47482490D01*
X99071959Y-47443036D01*
X99121406Y-47358803D01*
X99166914Y-47281100D01*
X99205839Y-47214450D01*
X99235537Y-47163378D01*
X99253364Y-47132405D01*
X99258840Y-47122795D01*
X99303981Y-47046869D01*
X99346178Y-46981357D01*
X99382068Y-46931268D01*
X99408289Y-46901611D01*
X99446217Y-46877184D01*
X99503999Y-46865434D01*
X99563387Y-46878321D01*
X99619644Y-46914547D01*
X99668032Y-46972814D01*
X99685841Y-47001650D01*
X99720522Y-47058674D01*
X99759335Y-47123287D01*
X99799583Y-47190910D01*
X99838564Y-47256960D01*
X99873582Y-47316857D01*
X99901936Y-47366020D01*
X99920927Y-47399868D01*
X99927858Y-47413820D01*
X99927890Y-47414216D01*
X99936090Y-47430710D01*
X99954387Y-47458843D01*
X99963590Y-47472569D01*
X99989862Y-47514839D01*
X100016687Y-47561106D01*
X100025302Y-47576390D01*
X100051220Y-47621525D01*
X100086389Y-47682113D01*
X100127304Y-47752127D01*
X100170460Y-47825541D01*
X100192813Y-47863502D01*
X100235283Y-47935917D01*
X100273727Y-48001820D01*
X100304632Y-48055182D01*
X100324488Y-48089975D01*
X100336092Y-48110286D01*
X100363878Y-48156532D01*
X100387043Y-48192238D01*
X100388176Y-48193867D01*
X100406151Y-48222399D01*
X100413572Y-48239379D01*
X100419845Y-48253638D01*
X100437886Y-48285294D01*
X100463572Y-48326786D01*
X100487867Y-48365622D01*
X100506458Y-48397079D01*
X100513572Y-48411584D01*
X100519913Y-48424705D01*
X100537946Y-48455362D01*
X100563572Y-48496383D01*
X100587745Y-48535346D01*
X100606422Y-48567880D01*
X100613572Y-48583790D01*
X100613596Y-48584217D01*
X100621744Y-48602104D01*
X100640101Y-48630931D01*
X100649365Y-48644732D01*
X100675719Y-48686977D01*
X100702684Y-48733194D01*
X100709101Y-48744521D01*
X100732523Y-48785253D01*
X100766593Y-48844038D01*
X100808676Y-48916342D01*
X100856136Y-48997637D01*
X100906340Y-49083391D01*
X100929343Y-49122650D01*
X100978634Y-49206939D01*
X101023990Y-49284709D01*
X101062775Y-49351427D01*
X101092352Y-49402564D01*
X101110085Y-49433588D01*
X101121747Y-49453940D01*
X101149580Y-49500164D01*
X101172757Y-49535851D01*
X101173890Y-49537480D01*
X101191865Y-49566012D01*
X101199286Y-49582992D01*
X101205559Y-49597251D01*
X101223600Y-49628907D01*
X101249286Y-49670399D01*
X101273581Y-49709235D01*
X101292172Y-49740692D01*
X101299286Y-49755197D01*
X101305627Y-49768318D01*
X101323660Y-49798975D01*
X101349286Y-49839996D01*
X101373459Y-49878959D01*
X101392136Y-49911493D01*
X101399286Y-49927403D01*
X101399310Y-49927830D01*
X101407458Y-49945716D01*
X101425815Y-49974544D01*
X101435082Y-49988348D01*
X101461440Y-50030591D01*
X101488410Y-50076807D01*
X101497035Y-50092024D01*
X101523002Y-50137149D01*
X101558182Y-50197751D01*
X101599065Y-50267793D01*
X101642143Y-50341241D01*
X101664365Y-50379083D01*
X101706752Y-50451533D01*
X101745139Y-50517471D01*
X101776017Y-50570864D01*
X101795877Y-50605676D01*
X101807500Y-50626000D01*
X101835302Y-50672239D01*
X101858471Y-50707938D01*
X101859605Y-50709567D01*
X101877579Y-50738100D01*
X101885000Y-50755080D01*
X101891273Y-50769339D01*
X101909315Y-50800995D01*
X101935000Y-50842487D01*
X101959295Y-50881323D01*
X101977887Y-50912780D01*
X101985000Y-50927285D01*
X101991341Y-50940406D01*
X102009374Y-50971063D01*
X102035000Y-51012083D01*
X102059250Y-51050968D01*
X102077873Y-51082822D01*
X102085000Y-51097846D01*
X102091316Y-51111389D01*
X102109352Y-51142414D01*
X102135000Y-51183608D01*
X102159173Y-51222572D01*
X102177851Y-51255106D01*
X102185000Y-51271015D01*
X102185025Y-51271443D01*
X102193172Y-51289329D01*
X102211530Y-51318157D01*
X102223947Y-51336845D01*
X102250765Y-51380101D01*
X102278568Y-51427566D01*
X102300245Y-51466109D01*
X102340723Y-51541345D01*
X102367505Y-51598651D01*
X102373632Y-51617450D01*
G37*
X108875000Y-63712000D02*
X109500000Y-63712000D01*
X109187500Y-64024500D02*
X109187500Y-63399500D01*
X109740000Y-60331437D02*
X109740000Y-60967000D01*
X109740000Y-60331437D02*
X110804437Y-59267000D01*
X109740000Y-63722563D02*
X109740000Y-63087000D01*
X109740000Y-63722563D02*
X110804437Y-64787000D01*
X110804437Y-59267000D02*
X115260000Y-59267000D01*
X110804437Y-64787000D02*
X115260000Y-64787000D01*
X115260000Y-59267000D02*
X115260000Y-60967000D01*
X115260000Y-64787000D02*
X115260000Y-63087000D01*
M02*
