G04 #@! TF.GenerationSoftware,KiCad,Pcbnew,7.0.1*
G04 #@! TF.CreationDate,2023-04-24T18:26:11+10:00*
G04 #@! TF.ProjectId,phi,7068692e-6b69-4636-9164-5f7063625858,rev?*
G04 #@! TF.SameCoordinates,Original*
G04 #@! TF.FileFunction,Legend,Top*
G04 #@! TF.FilePolarity,Positive*
%FSLAX46Y46*%
G04 Gerber Fmt 4.6, Leading zero omitted, Abs format (unit mm)*
G04 Created by KiCad (PCBNEW 7.0.1) date 2023-04-24 18:26:11*
%MOMM*%
%LPD*%
G01*
G04 APERTURE LIST*
%ADD10C,0.150000*%
%ADD11C,0.300000*%
%ADD12C,0.750000*%
%ADD13C,0.625000*%
%ADD14C,0.100000*%
%ADD15C,0.120000*%
%ADD16C,0.203200*%
%ADD17R,1.600000X1.600000*%
%ADD18C,1.600000*%
G04 APERTURE END LIST*
D10*
X103860000Y-67655000D02*
X103110000Y-68155000D01*
X76985000Y-77655000D02*
X73985000Y-82655000D01*
X71985000Y-82655000D01*
X74985000Y-77655000D01*
X71985000Y-72655000D01*
X73985000Y-72655000D01*
X76985000Y-77655000D01*
G36*
X76985000Y-77655000D02*
G01*
X73985000Y-82655000D01*
X71985000Y-82655000D01*
X74985000Y-77655000D01*
X71985000Y-72655000D01*
X73985000Y-72655000D01*
X76985000Y-77655000D01*
G37*
X103860000Y-68655000D02*
X103860000Y-67655000D01*
X103110000Y-68155000D02*
X103860000Y-68655000D01*
X87485000Y-77655000D02*
X84485000Y-82655000D01*
X82485000Y-82655000D01*
X85485000Y-77655000D01*
X82485000Y-72655000D01*
X84485000Y-72655000D01*
X87485000Y-77655000D01*
G36*
X87485000Y-77655000D02*
G01*
X84485000Y-82655000D01*
X82485000Y-82655000D01*
X85485000Y-77655000D01*
X82485000Y-72655000D01*
X84485000Y-72655000D01*
X87485000Y-77655000D01*
G37*
X78110000Y-68155000D02*
X78860000Y-68655000D01*
X78860000Y-68655000D02*
X78860000Y-67655000D01*
X124735000Y-71155000D02*
X125735000Y-71155000D01*
X78860000Y-67655000D02*
X78110000Y-68155000D01*
X73485000Y-77655000D02*
X70485000Y-82655000D01*
X68485000Y-82655000D01*
X71485000Y-77655000D01*
X68485000Y-72655000D01*
X70485000Y-72655000D01*
X73485000Y-77655000D01*
G36*
X73485000Y-77655000D02*
G01*
X70485000Y-82655000D01*
X68485000Y-82655000D01*
X71485000Y-77655000D01*
X68485000Y-72655000D01*
X70485000Y-72655000D01*
X73485000Y-77655000D01*
G37*
X125235000Y-70405000D02*
X124735000Y-71155000D01*
X125735000Y-71155000D02*
X125235000Y-70405000D01*
X80485000Y-77655000D02*
X77485000Y-82655000D01*
X75485000Y-82655000D01*
X78485000Y-77655000D01*
X75485000Y-72655000D01*
X77485000Y-72655000D01*
X80485000Y-77655000D01*
G36*
X80485000Y-77655000D02*
G01*
X77485000Y-82655000D01*
X75485000Y-82655000D01*
X78485000Y-77655000D01*
X75485000Y-72655000D01*
X77485000Y-72655000D01*
X80485000Y-77655000D01*
G37*
X83985000Y-77655000D02*
X80985000Y-82655000D01*
X78985000Y-82655000D01*
X81985000Y-77655000D01*
X78985000Y-72655000D01*
X80985000Y-72655000D01*
X83985000Y-77655000D01*
G36*
X83985000Y-77655000D02*
G01*
X80985000Y-82655000D01*
X78985000Y-82655000D01*
X81985000Y-77655000D01*
X78985000Y-72655000D01*
X80985000Y-72655000D01*
X83985000Y-77655000D01*
G37*
X69985000Y-77655000D02*
X66985000Y-82655000D01*
X64985000Y-82655000D01*
X67985000Y-77655000D01*
X64985000Y-72655000D01*
X66985000Y-72655000D01*
X69985000Y-77655000D01*
G36*
X69985000Y-77655000D02*
G01*
X66985000Y-82655000D01*
X64985000Y-82655000D01*
X67985000Y-77655000D01*
X64985000Y-72655000D01*
X66985000Y-72655000D01*
X69985000Y-77655000D01*
G37*
D11*
G36*
X97462745Y-73518983D02*
G01*
X97701908Y-73534517D01*
X97698447Y-73546840D01*
X97694842Y-73559007D01*
X97691092Y-73571018D01*
X97687199Y-73582872D01*
X97683161Y-73594570D01*
X97678978Y-73606112D01*
X97674652Y-73617498D01*
X97670181Y-73628727D01*
X97665566Y-73639800D01*
X97660807Y-73650717D01*
X97655903Y-73661478D01*
X97650855Y-73672082D01*
X97640327Y-73692821D01*
X97629221Y-73712936D01*
X97617539Y-73732425D01*
X97605280Y-73751290D01*
X97592443Y-73769529D01*
X97579030Y-73787143D01*
X97565039Y-73804132D01*
X97550471Y-73820496D01*
X97535327Y-73836235D01*
X97519605Y-73851348D01*
X97503463Y-73865687D01*
X97486985Y-73879101D01*
X97470170Y-73891589D01*
X97453019Y-73903152D01*
X97435530Y-73913791D01*
X97417706Y-73923504D01*
X97399544Y-73932292D01*
X97381046Y-73940155D01*
X97362212Y-73947093D01*
X97343041Y-73953106D01*
X97323533Y-73958194D01*
X97303688Y-73962357D01*
X97283507Y-73965595D01*
X97262990Y-73967907D01*
X97242136Y-73969295D01*
X97220945Y-73969757D01*
X97208014Y-73969603D01*
X97195341Y-73969138D01*
X97182927Y-73968364D01*
X97170771Y-73967280D01*
X97158875Y-73965886D01*
X97147237Y-73964183D01*
X97124738Y-73959847D01*
X97103273Y-73954273D01*
X97082844Y-73947460D01*
X97063450Y-73939408D01*
X97045090Y-73930117D01*
X97027766Y-73919587D01*
X97011476Y-73907819D01*
X96996222Y-73894812D01*
X96982002Y-73880566D01*
X96968818Y-73865081D01*
X96956668Y-73848358D01*
X96945554Y-73830396D01*
X96935474Y-73811195D01*
X96926469Y-73790887D01*
X96918507Y-73769677D01*
X96911586Y-73747564D01*
X96908516Y-73736170D01*
X96905707Y-73724550D01*
X96903158Y-73712704D01*
X96900870Y-73700633D01*
X96898842Y-73688336D01*
X96897074Y-73675814D01*
X96895568Y-73663066D01*
X96894321Y-73650093D01*
X96893335Y-73636894D01*
X96892609Y-73623470D01*
X96892144Y-73609820D01*
X96891940Y-73595944D01*
X96891995Y-73581843D01*
X96892312Y-73567517D01*
X96892888Y-73552965D01*
X96893726Y-73538187D01*
X96894823Y-73523184D01*
X96896181Y-73507955D01*
X96897800Y-73492501D01*
X96899679Y-73476821D01*
X96901819Y-73460916D01*
X96904219Y-73444785D01*
X96906879Y-73428428D01*
X96909800Y-73411846D01*
X96912981Y-73395039D01*
X96916423Y-73378006D01*
X96920076Y-73360884D01*
X96923891Y-73343995D01*
X96927868Y-73327337D01*
X96932007Y-73310911D01*
X96936308Y-73294717D01*
X96940771Y-73278754D01*
X96945396Y-73263024D01*
X96950184Y-73247525D01*
X96955133Y-73232258D01*
X96960244Y-73217223D01*
X96965517Y-73202420D01*
X96970952Y-73187849D01*
X96976549Y-73173510D01*
X96982308Y-73159402D01*
X96988229Y-73145526D01*
X96994312Y-73131882D01*
X97000557Y-73118470D01*
X97006964Y-73105290D01*
X97013533Y-73092342D01*
X97020264Y-73079625D01*
X97027158Y-73067140D01*
X97034213Y-73054887D01*
X97041430Y-73042866D01*
X97048809Y-73031077D01*
X97056350Y-73019520D01*
X97064053Y-73008194D01*
X97071918Y-72997101D01*
X97079945Y-72986239D01*
X97088134Y-72975609D01*
X97096485Y-72965211D01*
X97104999Y-72955044D01*
X97113674Y-72945110D01*
X97122518Y-72935445D01*
X97131502Y-72926086D01*
X97140625Y-72917035D01*
X97149889Y-72908290D01*
X97159292Y-72899852D01*
X97168834Y-72891721D01*
X97178517Y-72883897D01*
X97188339Y-72876380D01*
X97198300Y-72869169D01*
X97208402Y-72862266D01*
X97218643Y-72855669D01*
X97229023Y-72849379D01*
X97239544Y-72843396D01*
X97250204Y-72837719D01*
X97261004Y-72832350D01*
X97271943Y-72827287D01*
X97283022Y-72822531D01*
X97294241Y-72818082D01*
X97305599Y-72813940D01*
X97317097Y-72810105D01*
X97328735Y-72806576D01*
X97340513Y-72803354D01*
X97352430Y-72800439D01*
X97364487Y-72797831D01*
X97376683Y-72795530D01*
X97389019Y-72793536D01*
X97401495Y-72791848D01*
X97414111Y-72790467D01*
X97426866Y-72789393D01*
X97439761Y-72788626D01*
X97452795Y-72788166D01*
X97465969Y-72788013D01*
X97487764Y-72788454D01*
X97508743Y-72789778D01*
X97528906Y-72791985D01*
X97548255Y-72795074D01*
X97566788Y-72799047D01*
X97584507Y-72803902D01*
X97601410Y-72809639D01*
X97617498Y-72816259D01*
X97632771Y-72823762D01*
X97647228Y-72832148D01*
X97660871Y-72841417D01*
X97673698Y-72851568D01*
X97685710Y-72862602D01*
X97696907Y-72874518D01*
X97707289Y-72887318D01*
X97716856Y-72901000D01*
X97725607Y-72915564D01*
X97733544Y-72931012D01*
X97740665Y-72947342D01*
X97746971Y-72964555D01*
X97752462Y-72982650D01*
X97757137Y-73001628D01*
X97760998Y-73021489D01*
X97764043Y-73042233D01*
X97766274Y-73063859D01*
X97767689Y-73086368D01*
X97768289Y-73109760D01*
X97768073Y-73134035D01*
X97767043Y-73159192D01*
X97765198Y-73185232D01*
X97762537Y-73212154D01*
X97759061Y-73239960D01*
X97515209Y-73257838D01*
X97517657Y-73242782D01*
X97519764Y-73228203D01*
X97521529Y-73214102D01*
X97522953Y-73200479D01*
X97524035Y-73187335D01*
X97524774Y-73174668D01*
X97525173Y-73162479D01*
X97524944Y-73139536D01*
X97523348Y-73118504D01*
X97520385Y-73099384D01*
X97516055Y-73082177D01*
X97510358Y-73066881D01*
X97503294Y-73053497D01*
X97494863Y-73042025D01*
X97485065Y-73032466D01*
X97473900Y-73024818D01*
X97461368Y-73019082D01*
X97447469Y-73015258D01*
X97432203Y-73013346D01*
X97424057Y-73013107D01*
X97410809Y-73013787D01*
X97397772Y-73015827D01*
X97384946Y-73019228D01*
X97372331Y-73023988D01*
X97359928Y-73030109D01*
X97347736Y-73037589D01*
X97335755Y-73046430D01*
X97323985Y-73056631D01*
X97312427Y-73068192D01*
X97301079Y-73081113D01*
X97293632Y-73090483D01*
X97286276Y-73100745D01*
X97279009Y-73112186D01*
X97271832Y-73124806D01*
X97264744Y-73138605D01*
X97257745Y-73153584D01*
X97250836Y-73169741D01*
X97244016Y-73187078D01*
X97237285Y-73205595D01*
X97230643Y-73225290D01*
X97224091Y-73246165D01*
X97217628Y-73268219D01*
X97214430Y-73279688D01*
X97211255Y-73291452D01*
X97208101Y-73303511D01*
X97204970Y-73315865D01*
X97201862Y-73328513D01*
X97198775Y-73341456D01*
X97195711Y-73354694D01*
X97192670Y-73368227D01*
X97189650Y-73382055D01*
X97186653Y-73396177D01*
X97184080Y-73408745D01*
X97181634Y-73421057D01*
X97179317Y-73433115D01*
X97177128Y-73444918D01*
X97175067Y-73456466D01*
X97171330Y-73478798D01*
X97168106Y-73500111D01*
X97165395Y-73520406D01*
X97163197Y-73539681D01*
X97161512Y-73557937D01*
X97160339Y-73575175D01*
X97159680Y-73591393D01*
X97159533Y-73606593D01*
X97159900Y-73620773D01*
X97160779Y-73633935D01*
X97162171Y-73646078D01*
X97165221Y-73662381D01*
X97167896Y-73671976D01*
X97172800Y-73684966D01*
X97178612Y-73696679D01*
X97185330Y-73707113D01*
X97192955Y-73716270D01*
X97204532Y-73726491D01*
X97217721Y-73734442D01*
X97228671Y-73738914D01*
X97240527Y-73742108D01*
X97253290Y-73744024D01*
X97266960Y-73744663D01*
X97282391Y-73743782D01*
X97297396Y-73741137D01*
X97311975Y-73736729D01*
X97326128Y-73730558D01*
X97339855Y-73722624D01*
X97353157Y-73712927D01*
X97366032Y-73701467D01*
X97378482Y-73688243D01*
X97390505Y-73673256D01*
X97402103Y-73656507D01*
X97413275Y-73637994D01*
X97424021Y-73617718D01*
X97429234Y-73606919D01*
X97434341Y-73595679D01*
X97439341Y-73583998D01*
X97444235Y-73571877D01*
X97449022Y-73559314D01*
X97453703Y-73546311D01*
X97458278Y-73532867D01*
X97462745Y-73518983D01*
G37*
G36*
X98374099Y-72788159D02*
G01*
X98386293Y-72788598D01*
X98398238Y-72789329D01*
X98409935Y-72790353D01*
X98432583Y-72793278D01*
X98454237Y-72797373D01*
X98474898Y-72802639D01*
X98494565Y-72809074D01*
X98513238Y-72816680D01*
X98530917Y-72825455D01*
X98547603Y-72835401D01*
X98563295Y-72846517D01*
X98577993Y-72858802D01*
X98591697Y-72872258D01*
X98604408Y-72886884D01*
X98616124Y-72902680D01*
X98626847Y-72919646D01*
X98636577Y-72937782D01*
X98645317Y-72957029D01*
X98652999Y-72977400D01*
X98659623Y-72998895D01*
X98665190Y-73021515D01*
X98667576Y-73033246D01*
X98669698Y-73045259D01*
X98671556Y-73057552D01*
X98673149Y-73070127D01*
X98674478Y-73082983D01*
X98675542Y-73096119D01*
X98676341Y-73109537D01*
X98676877Y-73123236D01*
X98677147Y-73137216D01*
X98677154Y-73151477D01*
X98676896Y-73166019D01*
X98676373Y-73180842D01*
X98675586Y-73195946D01*
X98674534Y-73211332D01*
X98673218Y-73226998D01*
X98671638Y-73242946D01*
X98669793Y-73259174D01*
X98667683Y-73275684D01*
X98665309Y-73292474D01*
X98662671Y-73309546D01*
X98659768Y-73326899D01*
X98656601Y-73344533D01*
X98653169Y-73362448D01*
X98649473Y-73380644D01*
X98641556Y-73416888D01*
X98633085Y-73451982D01*
X98624058Y-73485925D01*
X98614476Y-73518717D01*
X98604338Y-73550359D01*
X98593646Y-73580850D01*
X98582398Y-73610191D01*
X98570594Y-73638381D01*
X98558236Y-73665420D01*
X98545322Y-73691309D01*
X98531853Y-73716047D01*
X98517829Y-73739635D01*
X98503249Y-73762072D01*
X98488114Y-73783358D01*
X98472424Y-73803494D01*
X98456179Y-73822479D01*
X98439378Y-73840313D01*
X98422022Y-73856997D01*
X98404111Y-73872531D01*
X98385645Y-73886913D01*
X98366623Y-73900145D01*
X98347046Y-73912227D01*
X98326914Y-73923158D01*
X98306226Y-73932938D01*
X98284983Y-73941567D01*
X98263185Y-73949046D01*
X98240832Y-73955375D01*
X98217923Y-73960552D01*
X98194459Y-73964580D01*
X98170440Y-73967456D01*
X98145865Y-73969182D01*
X98120736Y-73969757D01*
X98108097Y-73969609D01*
X98095716Y-73969162D01*
X98083594Y-73968418D01*
X98071730Y-73967376D01*
X98048776Y-73964399D01*
X98026855Y-73960232D01*
X98005966Y-73954874D01*
X97986111Y-73948325D01*
X97967287Y-73940586D01*
X97949497Y-73931655D01*
X97932739Y-73921535D01*
X97917014Y-73910223D01*
X97902322Y-73897721D01*
X97888662Y-73884028D01*
X97876035Y-73869145D01*
X97864441Y-73853070D01*
X97853879Y-73835805D01*
X97844351Y-73817350D01*
X97835854Y-73797768D01*
X97828391Y-73777123D01*
X97821960Y-73755416D01*
X97816562Y-73732646D01*
X97814250Y-73720863D01*
X97812196Y-73708814D01*
X97810401Y-73696500D01*
X97808864Y-73683920D01*
X97807584Y-73671074D01*
X97806563Y-73657963D01*
X97805801Y-73644586D01*
X97805296Y-73630944D01*
X97805092Y-73619426D01*
X98072560Y-73619426D01*
X98072715Y-73633091D01*
X98073354Y-73645621D01*
X98075218Y-73662286D01*
X98077065Y-73671976D01*
X98080706Y-73684966D01*
X98085253Y-73696679D01*
X98090708Y-73707113D01*
X98099390Y-73719038D01*
X98109685Y-73728692D01*
X98121592Y-73736074D01*
X98135111Y-73741185D01*
X98150242Y-73744024D01*
X98162648Y-73744663D01*
X98175542Y-73744035D01*
X98188064Y-73742149D01*
X98200216Y-73739006D01*
X98211997Y-73734606D01*
X98223407Y-73728950D01*
X98234446Y-73722036D01*
X98245114Y-73713865D01*
X98255411Y-73704436D01*
X98265337Y-73693751D01*
X98274893Y-73681809D01*
X98281057Y-73673149D01*
X98290164Y-73658390D01*
X98296218Y-73647051D01*
X98302258Y-73634512D01*
X98308285Y-73620774D01*
X98314298Y-73605835D01*
X98320297Y-73589697D01*
X98326283Y-73572359D01*
X98332254Y-73553821D01*
X98338212Y-73534083D01*
X98344157Y-73513145D01*
X98350087Y-73491007D01*
X98353047Y-73479489D01*
X98356004Y-73467670D01*
X98358957Y-73455551D01*
X98361907Y-73443133D01*
X98364853Y-73430414D01*
X98367796Y-73417396D01*
X98370736Y-73404077D01*
X98373672Y-73390459D01*
X98376605Y-73376540D01*
X98379436Y-73362750D01*
X98382141Y-73349258D01*
X98384721Y-73336065D01*
X98387174Y-73323170D01*
X98389502Y-73310575D01*
X98391703Y-73298278D01*
X98393779Y-73286280D01*
X98395729Y-73274581D01*
X98399250Y-73252080D01*
X98402268Y-73230773D01*
X98404783Y-73210662D01*
X98406793Y-73191746D01*
X98408300Y-73174026D01*
X98409303Y-73157500D01*
X98409802Y-73142170D01*
X98409797Y-73128035D01*
X98409289Y-73115096D01*
X98408277Y-73103352D01*
X98405814Y-73087976D01*
X98404741Y-73083449D01*
X98400946Y-73070878D01*
X98396265Y-73059544D01*
X98388644Y-73046355D01*
X98379448Y-73035364D01*
X98368677Y-73026571D01*
X98356331Y-73019976D01*
X98342409Y-73015580D01*
X98326912Y-73013382D01*
X98318572Y-73013107D01*
X98305629Y-73013743D01*
X98293067Y-73015652D01*
X98280886Y-73018833D01*
X98269086Y-73023287D01*
X98257667Y-73029014D01*
X98246630Y-73036013D01*
X98235974Y-73044284D01*
X98225699Y-73053828D01*
X98215806Y-73064645D01*
X98206293Y-73076734D01*
X98200163Y-73085501D01*
X98191164Y-73100396D01*
X98185178Y-73111794D01*
X98179204Y-73124368D01*
X98173242Y-73138115D01*
X98167291Y-73153038D01*
X98161351Y-73169135D01*
X98155423Y-73186407D01*
X98149506Y-73204853D01*
X98143601Y-73224474D01*
X98137707Y-73245270D01*
X98131824Y-73267240D01*
X98128887Y-73278666D01*
X98125953Y-73290385D01*
X98123022Y-73302398D01*
X98120094Y-73314705D01*
X98117168Y-73327306D01*
X98114246Y-73340200D01*
X98111326Y-73353387D01*
X98108409Y-73366869D01*
X98105495Y-73380644D01*
X98102734Y-73394149D01*
X98100095Y-73407370D01*
X98097575Y-73420307D01*
X98095177Y-73432960D01*
X98092900Y-73445330D01*
X98090743Y-73457415D01*
X98088707Y-73469217D01*
X98084998Y-73491968D01*
X98081771Y-73513583D01*
X98079028Y-73534063D01*
X98076768Y-73553407D01*
X98074991Y-73571616D01*
X98073698Y-73588688D01*
X98072887Y-73604625D01*
X98072560Y-73619426D01*
X97805092Y-73619426D01*
X97805050Y-73617036D01*
X97805061Y-73602862D01*
X97805331Y-73588423D01*
X97805859Y-73573718D01*
X97806646Y-73558747D01*
X97807690Y-73543511D01*
X97808993Y-73528009D01*
X97810553Y-73512242D01*
X97812372Y-73496209D01*
X97814449Y-73479910D01*
X97816785Y-73463346D01*
X97819378Y-73446516D01*
X97822230Y-73429420D01*
X97825340Y-73412059D01*
X97828708Y-73394433D01*
X97832334Y-73376540D01*
X97840268Y-73340332D01*
X97848758Y-73305273D01*
X97857804Y-73271364D01*
X97867404Y-73238604D01*
X97877560Y-73206994D01*
X97888271Y-73176533D01*
X97899537Y-73147221D01*
X97911359Y-73119060D01*
X97923735Y-73092047D01*
X97936667Y-73066184D01*
X97950155Y-73041470D01*
X97964197Y-73017906D01*
X97978795Y-72995492D01*
X97993948Y-72974227D01*
X98009657Y-72954111D01*
X98025921Y-72935145D01*
X98042740Y-72917328D01*
X98060114Y-72900661D01*
X98078043Y-72885143D01*
X98096528Y-72870774D01*
X98115568Y-72857556D01*
X98135164Y-72845486D01*
X98155314Y-72834566D01*
X98176020Y-72824796D01*
X98197281Y-72816175D01*
X98219098Y-72808703D01*
X98241469Y-72802381D01*
X98264396Y-72797209D01*
X98287879Y-72793185D01*
X98311916Y-72790312D01*
X98336509Y-72788587D01*
X98361657Y-72788013D01*
X98374099Y-72788159D01*
G37*
G36*
X98934064Y-72806771D02*
G01*
X99195209Y-72806771D01*
X99004113Y-73725905D01*
X99358754Y-73725905D01*
X99312152Y-73951000D01*
X98696367Y-73951000D01*
X98934064Y-72806771D01*
G37*
G36*
X99938244Y-72806958D02*
G01*
X99958831Y-72807522D01*
X99978855Y-72808460D01*
X99998316Y-72809775D01*
X100017213Y-72811465D01*
X100035548Y-72813530D01*
X100053319Y-72815971D01*
X100070526Y-72818787D01*
X100087171Y-72821979D01*
X100103252Y-72825547D01*
X100118770Y-72829490D01*
X100133724Y-72833808D01*
X100148115Y-72838502D01*
X100161943Y-72843572D01*
X100175208Y-72849017D01*
X100187909Y-72854838D01*
X100200091Y-72861125D01*
X100211796Y-72868045D01*
X100223025Y-72875597D01*
X100233778Y-72883780D01*
X100244055Y-72892596D01*
X100253855Y-72902044D01*
X100263179Y-72912123D01*
X100272027Y-72922835D01*
X100280398Y-72934178D01*
X100288293Y-72946154D01*
X100295712Y-72958761D01*
X100302655Y-72972001D01*
X100309121Y-72985872D01*
X100315111Y-73000376D01*
X100320625Y-73015511D01*
X100325662Y-73031279D01*
X100330137Y-73047668D01*
X100333961Y-73064741D01*
X100337134Y-73082500D01*
X100339658Y-73100943D01*
X100341531Y-73120070D01*
X100342753Y-73139883D01*
X100343326Y-73160380D01*
X100343248Y-73181561D01*
X100342520Y-73203427D01*
X100341141Y-73225978D01*
X100339113Y-73249214D01*
X100337854Y-73261088D01*
X100336434Y-73273134D01*
X100334850Y-73285351D01*
X100333104Y-73297739D01*
X100331196Y-73310298D01*
X100329125Y-73323028D01*
X100326891Y-73335930D01*
X100324495Y-73349002D01*
X100321936Y-73362246D01*
X100319214Y-73375661D01*
X100315096Y-73394617D01*
X100310729Y-73413310D01*
X100306111Y-73431739D01*
X100301244Y-73449905D01*
X100296128Y-73467807D01*
X100290762Y-73485447D01*
X100285146Y-73502823D01*
X100279281Y-73519935D01*
X100273166Y-73536785D01*
X100266801Y-73553371D01*
X100260187Y-73569693D01*
X100253324Y-73585753D01*
X100246211Y-73601549D01*
X100238848Y-73617081D01*
X100231235Y-73632351D01*
X100223374Y-73647357D01*
X100215366Y-73662000D01*
X100207244Y-73676254D01*
X100199008Y-73690118D01*
X100190657Y-73703594D01*
X100182192Y-73716680D01*
X100173612Y-73729377D01*
X100164918Y-73741684D01*
X100156109Y-73753602D01*
X100147186Y-73765131D01*
X100138148Y-73776271D01*
X100128996Y-73787022D01*
X100119729Y-73797383D01*
X100110348Y-73807355D01*
X100100852Y-73816938D01*
X100091242Y-73826131D01*
X100081517Y-73834935D01*
X100071707Y-73843369D01*
X100061839Y-73851449D01*
X100051914Y-73859177D01*
X100041932Y-73866553D01*
X100031892Y-73873575D01*
X100021795Y-73880245D01*
X100011641Y-73886563D01*
X100001430Y-73892528D01*
X99986006Y-73900814D01*
X99970453Y-73908307D01*
X99954771Y-73915006D01*
X99938960Y-73920912D01*
X99923021Y-73926024D01*
X99917679Y-73927552D01*
X99901334Y-73931742D01*
X99884390Y-73935521D01*
X99872763Y-73937810D01*
X99860870Y-73939917D01*
X99848711Y-73941840D01*
X99836287Y-73943581D01*
X99823597Y-73945138D01*
X99810641Y-73946512D01*
X99797420Y-73947702D01*
X99783933Y-73948710D01*
X99770181Y-73949534D01*
X99756163Y-73950175D01*
X99741879Y-73950633D01*
X99727330Y-73950908D01*
X99712515Y-73951000D01*
X99411510Y-73951000D01*
X99454374Y-73744663D01*
X99715446Y-73744663D01*
X99744755Y-73744663D01*
X99759762Y-73744380D01*
X99774228Y-73743530D01*
X99788153Y-73742113D01*
X99801537Y-73740129D01*
X99814380Y-73737579D01*
X99826682Y-73734462D01*
X99838443Y-73730779D01*
X99849664Y-73726528D01*
X99863782Y-73719979D01*
X99876939Y-73712423D01*
X99889506Y-73703594D01*
X99898786Y-73695962D01*
X99907943Y-73687465D01*
X99916976Y-73678102D01*
X99925886Y-73667873D01*
X99934672Y-73656779D01*
X99943334Y-73644820D01*
X99951872Y-73631995D01*
X99960287Y-73618304D01*
X99968579Y-73603748D01*
X99971315Y-73598704D01*
X99976765Y-73588227D01*
X99982123Y-73577166D01*
X99987389Y-73565521D01*
X99992564Y-73553293D01*
X99997647Y-73540480D01*
X100002639Y-73527084D01*
X100007539Y-73513104D01*
X100012348Y-73498540D01*
X100017065Y-73483392D01*
X100021690Y-73467660D01*
X100026224Y-73451344D01*
X100030666Y-73434444D01*
X100035017Y-73416961D01*
X100039275Y-73398893D01*
X100043443Y-73380242D01*
X100047519Y-73361006D01*
X100051087Y-73343284D01*
X100054319Y-73326092D01*
X100057215Y-73309432D01*
X100059774Y-73293302D01*
X100061996Y-73277704D01*
X100063881Y-73262638D01*
X100065430Y-73248102D01*
X100066643Y-73234098D01*
X100067519Y-73220625D01*
X100068058Y-73207683D01*
X100068261Y-73195272D01*
X100068127Y-73183393D01*
X100067295Y-73166570D01*
X100065705Y-73150942D01*
X100064225Y-73141188D01*
X100061541Y-73127393D01*
X100058434Y-73114473D01*
X100054905Y-73102429D01*
X100050953Y-73091262D01*
X100045027Y-73077734D01*
X100038350Y-73065763D01*
X100030922Y-73055349D01*
X100022743Y-73046492D01*
X100013813Y-73039192D01*
X100001314Y-73031677D01*
X99989934Y-73026583D01*
X99977326Y-73022303D01*
X99963491Y-73018839D01*
X99948429Y-73016189D01*
X99936327Y-73014737D01*
X99923535Y-73013744D01*
X99910052Y-73013209D01*
X99900680Y-73013107D01*
X99867561Y-73013107D01*
X99715446Y-73744663D01*
X99454374Y-73744663D01*
X99649207Y-72806771D01*
X99917093Y-72806771D01*
X99938244Y-72806958D01*
G37*
D10*
G36*
X59405528Y-115067065D02*
G01*
X59405528Y-114824972D01*
X59874768Y-114922571D01*
X59405528Y-114557672D01*
X59405528Y-114312941D01*
X59819374Y-114674616D01*
X60531000Y-114523674D01*
X60531000Y-114773681D01*
X60012521Y-114859263D01*
X60148515Y-114979431D01*
X60531000Y-115058859D01*
X60531000Y-115300952D01*
X59405528Y-115067065D01*
G37*
G36*
X59405528Y-114180757D02*
G01*
X59405528Y-113938663D01*
X60324663Y-114129759D01*
X60324663Y-113775118D01*
X60531000Y-113817909D01*
X60531000Y-114414644D01*
X59405528Y-114180757D01*
G37*
G36*
X59405528Y-113465614D02*
G01*
X59405528Y-112796486D01*
X59593107Y-112835467D01*
X59593107Y-113262501D01*
X59855717Y-113317016D01*
X59855717Y-112985237D01*
X60043295Y-113024218D01*
X60043295Y-113355997D01*
X60324663Y-113414616D01*
X60324663Y-112987581D01*
X60531000Y-113030373D01*
X60531000Y-113699501D01*
X59405528Y-113465614D01*
G37*
G36*
X59405528Y-112664888D02*
G01*
X59405528Y-112011880D01*
X59593107Y-112050861D01*
X59593107Y-112461775D01*
X59893233Y-112524204D01*
X59893233Y-112207665D01*
X60080811Y-112246646D01*
X60080811Y-112563185D01*
X60531000Y-112656681D01*
X60531000Y-112898775D01*
X59405528Y-112664888D01*
G37*
G36*
X59405528Y-111608586D02*
G01*
X59405528Y-111366493D01*
X59855717Y-111459989D01*
X59855717Y-111195914D01*
X59405528Y-111102418D01*
X59405528Y-110860324D01*
X60531000Y-111094211D01*
X60531000Y-111336304D01*
X60062053Y-111238705D01*
X60062053Y-111502780D01*
X60531000Y-111600380D01*
X60531000Y-111842473D01*
X59405528Y-111608586D01*
G37*
G36*
X59405528Y-110636695D02*
G01*
X59405528Y-109967568D01*
X59593107Y-110006549D01*
X59593107Y-110433583D01*
X59855717Y-110488098D01*
X59855717Y-110156318D01*
X60043295Y-110195300D01*
X60043295Y-110527079D01*
X60324663Y-110585697D01*
X60324663Y-110158663D01*
X60531000Y-110201454D01*
X60531000Y-110870582D01*
X59405528Y-110636695D01*
G37*
G36*
X60531000Y-109565153D02*
G01*
X60287147Y-109569256D01*
X60287147Y-109879054D01*
X60531000Y-109983688D01*
X60531000Y-110206437D01*
X59405528Y-109641650D01*
X59405528Y-109592411D01*
X59646743Y-109592411D01*
X60099569Y-109793764D01*
X60099569Y-109576290D01*
X59646743Y-109592411D01*
X59405528Y-109592411D01*
X59405528Y-109398091D01*
X60531000Y-109317491D01*
X60531000Y-109565153D01*
G37*
G36*
X59405528Y-109113792D02*
G01*
X59405528Y-108859975D01*
X60262821Y-108868768D01*
X59405528Y-108515593D01*
X59405528Y-108308377D01*
X60531000Y-108812201D01*
X60531000Y-109083018D01*
X59405528Y-109113792D01*
G37*
G36*
X59405528Y-108374616D02*
G01*
X59405528Y-108108782D01*
X59816150Y-108038440D01*
X59405528Y-107786967D01*
X59405528Y-107550736D01*
X60055312Y-107991545D01*
X60531000Y-108090317D01*
X60531000Y-108332117D01*
X60055312Y-108233346D01*
X59405528Y-108374616D01*
G37*
G36*
X59405528Y-107167665D02*
G01*
X59405528Y-106925572D01*
X60531000Y-107159459D01*
X60531000Y-107401552D01*
X59405528Y-107167665D01*
G37*
G36*
X59405528Y-106719235D02*
G01*
X59405528Y-106451057D01*
X60104845Y-106313011D01*
X59405528Y-106167637D01*
X59405528Y-105980938D01*
X60531000Y-106214825D01*
X60531000Y-106430833D01*
X59716498Y-106597016D01*
X60531000Y-106766423D01*
X60531000Y-106953122D01*
X59405528Y-106719235D01*
G37*
G36*
X59771453Y-105089574D02*
G01*
X59792975Y-105090315D01*
X59815188Y-105091694D01*
X59838092Y-105093713D01*
X59849804Y-105094961D01*
X59861689Y-105096370D01*
X59873746Y-105097938D01*
X59885976Y-105099666D01*
X59898379Y-105101554D01*
X59910955Y-105103601D01*
X59923704Y-105105808D01*
X59936626Y-105108175D01*
X59949721Y-105110701D01*
X59962988Y-105113387D01*
X59981797Y-105117467D01*
X60000339Y-105121791D01*
X60018616Y-105126360D01*
X60036628Y-105131174D01*
X60054373Y-105136234D01*
X60071853Y-105141538D01*
X60089068Y-105147087D01*
X60106017Y-105152882D01*
X60122700Y-105158921D01*
X60139118Y-105165205D01*
X60155270Y-105171734D01*
X60171157Y-105178509D01*
X60186777Y-105185528D01*
X60202133Y-105192792D01*
X60217222Y-105200302D01*
X60232046Y-105208056D01*
X60246543Y-105215988D01*
X60260650Y-105224030D01*
X60274368Y-105232181D01*
X60287697Y-105240443D01*
X60300637Y-105248814D01*
X60313187Y-105257295D01*
X60325348Y-105265887D01*
X60337120Y-105274588D01*
X60348502Y-105283399D01*
X60359495Y-105292320D01*
X60370099Y-105301351D01*
X60380314Y-105310491D01*
X60390139Y-105319742D01*
X60399575Y-105329103D01*
X60408622Y-105338573D01*
X60417280Y-105348154D01*
X60425534Y-105357780D01*
X60433441Y-105367461D01*
X60441003Y-105377197D01*
X60448219Y-105386988D01*
X60455090Y-105396834D01*
X60461615Y-105406735D01*
X60470753Y-105421690D01*
X60479114Y-105436768D01*
X60486697Y-105451970D01*
X60493502Y-105467295D01*
X60499529Y-105482745D01*
X60504778Y-105498317D01*
X60507845Y-105508768D01*
X60511983Y-105524789D01*
X60515714Y-105541418D01*
X60519038Y-105558655D01*
X60521028Y-105570484D01*
X60522837Y-105582583D01*
X60524465Y-105594952D01*
X60525912Y-105607592D01*
X60527178Y-105620501D01*
X60528264Y-105633681D01*
X60529168Y-105647132D01*
X60529892Y-105660852D01*
X60530434Y-105674842D01*
X60530796Y-105689103D01*
X60530977Y-105703634D01*
X60531000Y-105711001D01*
X60531000Y-106000575D01*
X59405528Y-105766688D01*
X59405528Y-105563576D01*
X59593107Y-105563576D01*
X60343421Y-105719501D01*
X60343421Y-105678761D01*
X60343127Y-105663264D01*
X60342246Y-105648319D01*
X60340778Y-105633926D01*
X60338722Y-105620083D01*
X60336079Y-105606792D01*
X60332849Y-105594052D01*
X60329031Y-105581863D01*
X60324627Y-105570225D01*
X60319634Y-105559139D01*
X60314055Y-105548604D01*
X60310009Y-105541887D01*
X60303253Y-105532015D01*
X60295628Y-105522292D01*
X60287131Y-105512719D01*
X60277764Y-105503295D01*
X60267526Y-105494021D01*
X60256417Y-105484896D01*
X60244438Y-105475920D01*
X60231588Y-105467094D01*
X60217868Y-105458417D01*
X60203276Y-105449890D01*
X60193065Y-105444288D01*
X60182371Y-105438730D01*
X60171097Y-105433269D01*
X60159244Y-105427904D01*
X60146812Y-105422636D01*
X60133800Y-105417463D01*
X60120209Y-105412387D01*
X60106039Y-105407406D01*
X60091289Y-105402522D01*
X60075960Y-105397734D01*
X60060052Y-105393043D01*
X60043564Y-105388447D01*
X60026498Y-105383948D01*
X60008851Y-105379544D01*
X59990626Y-105375237D01*
X59971821Y-105371026D01*
X59952437Y-105366912D01*
X59934490Y-105363274D01*
X59917065Y-105359983D01*
X59900161Y-105357037D01*
X59883780Y-105354437D01*
X59867921Y-105352183D01*
X59852584Y-105350274D01*
X59837770Y-105348711D01*
X59823477Y-105347494D01*
X59809706Y-105346623D01*
X59796457Y-105346098D01*
X59783731Y-105345918D01*
X59771526Y-105346084D01*
X59754198Y-105346981D01*
X59738045Y-105348656D01*
X59727929Y-105350205D01*
X59713594Y-105353017D01*
X59700156Y-105356288D01*
X59687615Y-105360017D01*
X59675969Y-105364205D01*
X59661837Y-105370502D01*
X59649298Y-105377614D01*
X59638353Y-105385541D01*
X59629002Y-105394284D01*
X59621244Y-105403841D01*
X59614649Y-105414420D01*
X59608934Y-105426226D01*
X59604098Y-105439259D01*
X59600141Y-105453520D01*
X59597751Y-105465021D01*
X59595855Y-105477212D01*
X59594453Y-105490094D01*
X59593547Y-105503666D01*
X59593134Y-105517929D01*
X59593107Y-105522836D01*
X59593107Y-105563576D01*
X59405528Y-105563576D01*
X59405528Y-105506423D01*
X59405710Y-105485532D01*
X59406257Y-105465212D01*
X59407167Y-105445461D01*
X59408441Y-105426281D01*
X59410079Y-105407671D01*
X59412082Y-105389631D01*
X59414448Y-105372161D01*
X59417179Y-105355261D01*
X59420273Y-105338932D01*
X59423732Y-105323172D01*
X59427555Y-105307983D01*
X59431742Y-105293364D01*
X59436293Y-105279315D01*
X59441208Y-105265836D01*
X59446487Y-105252928D01*
X59452130Y-105240589D01*
X59458263Y-105228766D01*
X59465012Y-105217403D01*
X59472377Y-105206500D01*
X59480358Y-105196058D01*
X59488955Y-105186075D01*
X59498168Y-105176553D01*
X59507997Y-105167491D01*
X59518442Y-105158890D01*
X59529503Y-105150749D01*
X59541179Y-105143068D01*
X59553472Y-105135847D01*
X59566381Y-105129086D01*
X59579905Y-105122786D01*
X59594046Y-105116946D01*
X59608802Y-105111566D01*
X59624175Y-105106646D01*
X59640164Y-105102276D01*
X59656845Y-105098545D01*
X59674218Y-105095453D01*
X59692282Y-105092999D01*
X59711037Y-105091185D01*
X59730484Y-105090009D01*
X59750623Y-105089472D01*
X59771453Y-105089574D01*
G37*
G36*
X59405528Y-104822934D02*
G01*
X59405528Y-104580840D01*
X60046226Y-104713904D01*
X60062832Y-104717308D01*
X60078796Y-104720485D01*
X60094119Y-104723435D01*
X60108801Y-104726159D01*
X60122842Y-104728656D01*
X60136242Y-104730926D01*
X60149001Y-104732970D01*
X60161118Y-104734787D01*
X60178092Y-104737087D01*
X60193624Y-104738877D01*
X60207713Y-104740158D01*
X60220359Y-104740928D01*
X60234977Y-104741161D01*
X60247910Y-104740447D01*
X60260036Y-104738743D01*
X60274061Y-104735223D01*
X60286827Y-104730157D01*
X60298333Y-104723545D01*
X60308580Y-104715388D01*
X60315870Y-104707749D01*
X60323807Y-104697017D01*
X60330399Y-104685155D01*
X60335645Y-104672162D01*
X60339547Y-104658038D01*
X60341699Y-104645925D01*
X60342991Y-104633089D01*
X60343421Y-104619528D01*
X60342949Y-104604723D01*
X60341534Y-104590494D01*
X60339176Y-104576842D01*
X60335874Y-104563768D01*
X60331629Y-104551270D01*
X60326440Y-104539350D01*
X60320308Y-104528006D01*
X60313233Y-104517240D01*
X60305305Y-104507132D01*
X60296765Y-104497767D01*
X60287610Y-104489144D01*
X60277842Y-104481263D01*
X60267460Y-104474123D01*
X60256464Y-104467725D01*
X60244855Y-104462070D01*
X60232632Y-104457156D01*
X60218756Y-104452384D01*
X60206582Y-104448601D01*
X60192893Y-104444642D01*
X60177690Y-104440509D01*
X60160972Y-104436200D01*
X60148985Y-104433230D01*
X60136324Y-104430182D01*
X60122991Y-104427057D01*
X60108984Y-104423853D01*
X60094305Y-104420572D01*
X60078952Y-104417213D01*
X60062926Y-104413776D01*
X60046226Y-104410261D01*
X59405528Y-104277198D01*
X59405528Y-104074672D01*
X60039485Y-104206270D01*
X60051261Y-104208744D01*
X60062849Y-104211221D01*
X60085459Y-104216184D01*
X60107316Y-104221159D01*
X60128420Y-104226145D01*
X60148771Y-104231142D01*
X60168368Y-104236151D01*
X60187211Y-104241171D01*
X60205302Y-104246203D01*
X60222639Y-104251247D01*
X60239222Y-104256301D01*
X60255053Y-104261367D01*
X60270130Y-104266445D01*
X60284454Y-104271534D01*
X60298024Y-104276634D01*
X60310841Y-104281746D01*
X60322905Y-104286870D01*
X60334452Y-104292198D01*
X60345793Y-104297998D01*
X60356928Y-104304270D01*
X60367857Y-104311013D01*
X60378581Y-104318228D01*
X60389097Y-104325915D01*
X60399408Y-104334073D01*
X60409513Y-104342704D01*
X60419412Y-104351805D01*
X60429104Y-104361379D01*
X60438591Y-104371424D01*
X60447871Y-104381941D01*
X60456946Y-104392930D01*
X60465814Y-104404390D01*
X60474476Y-104416322D01*
X60482933Y-104428726D01*
X60491025Y-104441570D01*
X60498595Y-104454825D01*
X60505643Y-104468489D01*
X60512168Y-104482563D01*
X60518172Y-104497047D01*
X60523654Y-104511941D01*
X60528614Y-104527245D01*
X60533051Y-104542958D01*
X60536967Y-104559082D01*
X60540360Y-104575615D01*
X60543231Y-104592558D01*
X60545581Y-104609911D01*
X60547408Y-104627674D01*
X60548713Y-104645847D01*
X60549496Y-104664430D01*
X60549757Y-104683422D01*
X60549566Y-104701059D01*
X60548993Y-104718140D01*
X60548037Y-104734664D01*
X60546698Y-104750632D01*
X60544977Y-104766043D01*
X60542874Y-104780898D01*
X60540389Y-104795197D01*
X60537521Y-104808939D01*
X60534270Y-104822124D01*
X60530638Y-104834754D01*
X60526623Y-104846827D01*
X60522225Y-104858343D01*
X60517445Y-104869303D01*
X60509558Y-104884700D01*
X60500811Y-104898845D01*
X60491231Y-104911874D01*
X60480955Y-104923925D01*
X60469984Y-104934996D01*
X60458317Y-104945089D01*
X60445955Y-104954203D01*
X60432897Y-104962338D01*
X60419144Y-104969494D01*
X60404695Y-104975671D01*
X60389551Y-104980870D01*
X60373711Y-104985089D01*
X60362765Y-104987358D01*
X60351134Y-104989127D01*
X60338443Y-104990404D01*
X60324692Y-104991188D01*
X60309880Y-104991480D01*
X60294009Y-104991279D01*
X60277077Y-104990587D01*
X60259085Y-104989402D01*
X60240033Y-104987725D01*
X60219921Y-104985555D01*
X60198748Y-104982893D01*
X60176516Y-104979739D01*
X60153223Y-104976092D01*
X60141179Y-104974085D01*
X60128870Y-104971954D01*
X60116296Y-104969700D01*
X60103457Y-104967323D01*
X60090353Y-104964822D01*
X60076984Y-104962199D01*
X60063350Y-104959453D01*
X60049450Y-104956584D01*
X59405528Y-104822934D01*
G37*
G36*
X59646743Y-103227930D02*
G01*
X59724412Y-103443939D01*
X59708512Y-103446264D01*
X59693637Y-103449356D01*
X59679789Y-103453216D01*
X59666966Y-103457842D01*
X59655169Y-103463236D01*
X59644398Y-103469397D01*
X59634653Y-103476324D01*
X59621958Y-103488154D01*
X59611572Y-103501710D01*
X59603493Y-103516992D01*
X59599390Y-103528138D01*
X59596313Y-103540052D01*
X59594261Y-103552733D01*
X59593235Y-103566181D01*
X59593107Y-103573192D01*
X59593583Y-103586212D01*
X59595012Y-103598746D01*
X59597393Y-103610795D01*
X59600727Y-103622358D01*
X59605014Y-103633436D01*
X59610253Y-103644029D01*
X59616444Y-103654136D01*
X59623588Y-103663757D01*
X59631296Y-103672610D01*
X59641381Y-103682400D01*
X59651967Y-103690773D01*
X59663054Y-103697730D01*
X59674641Y-103703270D01*
X59686730Y-103707393D01*
X59694224Y-103709187D01*
X59708413Y-103711306D01*
X59721672Y-103711436D01*
X59734001Y-103709577D01*
X59745400Y-103705729D01*
X59755869Y-103699891D01*
X59765407Y-103692065D01*
X59768962Y-103688377D01*
X59778114Y-103676808D01*
X59786084Y-103664874D01*
X59792441Y-103654360D01*
X59799122Y-103642507D01*
X59806128Y-103629315D01*
X59813459Y-103614782D01*
X59821114Y-103598911D01*
X59826397Y-103587586D01*
X59831825Y-103575665D01*
X59837398Y-103563149D01*
X59843114Y-103550038D01*
X59848167Y-103537979D01*
X59853216Y-103526275D01*
X59858261Y-103514925D01*
X59863301Y-103503931D01*
X59868336Y-103493291D01*
X59875880Y-103477998D01*
X59883414Y-103463503D01*
X59890938Y-103449806D01*
X59898451Y-103436908D01*
X59905954Y-103424809D01*
X59913447Y-103413508D01*
X59920929Y-103403005D01*
X59923421Y-103399682D01*
X59931092Y-103390050D01*
X59939269Y-103380939D01*
X59947950Y-103372348D01*
X59957136Y-103364277D01*
X59966827Y-103356727D01*
X59977022Y-103349697D01*
X59987723Y-103343188D01*
X59998929Y-103337199D01*
X60010639Y-103331730D01*
X60022855Y-103326781D01*
X60031279Y-103323771D01*
X60044221Y-103319746D01*
X60057550Y-103316462D01*
X60071266Y-103313921D01*
X60085368Y-103312121D01*
X60099856Y-103311063D01*
X60114731Y-103310747D01*
X60129992Y-103311173D01*
X60145639Y-103312341D01*
X60161673Y-103314250D01*
X60178093Y-103316902D01*
X60189255Y-103319082D01*
X60208781Y-103323554D01*
X60227865Y-103328763D01*
X60246507Y-103334710D01*
X60264708Y-103341393D01*
X60282466Y-103348815D01*
X60299782Y-103356973D01*
X60316657Y-103365869D01*
X60333090Y-103375502D01*
X60349080Y-103385872D01*
X60364629Y-103396980D01*
X60379736Y-103408825D01*
X60394401Y-103421407D01*
X60408624Y-103434727D01*
X60422405Y-103448784D01*
X60435744Y-103463578D01*
X60448641Y-103479110D01*
X60460885Y-103495173D01*
X60472340Y-103511634D01*
X60483005Y-103528493D01*
X60492879Y-103545751D01*
X60501964Y-103563408D01*
X60510259Y-103581463D01*
X60517763Y-103599916D01*
X60524478Y-103618768D01*
X60530403Y-103638018D01*
X60535538Y-103657667D01*
X60539883Y-103677714D01*
X60543438Y-103698159D01*
X60546202Y-103719003D01*
X60548177Y-103740245D01*
X60549362Y-103761886D01*
X60549757Y-103783925D01*
X60549452Y-103802335D01*
X60548536Y-103820197D01*
X60547009Y-103837511D01*
X60544871Y-103854276D01*
X60542122Y-103870493D01*
X60538763Y-103886161D01*
X60534793Y-103901281D01*
X60530212Y-103915853D01*
X60525020Y-103929876D01*
X60519217Y-103943351D01*
X60512804Y-103956277D01*
X60505780Y-103968655D01*
X60498145Y-103980484D01*
X60489899Y-103991766D01*
X60481043Y-104002498D01*
X60471575Y-104012683D01*
X60461497Y-104022319D01*
X60450808Y-104031406D01*
X60439508Y-104039945D01*
X60427598Y-104047936D01*
X60415076Y-104055378D01*
X60401944Y-104062272D01*
X60388201Y-104068618D01*
X60373848Y-104074415D01*
X60358883Y-104079664D01*
X60343308Y-104084364D01*
X60327122Y-104088516D01*
X60310325Y-104092120D01*
X60292917Y-104095175D01*
X60274898Y-104097681D01*
X60256269Y-104099640D01*
X60237029Y-104101050D01*
X60174600Y-103876835D01*
X60195043Y-103875871D01*
X60214168Y-103873858D01*
X60231973Y-103870797D01*
X60248459Y-103866687D01*
X60263627Y-103861528D01*
X60277475Y-103855320D01*
X60290005Y-103848064D01*
X60301216Y-103839759D01*
X60311108Y-103830405D01*
X60319681Y-103820003D01*
X60326935Y-103808551D01*
X60332870Y-103796051D01*
X60337486Y-103782503D01*
X60340783Y-103767906D01*
X60342762Y-103752260D01*
X60343421Y-103735565D01*
X60342908Y-103720077D01*
X60341369Y-103705120D01*
X60338805Y-103690694D01*
X60335214Y-103676800D01*
X60330598Y-103663437D01*
X60324956Y-103650605D01*
X60318288Y-103638304D01*
X60310595Y-103626535D01*
X60302068Y-103615580D01*
X60292899Y-103605725D01*
X60283090Y-103596969D01*
X60272639Y-103589312D01*
X60261548Y-103582754D01*
X60249815Y-103577295D01*
X60237441Y-103572936D01*
X60224426Y-103569675D01*
X60211994Y-103567734D01*
X60199977Y-103567225D01*
X60186104Y-103568503D01*
X60172829Y-103571841D01*
X60160152Y-103577240D01*
X60152032Y-103581985D01*
X60141934Y-103590198D01*
X60133691Y-103599231D01*
X60125301Y-103610453D01*
X60118913Y-103620307D01*
X60112442Y-103631391D01*
X60105889Y-103643707D01*
X60099253Y-103657254D01*
X60092535Y-103672033D01*
X60085734Y-103688042D01*
X60083449Y-103693653D01*
X60077695Y-103708026D01*
X60072009Y-103721909D01*
X60066392Y-103735301D01*
X60060844Y-103748204D01*
X60055365Y-103760617D01*
X60049954Y-103772540D01*
X60044612Y-103783973D01*
X60039339Y-103794916D01*
X60031557Y-103810411D01*
X60023931Y-103824804D01*
X60016459Y-103838095D01*
X60009141Y-103850283D01*
X60001978Y-103861368D01*
X59999625Y-103864818D01*
X59992255Y-103874735D01*
X59984323Y-103884152D01*
X59975830Y-103893069D01*
X59966776Y-103901487D01*
X59957159Y-103909404D01*
X59946982Y-103916822D01*
X59936242Y-103923741D01*
X59924941Y-103930159D01*
X59913079Y-103936078D01*
X59900655Y-103941497D01*
X59892060Y-103944832D01*
X59878808Y-103949227D01*
X59865211Y-103952849D01*
X59851269Y-103955698D01*
X59836982Y-103957774D01*
X59822349Y-103959077D01*
X59807372Y-103959608D01*
X59792049Y-103959366D01*
X59776381Y-103958351D01*
X59760367Y-103956563D01*
X59744009Y-103954003D01*
X59732912Y-103951866D01*
X59714148Y-103947582D01*
X59695813Y-103942643D01*
X59677905Y-103937049D01*
X59660426Y-103930800D01*
X59643376Y-103923897D01*
X59626753Y-103916338D01*
X59610558Y-103908125D01*
X59594792Y-103899256D01*
X59579454Y-103889733D01*
X59564544Y-103879555D01*
X59550063Y-103868722D01*
X59536009Y-103857234D01*
X59522384Y-103845092D01*
X59509187Y-103832294D01*
X59496418Y-103818842D01*
X59484077Y-103804734D01*
X59472294Y-103790100D01*
X59461271Y-103775141D01*
X59451008Y-103759857D01*
X59441505Y-103744248D01*
X59432763Y-103728313D01*
X59424781Y-103712053D01*
X59417559Y-103695468D01*
X59411097Y-103678558D01*
X59405396Y-103661323D01*
X59400454Y-103643763D01*
X59396273Y-103625878D01*
X59392852Y-103607667D01*
X59390192Y-103589131D01*
X59388291Y-103570270D01*
X59387151Y-103551084D01*
X59386771Y-103531573D01*
X59387024Y-103513903D01*
X59387786Y-103496762D01*
X59389056Y-103480148D01*
X59390833Y-103464061D01*
X59393118Y-103448503D01*
X59395910Y-103433472D01*
X59399211Y-103418969D01*
X59403019Y-103404994D01*
X59407335Y-103391547D01*
X59412159Y-103378627D01*
X59417490Y-103366236D01*
X59423329Y-103354372D01*
X59429676Y-103343036D01*
X59436531Y-103332227D01*
X59443893Y-103321947D01*
X59451764Y-103312194D01*
X59460142Y-103302969D01*
X59469027Y-103294272D01*
X59478421Y-103286103D01*
X59488322Y-103278461D01*
X59498731Y-103271347D01*
X59509648Y-103264761D01*
X59521073Y-103258703D01*
X59533005Y-103253173D01*
X59545445Y-103248170D01*
X59558393Y-103243696D01*
X59571848Y-103239749D01*
X59585812Y-103236329D01*
X59600283Y-103233438D01*
X59615262Y-103231074D01*
X59630748Y-103229238D01*
X59646743Y-103227930D01*
G37*
G36*
X59405528Y-103097798D02*
G01*
X59405528Y-102411378D01*
X59611865Y-102454169D01*
X59611865Y-102679263D01*
X60531000Y-102870359D01*
X60531000Y-103111866D01*
X59611865Y-102920771D01*
X59611865Y-103140589D01*
X59405528Y-103097798D01*
G37*
G36*
X59664856Y-101631745D02*
G01*
X59680308Y-101632686D01*
X59696074Y-101634246D01*
X59712154Y-101636423D01*
X59728548Y-101639219D01*
X59739653Y-101641427D01*
X59752629Y-101644264D01*
X59765361Y-101647354D01*
X59777850Y-101650696D01*
X59790096Y-101654291D01*
X59802099Y-101658138D01*
X59813859Y-101662237D01*
X59825375Y-101666589D01*
X59836648Y-101671194D01*
X59847677Y-101676051D01*
X59858463Y-101681160D01*
X59869006Y-101686522D01*
X59879306Y-101692136D01*
X59899176Y-101704122D01*
X59918072Y-101717117D01*
X59935995Y-101731123D01*
X59952945Y-101746138D01*
X59968922Y-101762163D01*
X59983926Y-101779198D01*
X59997957Y-101797242D01*
X60011014Y-101816297D01*
X60023098Y-101836361D01*
X60028776Y-101846772D01*
X60034210Y-101857435D01*
X60531000Y-101758370D01*
X60531000Y-102021859D01*
X60080811Y-102075202D01*
X60080811Y-102195956D01*
X60531000Y-102289452D01*
X60531000Y-102531545D01*
X59405528Y-102297658D01*
X59405528Y-102094546D01*
X59593107Y-102094546D01*
X59893233Y-102156974D01*
X59893233Y-102050875D01*
X59892629Y-102033536D01*
X59890819Y-102017055D01*
X59887802Y-102001433D01*
X59883579Y-101986670D01*
X59878149Y-101972765D01*
X59871512Y-101959719D01*
X59863668Y-101947532D01*
X59854618Y-101936203D01*
X59844361Y-101925733D01*
X59832897Y-101916122D01*
X59820226Y-101907369D01*
X59806349Y-101899475D01*
X59791265Y-101892440D01*
X59774975Y-101886263D01*
X59757477Y-101880945D01*
X59738773Y-101876486D01*
X59725740Y-101874095D01*
X59713311Y-101872493D01*
X59701487Y-101871677D01*
X59687556Y-101871766D01*
X59674570Y-101873086D01*
X59662529Y-101875636D01*
X59651432Y-101879417D01*
X59639455Y-101884995D01*
X59629024Y-101891397D01*
X59618808Y-101899908D01*
X59610696Y-101909541D01*
X59605417Y-101918691D01*
X59600620Y-101931107D01*
X59597447Y-101943960D01*
X59595463Y-101956229D01*
X59594081Y-101969914D01*
X59593408Y-101981883D01*
X59593119Y-101994758D01*
X59593107Y-101998119D01*
X59593107Y-102094546D01*
X59405528Y-102094546D01*
X59405528Y-101951810D01*
X59405565Y-101939400D01*
X59405675Y-101927374D01*
X59405977Y-101910056D01*
X59406444Y-101893604D01*
X59407076Y-101878018D01*
X59407873Y-101863297D01*
X59408835Y-101849441D01*
X59409961Y-101836451D01*
X59411253Y-101824327D01*
X59413231Y-101809508D01*
X59414907Y-101799403D01*
X59417751Y-101786525D01*
X59421594Y-101773831D01*
X59426434Y-101761319D01*
X59432273Y-101748991D01*
X59439110Y-101736846D01*
X59446946Y-101724884D01*
X59455780Y-101713106D01*
X59465612Y-101701510D01*
X59476420Y-101690469D01*
X59488180Y-101680353D01*
X59497626Y-101673373D01*
X59507607Y-101666913D01*
X59518124Y-101660974D01*
X59529176Y-101655554D01*
X59540765Y-101650656D01*
X59552889Y-101646277D01*
X59565550Y-101642419D01*
X59578745Y-101639082D01*
X59592312Y-101636314D01*
X59606192Y-101634163D01*
X59620387Y-101632632D01*
X59634895Y-101631718D01*
X59649719Y-101631423D01*
X59664856Y-101631745D01*
G37*
G36*
X59405528Y-101383213D02*
G01*
X59405528Y-101141120D01*
X60531000Y-101375006D01*
X60531000Y-101617100D01*
X59405528Y-101383213D01*
G37*
G36*
X59405528Y-100925990D02*
G01*
X59405528Y-100256863D01*
X59593107Y-100295844D01*
X59593107Y-100722878D01*
X59855717Y-100777393D01*
X59855717Y-100445614D01*
X60043295Y-100484595D01*
X60043295Y-100816374D01*
X60324663Y-100874993D01*
X60324663Y-100447958D01*
X60531000Y-100490750D01*
X60531000Y-101159877D01*
X59405528Y-100925990D01*
G37*
G36*
X59646743Y-99502152D02*
G01*
X59724412Y-99718161D01*
X59708512Y-99720486D01*
X59693637Y-99723578D01*
X59679789Y-99727438D01*
X59666966Y-99732064D01*
X59655169Y-99737458D01*
X59644398Y-99743618D01*
X59634653Y-99750546D01*
X59621958Y-99762376D01*
X59611572Y-99775932D01*
X59603493Y-99791213D01*
X59599390Y-99802360D01*
X59596313Y-99814274D01*
X59594261Y-99826955D01*
X59593235Y-99840402D01*
X59593107Y-99847414D01*
X59593583Y-99860434D01*
X59595012Y-99872968D01*
X59597393Y-99885017D01*
X59600727Y-99896580D01*
X59605014Y-99907658D01*
X59610253Y-99918251D01*
X59616444Y-99928358D01*
X59623588Y-99937979D01*
X59631296Y-99946832D01*
X59641381Y-99956622D01*
X59651967Y-99964995D01*
X59663054Y-99971952D01*
X59674641Y-99977492D01*
X59686730Y-99981615D01*
X59694224Y-99983408D01*
X59708413Y-99985528D01*
X59721672Y-99985658D01*
X59734001Y-99983799D01*
X59745400Y-99979951D01*
X59755869Y-99974113D01*
X59765407Y-99966287D01*
X59768962Y-99962599D01*
X59778114Y-99951030D01*
X59786084Y-99939096D01*
X59792441Y-99928582D01*
X59799122Y-99916729D01*
X59806128Y-99903536D01*
X59813459Y-99889004D01*
X59821114Y-99873133D01*
X59826397Y-99861808D01*
X59831825Y-99849887D01*
X59837398Y-99837371D01*
X59843114Y-99824260D01*
X59848167Y-99812201D01*
X59853216Y-99800496D01*
X59858261Y-99789147D01*
X59863301Y-99778153D01*
X59868336Y-99767513D01*
X59875880Y-99752220D01*
X59883414Y-99737725D01*
X59890938Y-99724028D01*
X59898451Y-99711130D01*
X59905954Y-99699030D01*
X59913447Y-99687730D01*
X59920929Y-99677227D01*
X59923421Y-99673904D01*
X59931092Y-99664272D01*
X59939269Y-99655161D01*
X59947950Y-99646570D01*
X59957136Y-99638499D01*
X59966827Y-99630949D01*
X59977022Y-99623919D01*
X59987723Y-99617410D01*
X59998929Y-99611420D01*
X60010639Y-99605952D01*
X60022855Y-99601003D01*
X60031279Y-99597993D01*
X60044221Y-99593968D01*
X60057550Y-99590684D01*
X60071266Y-99588143D01*
X60085368Y-99586343D01*
X60099856Y-99585285D01*
X60114731Y-99584969D01*
X60129992Y-99585395D01*
X60145639Y-99586563D01*
X60161673Y-99588472D01*
X60178093Y-99591124D01*
X60189255Y-99593304D01*
X60208781Y-99597776D01*
X60227865Y-99602985D01*
X60246507Y-99608931D01*
X60264708Y-99615615D01*
X60282466Y-99623037D01*
X60299782Y-99631195D01*
X60316657Y-99640091D01*
X60333090Y-99649724D01*
X60349080Y-99660094D01*
X60364629Y-99671202D01*
X60379736Y-99683047D01*
X60394401Y-99695629D01*
X60408624Y-99708949D01*
X60422405Y-99723006D01*
X60435744Y-99737800D01*
X60448641Y-99753332D01*
X60460885Y-99769394D01*
X60472340Y-99785856D01*
X60483005Y-99802715D01*
X60492879Y-99819973D01*
X60501964Y-99837630D01*
X60510259Y-99855685D01*
X60517763Y-99874138D01*
X60524478Y-99892990D01*
X60530403Y-99912240D01*
X60535538Y-99931888D01*
X60539883Y-99951935D01*
X60543438Y-99972381D01*
X60546202Y-99993225D01*
X60548177Y-100014467D01*
X60549362Y-100036108D01*
X60549757Y-100058147D01*
X60549452Y-100076557D01*
X60548536Y-100094419D01*
X60547009Y-100111733D01*
X60544871Y-100128498D01*
X60542122Y-100144715D01*
X60538763Y-100160383D01*
X60534793Y-100175503D01*
X60530212Y-100190075D01*
X60525020Y-100204098D01*
X60519217Y-100217572D01*
X60512804Y-100230499D01*
X60505780Y-100242877D01*
X60498145Y-100254706D01*
X60489899Y-100265987D01*
X60481043Y-100276720D01*
X60471575Y-100286905D01*
X60461497Y-100296541D01*
X60450808Y-100305628D01*
X60439508Y-100314167D01*
X60427598Y-100322158D01*
X60415076Y-100329600D01*
X60401944Y-100336494D01*
X60388201Y-100342840D01*
X60373848Y-100348637D01*
X60358883Y-100353886D01*
X60343308Y-100358586D01*
X60327122Y-100362738D01*
X60310325Y-100366342D01*
X60292917Y-100369397D01*
X60274898Y-100371903D01*
X60256269Y-100373862D01*
X60237029Y-100375272D01*
X60174600Y-100151057D01*
X60195043Y-100150093D01*
X60214168Y-100148080D01*
X60231973Y-100145019D01*
X60248459Y-100140908D01*
X60263627Y-100135750D01*
X60277475Y-100129542D01*
X60290005Y-100122286D01*
X60301216Y-100113981D01*
X60311108Y-100104627D01*
X60319681Y-100094224D01*
X60326935Y-100082773D01*
X60332870Y-100070273D01*
X60337486Y-100056725D01*
X60340783Y-100042127D01*
X60342762Y-100026481D01*
X60343421Y-100009787D01*
X60342908Y-99994299D01*
X60341369Y-99979342D01*
X60338805Y-99964916D01*
X60335214Y-99951022D01*
X60330598Y-99937659D01*
X60324956Y-99924827D01*
X60318288Y-99912526D01*
X60310595Y-99900757D01*
X60302068Y-99889802D01*
X60292899Y-99879947D01*
X60283090Y-99871191D01*
X60272639Y-99863534D01*
X60261548Y-99856976D01*
X60249815Y-99851517D01*
X60237441Y-99847158D01*
X60224426Y-99843897D01*
X60211994Y-99841956D01*
X60199977Y-99841447D01*
X60186104Y-99842725D01*
X60172829Y-99846063D01*
X60160152Y-99851462D01*
X60152032Y-99856207D01*
X60141934Y-99864420D01*
X60133691Y-99873453D01*
X60125301Y-99884675D01*
X60118913Y-99894528D01*
X60112442Y-99905613D01*
X60105889Y-99917929D01*
X60099253Y-99931476D01*
X60092535Y-99946255D01*
X60085734Y-99962264D01*
X60083449Y-99967875D01*
X60077695Y-99982248D01*
X60072009Y-99996130D01*
X60066392Y-100009523D01*
X60060844Y-100022426D01*
X60055365Y-100034839D01*
X60049954Y-100046762D01*
X60044612Y-100058195D01*
X60039339Y-100069138D01*
X60031557Y-100084633D01*
X60023931Y-100099026D01*
X60016459Y-100112317D01*
X60009141Y-100124504D01*
X60001978Y-100135590D01*
X59999625Y-100139040D01*
X59992255Y-100148957D01*
X59984323Y-100158374D01*
X59975830Y-100167291D01*
X59966776Y-100175708D01*
X59957159Y-100183626D01*
X59946982Y-100191044D01*
X59936242Y-100197963D01*
X59924941Y-100204381D01*
X59913079Y-100210300D01*
X59900655Y-100215719D01*
X59892060Y-100219054D01*
X59878808Y-100223449D01*
X59865211Y-100227070D01*
X59851269Y-100229919D01*
X59836982Y-100231996D01*
X59822349Y-100233299D01*
X59807372Y-100233830D01*
X59792049Y-100233588D01*
X59776381Y-100232573D01*
X59760367Y-100230785D01*
X59744009Y-100228224D01*
X59732912Y-100226088D01*
X59714148Y-100221804D01*
X59695813Y-100216865D01*
X59677905Y-100211271D01*
X59660426Y-100205022D01*
X59643376Y-100198119D01*
X59626753Y-100190560D01*
X59610558Y-100182347D01*
X59594792Y-100173478D01*
X59579454Y-100163955D01*
X59564544Y-100153777D01*
X59550063Y-100142944D01*
X59536009Y-100131456D01*
X59522384Y-100119314D01*
X59509187Y-100106516D01*
X59496418Y-100093064D01*
X59484077Y-100078956D01*
X59472294Y-100064322D01*
X59461271Y-100049363D01*
X59451008Y-100034079D01*
X59441505Y-100018469D01*
X59432763Y-100002535D01*
X59424781Y-99986275D01*
X59417559Y-99969690D01*
X59411097Y-99952780D01*
X59405396Y-99935545D01*
X59400454Y-99917985D01*
X59396273Y-99900099D01*
X59392852Y-99881889D01*
X59390192Y-99863353D01*
X59388291Y-99844492D01*
X59387151Y-99825306D01*
X59386771Y-99805795D01*
X59387024Y-99788125D01*
X59387786Y-99770984D01*
X59389056Y-99754370D01*
X59390833Y-99738283D01*
X59393118Y-99722725D01*
X59395910Y-99707694D01*
X59399211Y-99693191D01*
X59403019Y-99679216D01*
X59407335Y-99665769D01*
X59412159Y-99652849D01*
X59417490Y-99640458D01*
X59423329Y-99628594D01*
X59429676Y-99617258D01*
X59436531Y-99606449D01*
X59443893Y-99596169D01*
X59451764Y-99586416D01*
X59460142Y-99577191D01*
X59469027Y-99568494D01*
X59478421Y-99560325D01*
X59488322Y-99552683D01*
X59498731Y-99545569D01*
X59509648Y-99538983D01*
X59521073Y-99532925D01*
X59533005Y-99527395D01*
X59545445Y-99522392D01*
X59558393Y-99517917D01*
X59571848Y-99513970D01*
X59585812Y-99510551D01*
X59600283Y-99507660D01*
X59615262Y-99505296D01*
X59630748Y-99503460D01*
X59646743Y-99502152D01*
G37*
G36*
X59705654Y-99138426D02*
G01*
X59705654Y-98919780D01*
X60193651Y-98909228D01*
X59705654Y-98694099D01*
X59705654Y-98505348D01*
X60531000Y-98900143D01*
X60531000Y-99079808D01*
X59705654Y-99138426D01*
G37*
G36*
X59799443Y-98272341D02*
G01*
X59754307Y-98483073D01*
X59731695Y-98474764D01*
X59709801Y-98466102D01*
X59688624Y-98457087D01*
X59668166Y-98447719D01*
X59648425Y-98437999D01*
X59629402Y-98427926D01*
X59611097Y-98417501D01*
X59593510Y-98406723D01*
X59576641Y-98395593D01*
X59560489Y-98384109D01*
X59545055Y-98372273D01*
X59530340Y-98360085D01*
X59516342Y-98347544D01*
X59503061Y-98334650D01*
X59490499Y-98321404D01*
X59478655Y-98307805D01*
X59467528Y-98293853D01*
X59457119Y-98279549D01*
X59447429Y-98264892D01*
X59438455Y-98249883D01*
X59430200Y-98234521D01*
X59422663Y-98218806D01*
X59415843Y-98202738D01*
X59409742Y-98186318D01*
X59404358Y-98169546D01*
X59399692Y-98152421D01*
X59395744Y-98134943D01*
X59392513Y-98117112D01*
X59390001Y-98098929D01*
X59388206Y-98080393D01*
X59387130Y-98061505D01*
X59386771Y-98042264D01*
X59387142Y-98021663D01*
X59388254Y-98001845D01*
X59390109Y-97982810D01*
X59392706Y-97964558D01*
X59396044Y-97947089D01*
X59400125Y-97930404D01*
X59404947Y-97914501D01*
X59410511Y-97899382D01*
X59416817Y-97885046D01*
X59423865Y-97871492D01*
X59431655Y-97858722D01*
X59440187Y-97846735D01*
X59449460Y-97835531D01*
X59459476Y-97825111D01*
X59470233Y-97815473D01*
X59481732Y-97806618D01*
X59493732Y-97798531D01*
X59506063Y-97791195D01*
X59518727Y-97784609D01*
X59531723Y-97778775D01*
X59545050Y-97773691D01*
X59558710Y-97769359D01*
X59572702Y-97765778D01*
X59587025Y-97762948D01*
X59601681Y-97760869D01*
X59616669Y-97759541D01*
X59631989Y-97758964D01*
X59647640Y-97759138D01*
X59663624Y-97760063D01*
X59679940Y-97761739D01*
X59696588Y-97764166D01*
X59713568Y-97767344D01*
X59731202Y-97771382D01*
X59748789Y-97776169D01*
X59766327Y-97781705D01*
X59783818Y-97787989D01*
X59801260Y-97795022D01*
X59818655Y-97802804D01*
X59836001Y-97811334D01*
X59853299Y-97820614D01*
X59870549Y-97830642D01*
X59887751Y-97841419D01*
X59904905Y-97852944D01*
X59922010Y-97865218D01*
X59939068Y-97878242D01*
X59956078Y-97892013D01*
X59973039Y-97906534D01*
X59989953Y-97921803D01*
X60007021Y-97938111D01*
X60015689Y-97946791D01*
X60024446Y-97955820D01*
X60033292Y-97965200D01*
X60042228Y-97974931D01*
X60051254Y-97985012D01*
X60060368Y-97995443D01*
X60069572Y-98006224D01*
X60078865Y-98017356D01*
X60088247Y-98028838D01*
X60097719Y-98040670D01*
X60107280Y-98052853D01*
X60116930Y-98065386D01*
X60126670Y-98078270D01*
X60136498Y-98091503D01*
X60146417Y-98105087D01*
X60156424Y-98119022D01*
X60166521Y-98133307D01*
X60176707Y-98147942D01*
X60186982Y-98162927D01*
X60197347Y-98178263D01*
X60207801Y-98193949D01*
X60218344Y-98209986D01*
X60228977Y-98226372D01*
X60239699Y-98243109D01*
X60250510Y-98260197D01*
X60261410Y-98277635D01*
X60272400Y-98295423D01*
X60283479Y-98313561D01*
X60294648Y-98332050D01*
X60305905Y-98350889D01*
X60305905Y-97875495D01*
X60531000Y-97939975D01*
X60531000Y-98644567D01*
X60305905Y-98597672D01*
X60289715Y-98575650D01*
X60273826Y-98554134D01*
X60258236Y-98533125D01*
X60242946Y-98512621D01*
X60227956Y-98492623D01*
X60213266Y-98473131D01*
X60198875Y-98454146D01*
X60184785Y-98435666D01*
X60170995Y-98417692D01*
X60157505Y-98400225D01*
X60144315Y-98383263D01*
X60131424Y-98366808D01*
X60118834Y-98350858D01*
X60106544Y-98335415D01*
X60094553Y-98320478D01*
X60082863Y-98306046D01*
X60071472Y-98292121D01*
X60060382Y-98278702D01*
X60049591Y-98265789D01*
X60039101Y-98253381D01*
X60028910Y-98241480D01*
X60019019Y-98230085D01*
X60009428Y-98219196D01*
X60000138Y-98208813D01*
X59991147Y-98198936D01*
X59982456Y-98189565D01*
X59974065Y-98180700D01*
X59958183Y-98164489D01*
X59943501Y-98150301D01*
X59936610Y-98143967D01*
X59923135Y-98132069D01*
X59909746Y-98120776D01*
X59896445Y-98110087D01*
X59883231Y-98100003D01*
X59870104Y-98090523D01*
X59857063Y-98081648D01*
X59844110Y-98073377D01*
X59831244Y-98065711D01*
X59818464Y-98058650D01*
X59805772Y-98052192D01*
X59793167Y-98046340D01*
X59780649Y-98041092D01*
X59768218Y-98036448D01*
X59755873Y-98032409D01*
X59743616Y-98028974D01*
X59731446Y-98026144D01*
X59714694Y-98023069D01*
X59699023Y-98021024D01*
X59684432Y-98020010D01*
X59670923Y-98020026D01*
X59658494Y-98021072D01*
X59641877Y-98024574D01*
X59627692Y-98030394D01*
X59615938Y-98038532D01*
X59606617Y-98048989D01*
X59599727Y-98061764D01*
X59595269Y-98076858D01*
X59593242Y-98094270D01*
X59593107Y-98100589D01*
X59593945Y-98115775D01*
X59596459Y-98130265D01*
X59600649Y-98144058D01*
X59606516Y-98157156D01*
X59614058Y-98169557D01*
X59623277Y-98181263D01*
X59634172Y-98192272D01*
X59643443Y-98200072D01*
X59646743Y-98202585D01*
X59657199Y-98209921D01*
X59668453Y-98217093D01*
X59680506Y-98224100D01*
X59693358Y-98230942D01*
X59707008Y-98237619D01*
X59721457Y-98244131D01*
X59736704Y-98250478D01*
X59752750Y-98256660D01*
X59763891Y-98260690D01*
X59775387Y-98264647D01*
X59787238Y-98268531D01*
X59799443Y-98272341D01*
G37*
D12*
G36*
X102854704Y-77784897D02*
G01*
X102940485Y-77786305D01*
X103023919Y-77788652D01*
X103105006Y-77791938D01*
X103183745Y-77796162D01*
X103260138Y-77801326D01*
X103334184Y-77807428D01*
X103405882Y-77814469D01*
X103475234Y-77822449D01*
X103542238Y-77831368D01*
X103606896Y-77841225D01*
X103669207Y-77852021D01*
X103729170Y-77863757D01*
X103786787Y-77876431D01*
X103842056Y-77890043D01*
X103894979Y-77904595D01*
X103945735Y-77920314D01*
X103994508Y-77937613D01*
X104041295Y-77956493D01*
X104086099Y-77976952D01*
X104128917Y-77998991D01*
X104169752Y-78022610D01*
X104208602Y-78047809D01*
X104245467Y-78074588D01*
X104280348Y-78102947D01*
X104313244Y-78132885D01*
X104344156Y-78164404D01*
X104373084Y-78197503D01*
X104400027Y-78232182D01*
X104424986Y-78268440D01*
X104447960Y-78306279D01*
X104468949Y-78345697D01*
X104487592Y-78386670D01*
X104503525Y-78429354D01*
X104516748Y-78473750D01*
X104527262Y-78519858D01*
X104535067Y-78567677D01*
X104540161Y-78617208D01*
X104542546Y-78668450D01*
X104542222Y-78721404D01*
X104539188Y-78776069D01*
X104533445Y-78832447D01*
X104524992Y-78890535D01*
X104519749Y-78920222D01*
X104513829Y-78950336D01*
X104507231Y-78980878D01*
X104499957Y-79011848D01*
X104492004Y-79043246D01*
X104483375Y-79075071D01*
X104474068Y-79107325D01*
X104464083Y-79140007D01*
X104453422Y-79173116D01*
X104442083Y-79206653D01*
X104424924Y-79254043D01*
X104406725Y-79300775D01*
X104387486Y-79346848D01*
X104367207Y-79392263D01*
X104345888Y-79437019D01*
X104323529Y-79481117D01*
X104300131Y-79524557D01*
X104275692Y-79567339D01*
X104250214Y-79609462D01*
X104223695Y-79650927D01*
X104196137Y-79691734D01*
X104167538Y-79731882D01*
X104137900Y-79771372D01*
X104107222Y-79810204D01*
X104075504Y-79848378D01*
X104042745Y-79885893D01*
X104009382Y-79922501D01*
X103975541Y-79958135D01*
X103941223Y-79992797D01*
X103906427Y-80026485D01*
X103871155Y-80059200D01*
X103835406Y-80090942D01*
X103799180Y-80121711D01*
X103762477Y-80151507D01*
X103725297Y-80180329D01*
X103687639Y-80208179D01*
X103649505Y-80235055D01*
X103610894Y-80260958D01*
X103571805Y-80285888D01*
X103532240Y-80309845D01*
X103492197Y-80332829D01*
X103451678Y-80354839D01*
X103410801Y-80375922D01*
X103369685Y-80396124D01*
X103328330Y-80415444D01*
X103286738Y-80433882D01*
X103244906Y-80451439D01*
X103202836Y-80468114D01*
X103160528Y-80483908D01*
X103117981Y-80498820D01*
X103053713Y-80519535D01*
X102988909Y-80538267D01*
X102923568Y-80555016D01*
X102857691Y-80569780D01*
X102791276Y-80582562D01*
X102769019Y-80586381D01*
X102700912Y-80596857D01*
X102630316Y-80606302D01*
X102581868Y-80612027D01*
X102532313Y-80617293D01*
X102481652Y-80622102D01*
X102429884Y-80626452D01*
X102377009Y-80630345D01*
X102323028Y-80633780D01*
X102267940Y-80636756D01*
X102211745Y-80639275D01*
X102154443Y-80641336D01*
X102096035Y-80642939D01*
X102036519Y-80644084D01*
X101975898Y-80644771D01*
X101914169Y-80645000D01*
X100659982Y-80645000D01*
X100838580Y-80129159D01*
X101926381Y-80129159D01*
X102048503Y-80129159D01*
X102111031Y-80128450D01*
X102171306Y-80126325D01*
X102229327Y-80122783D01*
X102285094Y-80117824D01*
X102338607Y-80111449D01*
X102389865Y-80103656D01*
X102438870Y-80094447D01*
X102485621Y-80083821D01*
X102544449Y-80067449D01*
X102599270Y-80048558D01*
X102651630Y-80026485D01*
X102690298Y-80007405D01*
X102728452Y-79986162D01*
X102766090Y-79962755D01*
X102803213Y-79937184D01*
X102839821Y-79909449D01*
X102875913Y-79879550D01*
X102911491Y-79847487D01*
X102946553Y-79813261D01*
X102981100Y-79776871D01*
X102992501Y-79764260D01*
X103015208Y-79738068D01*
X103037534Y-79710416D01*
X103059477Y-79681304D01*
X103081039Y-79650733D01*
X103102220Y-79618702D01*
X103123019Y-79585211D01*
X103143436Y-79550260D01*
X103163471Y-79513850D01*
X103183125Y-79475980D01*
X103202397Y-79436650D01*
X103221288Y-79395860D01*
X103239797Y-79353611D01*
X103257925Y-79309902D01*
X103275670Y-79264734D01*
X103293034Y-79218105D01*
X103310017Y-79170017D01*
X103324886Y-79125710D01*
X103338353Y-79082731D01*
X103350417Y-79041080D01*
X103361079Y-79000757D01*
X103370338Y-78961762D01*
X103378195Y-78924095D01*
X103384649Y-78887756D01*
X103389701Y-78852745D01*
X103393351Y-78819063D01*
X103395597Y-78786708D01*
X103396442Y-78755682D01*
X103395884Y-78725983D01*
X103392417Y-78683926D01*
X103385794Y-78644857D01*
X103379626Y-78620471D01*
X103368442Y-78585982D01*
X103355498Y-78553683D01*
X103340793Y-78523574D01*
X103324328Y-78495655D01*
X103299637Y-78461835D01*
X103271816Y-78431907D01*
X103240866Y-78405873D01*
X103206786Y-78383731D01*
X103169577Y-78365481D01*
X103117497Y-78346694D01*
X103070079Y-78333957D01*
X103017548Y-78323258D01*
X102959903Y-78314597D01*
X102897144Y-78307974D01*
X102846719Y-78304344D01*
X102793417Y-78301860D01*
X102737239Y-78300523D01*
X102698189Y-78300268D01*
X102560191Y-78300268D01*
X101926381Y-80129159D01*
X100838580Y-80129159D01*
X101650387Y-77784427D01*
X102766577Y-77784427D01*
X102854704Y-77784897D01*
G37*
G36*
X105582697Y-77784427D02*
G01*
X106670799Y-77784427D01*
X105680394Y-80645000D01*
X104592292Y-80645000D01*
X105582697Y-77784427D01*
G37*
G36*
X110156144Y-78427030D02*
G01*
X109182836Y-78637323D01*
X109173133Y-78596508D01*
X109160511Y-78558326D01*
X109144969Y-78522777D01*
X109126508Y-78489862D01*
X109105127Y-78459579D01*
X109080827Y-78431930D01*
X109053607Y-78406915D01*
X109007303Y-78374328D01*
X108954431Y-78347667D01*
X108894990Y-78326930D01*
X108828980Y-78312118D01*
X108781324Y-78305535D01*
X108730748Y-78301585D01*
X108677254Y-78300268D01*
X108626325Y-78301379D01*
X108577343Y-78304710D01*
X108518852Y-78311998D01*
X108463403Y-78322757D01*
X108410994Y-78336985D01*
X108361627Y-78354685D01*
X108324323Y-78371343D01*
X108282033Y-78393879D01*
X108245230Y-78417525D01*
X108213912Y-78442279D01*
X108188081Y-78468143D01*
X108167735Y-78495116D01*
X108152876Y-78523198D01*
X108148468Y-78534741D01*
X108140805Y-78566272D01*
X108140716Y-78595835D01*
X108150605Y-78628714D01*
X108171399Y-78658758D01*
X108203098Y-78685970D01*
X108230289Y-78702536D01*
X108275148Y-78723692D01*
X108322327Y-78742393D01*
X108364298Y-78757456D01*
X108411915Y-78773408D01*
X108465177Y-78790249D01*
X108524085Y-78807978D01*
X108588639Y-78826596D01*
X108634812Y-78839502D01*
X108683493Y-78852803D01*
X108734684Y-78866498D01*
X108788384Y-78880589D01*
X108839250Y-78893323D01*
X108888657Y-78906063D01*
X108936604Y-78918808D01*
X108983091Y-78931560D01*
X109028119Y-78944317D01*
X109092923Y-78963463D01*
X109154443Y-78982622D01*
X109212678Y-79001793D01*
X109267629Y-79020978D01*
X109319296Y-79040176D01*
X109367678Y-79059386D01*
X109412776Y-79078610D01*
X109427079Y-79085020D01*
X109468334Y-79104780D01*
X109507379Y-79125867D01*
X109544212Y-79148281D01*
X109578834Y-79172021D01*
X109611245Y-79197087D01*
X109641445Y-79223480D01*
X109669434Y-79251200D01*
X109695212Y-79280247D01*
X109718779Y-79310620D01*
X109740134Y-79342320D01*
X109753143Y-79364190D01*
X109770549Y-79397783D01*
X109784756Y-79432342D01*
X109795765Y-79467868D01*
X109803576Y-79504359D01*
X109808187Y-79541816D01*
X109809601Y-79580239D01*
X109807815Y-79619628D01*
X109802831Y-79659983D01*
X109794649Y-79701305D01*
X109783268Y-79743592D01*
X109773904Y-79772320D01*
X109754932Y-79822131D01*
X109732821Y-79870815D01*
X109707572Y-79918370D01*
X109679183Y-79964798D01*
X109647656Y-80010099D01*
X109612990Y-80054271D01*
X109575185Y-80097316D01*
X109534241Y-80139234D01*
X109490158Y-80180023D01*
X109442936Y-80219685D01*
X109392575Y-80258219D01*
X109339075Y-80295625D01*
X109282437Y-80331904D01*
X109222659Y-80367055D01*
X109159743Y-80401078D01*
X109093688Y-80433974D01*
X109025376Y-80465206D01*
X108955385Y-80494424D01*
X108883715Y-80521626D01*
X108810366Y-80546814D01*
X108735338Y-80569986D01*
X108658630Y-80591144D01*
X108580243Y-80610286D01*
X108500177Y-80627414D01*
X108418432Y-80642527D01*
X108335008Y-80655624D01*
X108249905Y-80666707D01*
X108163122Y-80675774D01*
X108074661Y-80682827D01*
X107984520Y-80687864D01*
X107892700Y-80690887D01*
X107799200Y-80691894D01*
X107720233Y-80691091D01*
X107643615Y-80688680D01*
X107569346Y-80684662D01*
X107497427Y-80679037D01*
X107427857Y-80671805D01*
X107360637Y-80662966D01*
X107295766Y-80652519D01*
X107233244Y-80640466D01*
X107173072Y-80626805D01*
X107115249Y-80611537D01*
X107059776Y-80594662D01*
X107006652Y-80576180D01*
X106955877Y-80556091D01*
X106907452Y-80534395D01*
X106861376Y-80511091D01*
X106817650Y-80486181D01*
X106776273Y-80459663D01*
X106737245Y-80431538D01*
X106700567Y-80401806D01*
X106666238Y-80370467D01*
X106634259Y-80337520D01*
X106604629Y-80302967D01*
X106577348Y-80266806D01*
X106552417Y-80229039D01*
X106529835Y-80189664D01*
X106509603Y-80148682D01*
X106491720Y-80106093D01*
X106476187Y-80061896D01*
X106463002Y-80016093D01*
X106452168Y-79968682D01*
X106443682Y-79919665D01*
X106437547Y-79869040D01*
X107449933Y-79699780D01*
X107453802Y-79751775D01*
X107461745Y-79800415D01*
X107473761Y-79845701D01*
X107489852Y-79887633D01*
X107510016Y-79926210D01*
X107534254Y-79961432D01*
X107562566Y-79993300D01*
X107594952Y-80021814D01*
X107631412Y-80046973D01*
X107671946Y-80068777D01*
X107716554Y-80087227D01*
X107765235Y-80102322D01*
X107817991Y-80114063D01*
X107874820Y-80122450D01*
X107935724Y-80127481D01*
X108000701Y-80129159D01*
X108062181Y-80127956D01*
X108121448Y-80124350D01*
X108178502Y-80118339D01*
X108233342Y-80109924D01*
X108285969Y-80099105D01*
X108336382Y-80085882D01*
X108384582Y-80070254D01*
X108430568Y-80052222D01*
X108473597Y-80032084D01*
X108512313Y-80010502D01*
X108546717Y-79987479D01*
X108576809Y-79963012D01*
X108602588Y-79937104D01*
X108624054Y-79909752D01*
X108641209Y-79880958D01*
X108654050Y-79850722D01*
X108662050Y-79816796D01*
X108662236Y-79784261D01*
X108654609Y-79753117D01*
X108639167Y-79723364D01*
X108615911Y-79695003D01*
X108606423Y-79685858D01*
X108574933Y-79662795D01*
X108529310Y-79638946D01*
X108482637Y-79619300D01*
X108426919Y-79599150D01*
X108379195Y-79583707D01*
X108326383Y-79567980D01*
X108268484Y-79551970D01*
X108205497Y-79535677D01*
X108160680Y-79524658D01*
X108100320Y-79510083D01*
X108041974Y-79495669D01*
X107985641Y-79481415D01*
X107931321Y-79467322D01*
X107879014Y-79453388D01*
X107828720Y-79439615D01*
X107780439Y-79426003D01*
X107734171Y-79412550D01*
X107689916Y-79399258D01*
X107627309Y-79379620D01*
X107569231Y-79360343D01*
X107515682Y-79341427D01*
X107466663Y-79322871D01*
X107436500Y-79310701D01*
X107393838Y-79291825D01*
X107353324Y-79271468D01*
X107314956Y-79249630D01*
X107278734Y-79226311D01*
X107244659Y-79201511D01*
X107212731Y-79175229D01*
X107182950Y-79147466D01*
X107155315Y-79118222D01*
X107129827Y-79087497D01*
X107106486Y-79055291D01*
X107092117Y-79032997D01*
X107073173Y-78998500D01*
X107057556Y-78963153D01*
X107045266Y-78926956D01*
X107036304Y-78889909D01*
X107030669Y-78852011D01*
X107028361Y-78813264D01*
X107029381Y-78773667D01*
X107033728Y-78733219D01*
X107041402Y-78691922D01*
X107052404Y-78649774D01*
X107061587Y-78621203D01*
X107079776Y-78573384D01*
X107100761Y-78526647D01*
X107124542Y-78480992D01*
X107151117Y-78436418D01*
X107180489Y-78392927D01*
X107212655Y-78350517D01*
X107247617Y-78309190D01*
X107285375Y-78268944D01*
X107325927Y-78229780D01*
X107369276Y-78191698D01*
X107415420Y-78154698D01*
X107464359Y-78118780D01*
X107516093Y-78083944D01*
X107570624Y-78050190D01*
X107627949Y-78017518D01*
X107688070Y-77985928D01*
X107750285Y-77955849D01*
X107813893Y-77927710D01*
X107878894Y-77901512D01*
X107945288Y-77877255D01*
X108013075Y-77854938D01*
X108082255Y-77834562D01*
X108152828Y-77816126D01*
X108224794Y-77799631D01*
X108298152Y-77785077D01*
X108372904Y-77772463D01*
X108449049Y-77761790D01*
X108526586Y-77753057D01*
X108605517Y-77746265D01*
X108685840Y-77741414D01*
X108767557Y-77738503D01*
X108850666Y-77737533D01*
X108926547Y-77738206D01*
X109000165Y-77740226D01*
X109071518Y-77743593D01*
X109140609Y-77748306D01*
X109207436Y-77754366D01*
X109271999Y-77761773D01*
X109334299Y-77770526D01*
X109394335Y-77780626D01*
X109452108Y-77792073D01*
X109507617Y-77804866D01*
X109560863Y-77819006D01*
X109611845Y-77834493D01*
X109660564Y-77851327D01*
X109707019Y-77869507D01*
X109751210Y-77889034D01*
X109793138Y-77909907D01*
X109832802Y-77932127D01*
X109870203Y-77955694D01*
X109905341Y-77980607D01*
X109938214Y-78006868D01*
X109968825Y-78034474D01*
X109997171Y-78063428D01*
X110023255Y-78093728D01*
X110047074Y-78125375D01*
X110068630Y-78158369D01*
X110087923Y-78192709D01*
X110104952Y-78228396D01*
X110119717Y-78265429D01*
X110132219Y-78303809D01*
X110142458Y-78343536D01*
X110150433Y-78384610D01*
X110156144Y-78427030D01*
G37*
G36*
X112490290Y-77784679D02*
G01*
X112562947Y-77785435D01*
X112633363Y-77786694D01*
X112701536Y-77788457D01*
X112767467Y-77790724D01*
X112831156Y-77793495D01*
X112892604Y-77796769D01*
X112951809Y-77800547D01*
X113008772Y-77804829D01*
X113063492Y-77809615D01*
X113115971Y-77814904D01*
X113166208Y-77820697D01*
X113214203Y-77826994D01*
X113281991Y-77837384D01*
X113344734Y-77848907D01*
X113403496Y-77862427D01*
X113459338Y-77878806D01*
X113512260Y-77898045D01*
X113562263Y-77920142D01*
X113609347Y-77945099D01*
X113653511Y-77972916D01*
X113694755Y-78003592D01*
X113733080Y-78037127D01*
X113768486Y-78073522D01*
X113800972Y-78112776D01*
X113821008Y-78140533D01*
X113839340Y-78169244D01*
X113855564Y-78198774D01*
X113869680Y-78229122D01*
X113881687Y-78260289D01*
X113891585Y-78292274D01*
X113899375Y-78325078D01*
X113905057Y-78358700D01*
X113908630Y-78393142D01*
X113910094Y-78428401D01*
X113909450Y-78464480D01*
X113906698Y-78501376D01*
X113901837Y-78539092D01*
X113894867Y-78577626D01*
X113885789Y-78616979D01*
X113874603Y-78657150D01*
X113861308Y-78698140D01*
X113847140Y-78737106D01*
X113831808Y-78775237D01*
X113815312Y-78812531D01*
X113797652Y-78848990D01*
X113778828Y-78884613D01*
X113758840Y-78919401D01*
X113737689Y-78953353D01*
X113715373Y-78986468D01*
X113691893Y-79018749D01*
X113667249Y-79050193D01*
X113641442Y-79080802D01*
X113614470Y-79110574D01*
X113586334Y-79139511D01*
X113557035Y-79167613D01*
X113526571Y-79194878D01*
X113494944Y-79221308D01*
X113462333Y-79246779D01*
X113428922Y-79271351D01*
X113394709Y-79295024D01*
X113359694Y-79317799D01*
X113323878Y-79339675D01*
X113287261Y-79360652D01*
X113249842Y-79380731D01*
X113211622Y-79399911D01*
X113172600Y-79418192D01*
X113132777Y-79435574D01*
X113092153Y-79452057D01*
X113050727Y-79467642D01*
X112987086Y-79489334D01*
X112921641Y-79509004D01*
X112877009Y-79520994D01*
X112830751Y-79532174D01*
X112782041Y-79542632D01*
X112730879Y-79552370D01*
X112677264Y-79561386D01*
X112621198Y-79569680D01*
X112562680Y-79577254D01*
X112501710Y-79584106D01*
X112438288Y-79590237D01*
X112372414Y-79595646D01*
X112304088Y-79600335D01*
X112233310Y-79604302D01*
X112160080Y-79607547D01*
X112084398Y-79610072D01*
X112006264Y-79611875D01*
X111925679Y-79612957D01*
X111842641Y-79613318D01*
X111519019Y-79613318D01*
X111161203Y-80645000D01*
X110073101Y-80645000D01*
X110608894Y-79097477D01*
X111697316Y-79097477D01*
X111962320Y-79097477D01*
X112033925Y-79096492D01*
X112101281Y-79093536D01*
X112164385Y-79088609D01*
X112223240Y-79081712D01*
X112277844Y-79072844D01*
X112328198Y-79062005D01*
X112374301Y-79049196D01*
X112429160Y-79029052D01*
X112476463Y-79005404D01*
X112506981Y-78985369D01*
X112543484Y-78956026D01*
X112577278Y-78924415D01*
X112608361Y-78890538D01*
X112629896Y-78863643D01*
X112649906Y-78835472D01*
X112668393Y-78806026D01*
X112685355Y-78775305D01*
X112700793Y-78743309D01*
X112714707Y-78710038D01*
X112723136Y-78687149D01*
X112734890Y-78649665D01*
X112743286Y-78614151D01*
X112748324Y-78580606D01*
X112750003Y-78549030D01*
X112748324Y-78519423D01*
X112741502Y-78485183D01*
X112729433Y-78454021D01*
X112723136Y-78442418D01*
X112701312Y-78410415D01*
X112676139Y-78383101D01*
X112642537Y-78357160D01*
X112604378Y-78337600D01*
X112568042Y-78325914D01*
X112518796Y-78315921D01*
X112467935Y-78309309D01*
X112419450Y-78305177D01*
X112365419Y-78302297D01*
X112305844Y-78300669D01*
X112254190Y-78300268D01*
X111973311Y-78300268D01*
X111697316Y-79097477D01*
X110608894Y-79097477D01*
X111063506Y-77784427D01*
X112415390Y-77784427D01*
X112490290Y-77784679D01*
G37*
G36*
X114639221Y-77784427D02*
G01*
X115727323Y-77784427D01*
X114931092Y-80082264D01*
X116408761Y-80082264D01*
X116214588Y-80645000D01*
X113648817Y-80645000D01*
X114639221Y-77784427D01*
G37*
G36*
X119852585Y-80645000D02*
G01*
X118741280Y-80645000D01*
X118724183Y-80035369D01*
X117496863Y-80035369D01*
X117060889Y-80645000D01*
X116043618Y-80645000D01*
X116984874Y-79519528D01*
X117886430Y-79519528D01*
X118692431Y-79519528D01*
X118632592Y-78513492D01*
X117886430Y-79519528D01*
X116984874Y-79519528D01*
X118435976Y-77784427D01*
X119511866Y-77784427D01*
X119852585Y-80645000D01*
G37*
G36*
X120461971Y-77784427D02*
G01*
X121651434Y-77784427D01*
X121932313Y-78769214D01*
X122937372Y-77784427D01*
X124016926Y-77784427D01*
X122143583Y-79441859D01*
X121727149Y-80645000D01*
X120640268Y-80645000D01*
X121059145Y-79432334D01*
X120461971Y-77784427D01*
G37*
G36*
X99267274Y-76314958D02*
G01*
X100263785Y-76353792D01*
X100249364Y-76384600D01*
X100234343Y-76415018D01*
X100218720Y-76445045D01*
X100202496Y-76474681D01*
X100185670Y-76503926D01*
X100168244Y-76532781D01*
X100150217Y-76561245D01*
X100131589Y-76589319D01*
X100112359Y-76617001D01*
X100092529Y-76644293D01*
X100072098Y-76671195D01*
X100051065Y-76697705D01*
X100007197Y-76749554D01*
X99960924Y-76799841D01*
X99912247Y-76848564D01*
X99861166Y-76895725D01*
X99807681Y-76941323D01*
X99751791Y-76985358D01*
X99693497Y-77027831D01*
X99632799Y-77068741D01*
X99569697Y-77108088D01*
X99504190Y-77145872D01*
X99436933Y-77181718D01*
X99368273Y-77215252D01*
X99298210Y-77246473D01*
X99226745Y-77275382D01*
X99153878Y-77301977D01*
X99079608Y-77326260D01*
X99003936Y-77348231D01*
X98926861Y-77367889D01*
X98848384Y-77385234D01*
X98768504Y-77400266D01*
X98687222Y-77412986D01*
X98604537Y-77423393D01*
X98520449Y-77431487D01*
X98434960Y-77437269D01*
X98348067Y-77440738D01*
X98259773Y-77441894D01*
X98205891Y-77441507D01*
X98153088Y-77440346D01*
X98101363Y-77438410D01*
X98050716Y-77435700D01*
X98001147Y-77432216D01*
X97952656Y-77427958D01*
X97858909Y-77417119D01*
X97769474Y-77403183D01*
X97684352Y-77386150D01*
X97603542Y-77366020D01*
X97527044Y-77342793D01*
X97454859Y-77316469D01*
X97386986Y-77287048D01*
X97323426Y-77254530D01*
X97264178Y-77218916D01*
X97209242Y-77180204D01*
X97158619Y-77138396D01*
X97112308Y-77093490D01*
X97070310Y-77045488D01*
X97032791Y-76994718D01*
X96999613Y-76941692D01*
X96970776Y-76886411D01*
X96957986Y-76857925D01*
X96946280Y-76828875D01*
X96935660Y-76799261D01*
X96926126Y-76769083D01*
X96917676Y-76738342D01*
X96910312Y-76707036D01*
X96904033Y-76675167D01*
X96898839Y-76642733D01*
X96894731Y-76609736D01*
X96891707Y-76576175D01*
X96889769Y-76542051D01*
X96888917Y-76507362D01*
X96889149Y-76472109D01*
X96890467Y-76436293D01*
X96892870Y-76399913D01*
X96896359Y-76362969D01*
X96900932Y-76325461D01*
X96906591Y-76287389D01*
X96913335Y-76248753D01*
X96921164Y-76209553D01*
X96930079Y-76169790D01*
X96940079Y-76129463D01*
X96951164Y-76088572D01*
X96963335Y-76047117D01*
X96976590Y-76005098D01*
X96990931Y-75962515D01*
X97006152Y-75919711D01*
X97022048Y-75877487D01*
X97038619Y-75835843D01*
X97055865Y-75794778D01*
X97073786Y-75754292D01*
X97092383Y-75714386D01*
X97111654Y-75675060D01*
X97131600Y-75636314D01*
X97152221Y-75598147D01*
X97173517Y-75560559D01*
X97195488Y-75523551D01*
X97218134Y-75487123D01*
X97241455Y-75451275D01*
X97265451Y-75416006D01*
X97290123Y-75381316D01*
X97315469Y-75347206D01*
X97341490Y-75313676D01*
X97368186Y-75280726D01*
X97395557Y-75248355D01*
X97423603Y-75216563D01*
X97452325Y-75185351D01*
X97481721Y-75154719D01*
X97511792Y-75124667D01*
X97542538Y-75095194D01*
X97573960Y-75066300D01*
X97606056Y-75037986D01*
X97638827Y-75010252D01*
X97672273Y-74983098D01*
X97706394Y-74956523D01*
X97741191Y-74930527D01*
X97776662Y-74905111D01*
X97812808Y-74880275D01*
X97849659Y-74856112D01*
X97887092Y-74832716D01*
X97925108Y-74810088D01*
X97963705Y-74788226D01*
X98002884Y-74767132D01*
X98042645Y-74746804D01*
X98082988Y-74727244D01*
X98123913Y-74708450D01*
X98165420Y-74690424D01*
X98207509Y-74673165D01*
X98250179Y-74656673D01*
X98293432Y-74640948D01*
X98337267Y-74625990D01*
X98381684Y-74611799D01*
X98426683Y-74598375D01*
X98472264Y-74585718D01*
X98518427Y-74573829D01*
X98565172Y-74562706D01*
X98612498Y-74552351D01*
X98660407Y-74542762D01*
X98708898Y-74533941D01*
X98757971Y-74525886D01*
X98807626Y-74518599D01*
X98857862Y-74512079D01*
X98908681Y-74506326D01*
X98960082Y-74501340D01*
X99012065Y-74497121D01*
X99064629Y-74493669D01*
X99117776Y-74490984D01*
X99171505Y-74489067D01*
X99225815Y-74487916D01*
X99280708Y-74487533D01*
X99371517Y-74488636D01*
X99458929Y-74491946D01*
X99542944Y-74497463D01*
X99623564Y-74505187D01*
X99700786Y-74515117D01*
X99774613Y-74527255D01*
X99845042Y-74541599D01*
X99912076Y-74558149D01*
X99975712Y-74576907D01*
X100035952Y-74597871D01*
X100092796Y-74621042D01*
X100146243Y-74646420D01*
X100196294Y-74674005D01*
X100242948Y-74703796D01*
X100286206Y-74735795D01*
X100326067Y-74770000D01*
X100362532Y-74806411D01*
X100395600Y-74845030D01*
X100425272Y-74885855D01*
X100451547Y-74928887D01*
X100474426Y-74974126D01*
X100493908Y-75021572D01*
X100509994Y-75071224D01*
X100522683Y-75123083D01*
X100531975Y-75177149D01*
X100537872Y-75233422D01*
X100540371Y-75291901D01*
X100539474Y-75352587D01*
X100535181Y-75415480D01*
X100527491Y-75480580D01*
X100516405Y-75547887D01*
X100501922Y-75617400D01*
X99485872Y-75662096D01*
X99496074Y-75624455D01*
X99504853Y-75588008D01*
X99512208Y-75552756D01*
X99518139Y-75518699D01*
X99522645Y-75485837D01*
X99525728Y-75454170D01*
X99527387Y-75423699D01*
X99526433Y-75366340D01*
X99519783Y-75313761D01*
X99507437Y-75265962D01*
X99489396Y-75222942D01*
X99465659Y-75184703D01*
X99436225Y-75151244D01*
X99401096Y-75122564D01*
X99360272Y-75098665D01*
X99313751Y-75079545D01*
X99261535Y-75065205D01*
X99203622Y-75055646D01*
X99140014Y-75050866D01*
X99106074Y-75050268D01*
X99050873Y-75051968D01*
X98996551Y-75057069D01*
X98943110Y-75065570D01*
X98890549Y-75077471D01*
X98838868Y-75092772D01*
X98788067Y-75111474D01*
X98738146Y-75133576D01*
X98689106Y-75159078D01*
X98640945Y-75187981D01*
X98593665Y-75220284D01*
X98562634Y-75243709D01*
X98531984Y-75269363D01*
X98501707Y-75297965D01*
X98471801Y-75329515D01*
X98442268Y-75364013D01*
X98413107Y-75401460D01*
X98384317Y-75441854D01*
X98355900Y-75485197D01*
X98327855Y-75531488D01*
X98300182Y-75580726D01*
X98272882Y-75632913D01*
X98245953Y-75688048D01*
X98232628Y-75716721D01*
X98219396Y-75746131D01*
X98206258Y-75776278D01*
X98193212Y-75807162D01*
X98180259Y-75838784D01*
X98167399Y-75871142D01*
X98154633Y-75904237D01*
X98141959Y-75938069D01*
X98129378Y-75972638D01*
X98116891Y-76007944D01*
X98106167Y-76039362D01*
X98095977Y-76070143D01*
X98086322Y-76100287D01*
X98077201Y-76129795D01*
X98068615Y-76158665D01*
X98053044Y-76214496D01*
X98039611Y-76267779D01*
X98028314Y-76318515D01*
X98019155Y-76366703D01*
X98012133Y-76412344D01*
X98007248Y-76455438D01*
X98004501Y-76495984D01*
X98003890Y-76533983D01*
X98005417Y-76569434D01*
X98009080Y-76602338D01*
X98014881Y-76632695D01*
X98027589Y-76673454D01*
X98038733Y-76697442D01*
X98059169Y-76729917D01*
X98083384Y-76759197D01*
X98111376Y-76785283D01*
X98143147Y-76808176D01*
X98191385Y-76833729D01*
X98246339Y-76853605D01*
X98291963Y-76864785D01*
X98341365Y-76872770D01*
X98394545Y-76877561D01*
X98451503Y-76879159D01*
X98515798Y-76876955D01*
X98578319Y-76870343D01*
X98639065Y-76859323D01*
X98698036Y-76843896D01*
X98755233Y-76824061D01*
X98810655Y-76799818D01*
X98864302Y-76771167D01*
X98916175Y-76738108D01*
X98966274Y-76700642D01*
X99014598Y-76658768D01*
X99061147Y-76612485D01*
X99105922Y-76561796D01*
X99127643Y-76534798D01*
X99148922Y-76506698D01*
X99169756Y-76477496D01*
X99190147Y-76447192D01*
X99210094Y-76415787D01*
X99229598Y-76383279D01*
X99248658Y-76349669D01*
X99267274Y-76314958D01*
G37*
G36*
X103728370Y-77395000D02*
G01*
X102617065Y-77395000D01*
X102599968Y-76785369D01*
X101372648Y-76785369D01*
X100936674Y-77395000D01*
X99919403Y-77395000D01*
X100860660Y-76269528D01*
X101762215Y-76269528D01*
X102568217Y-76269528D01*
X102508377Y-75263492D01*
X101762215Y-76269528D01*
X100860660Y-76269528D01*
X102311762Y-74534427D01*
X103387651Y-74534427D01*
X103728370Y-77395000D01*
G37*
G36*
X104520938Y-74534427D02*
G01*
X107460401Y-74534427D01*
X107266228Y-75097163D01*
X106328335Y-75097163D01*
X105532103Y-77395000D01*
X104446444Y-77395000D01*
X105242676Y-75097163D01*
X104326765Y-75097163D01*
X104520938Y-74534427D01*
G37*
G36*
X107713192Y-74534427D02*
G01*
X108801294Y-74534427D01*
X108411727Y-75659898D01*
X109432662Y-75659898D01*
X109822229Y-74534427D01*
X110910331Y-74534427D01*
X109919926Y-77395000D01*
X108831824Y-77395000D01*
X109238489Y-76222634D01*
X108217554Y-76222634D01*
X107810889Y-77395000D01*
X106722787Y-77395000D01*
X107713192Y-74534427D01*
G37*
G36*
X113361859Y-74487898D02*
G01*
X113412666Y-74488995D01*
X113462437Y-74490823D01*
X113511174Y-74493383D01*
X113605541Y-74500696D01*
X113695768Y-74510934D01*
X113781854Y-74524098D01*
X113863799Y-74540186D01*
X113941604Y-74559200D01*
X114015268Y-74581139D01*
X114084792Y-74606003D01*
X114150174Y-74633792D01*
X114211416Y-74664507D01*
X114268517Y-74698146D01*
X114321478Y-74734711D01*
X114370298Y-74774201D01*
X114414977Y-74816616D01*
X114455516Y-74861957D01*
X114491933Y-74910074D01*
X114523942Y-74961001D01*
X114551543Y-75014739D01*
X114574737Y-75071288D01*
X114584681Y-75100617D01*
X114593523Y-75130648D01*
X114601263Y-75161382D01*
X114607901Y-75192818D01*
X114613437Y-75224957D01*
X114617871Y-75257799D01*
X114621203Y-75291344D01*
X114623433Y-75325591D01*
X114624561Y-75360541D01*
X114624587Y-75396193D01*
X114623512Y-75432549D01*
X114621334Y-75469606D01*
X114618054Y-75507367D01*
X114613673Y-75545830D01*
X114608189Y-75584996D01*
X114601604Y-75624865D01*
X114593916Y-75665436D01*
X114585127Y-75706710D01*
X114575235Y-75748687D01*
X114564242Y-75791366D01*
X114552147Y-75834748D01*
X114538950Y-75878832D01*
X114524650Y-75923620D01*
X114509249Y-75969110D01*
X114476265Y-76059721D01*
X114440966Y-76147455D01*
X114403354Y-76232312D01*
X114363429Y-76314294D01*
X114321189Y-76393398D01*
X114276637Y-76469626D01*
X114229770Y-76542978D01*
X114180590Y-76613453D01*
X114129096Y-76681051D01*
X114075289Y-76745773D01*
X114019168Y-76807619D01*
X113960733Y-76866588D01*
X113899985Y-76922680D01*
X113836923Y-76975896D01*
X113771548Y-77026235D01*
X113703859Y-77073698D01*
X113633856Y-77118284D01*
X113561539Y-77159994D01*
X113486909Y-77198827D01*
X113409966Y-77234784D01*
X113330708Y-77267864D01*
X113249138Y-77298068D01*
X113165253Y-77325395D01*
X113079055Y-77349845D01*
X112990543Y-77371419D01*
X112899718Y-77390117D01*
X112806579Y-77405937D01*
X112711126Y-77418882D01*
X112613360Y-77428950D01*
X112513280Y-77436141D01*
X112410886Y-77440456D01*
X112306179Y-77441894D01*
X112253518Y-77441522D01*
X112201932Y-77440406D01*
X112151422Y-77438545D01*
X112101988Y-77435941D01*
X112006347Y-77428499D01*
X111915009Y-77418080D01*
X111827973Y-77404685D01*
X111745241Y-77388313D01*
X111666811Y-77368965D01*
X111592684Y-77346639D01*
X111522861Y-77321337D01*
X111457340Y-77293059D01*
X111396121Y-77261803D01*
X111339206Y-77227571D01*
X111286594Y-77190362D01*
X111238284Y-77150177D01*
X111194278Y-77107014D01*
X111154574Y-77060875D01*
X111119173Y-77011920D01*
X111088075Y-76960308D01*
X111061280Y-76906041D01*
X111038787Y-76849117D01*
X111029155Y-76819659D01*
X111020598Y-76789537D01*
X111013117Y-76758751D01*
X111006711Y-76727301D01*
X111001382Y-76695186D01*
X110997128Y-76662408D01*
X110993950Y-76628966D01*
X110991847Y-76594860D01*
X110990997Y-76566066D01*
X112105445Y-76566066D01*
X112106094Y-76600229D01*
X112108756Y-76631554D01*
X112116523Y-76673216D01*
X112124218Y-76697442D01*
X112139388Y-76729917D01*
X112158336Y-76759197D01*
X112181062Y-76785283D01*
X112217240Y-76815096D01*
X112260135Y-76839231D01*
X112309747Y-76857686D01*
X112366076Y-76870463D01*
X112429121Y-76877561D01*
X112480812Y-76879159D01*
X112534536Y-76877587D01*
X112586715Y-76872873D01*
X112637347Y-76865016D01*
X112686434Y-76854017D01*
X112733976Y-76839875D01*
X112779972Y-76822590D01*
X112824422Y-76802162D01*
X112867327Y-76778592D01*
X112908686Y-76751879D01*
X112948499Y-76722023D01*
X112974183Y-76700373D01*
X113012129Y-76663476D01*
X113037355Y-76635129D01*
X113062523Y-76603781D01*
X113087634Y-76569435D01*
X113112688Y-76532089D01*
X113137685Y-76491743D01*
X113162624Y-76448397D01*
X113187507Y-76402052D01*
X113212332Y-76352707D01*
X113237099Y-76300363D01*
X113261810Y-76245019D01*
X113274144Y-76216222D01*
X113286463Y-76186676D01*
X113298768Y-76156379D01*
X113311059Y-76125333D01*
X113323336Y-76093536D01*
X113335598Y-76060990D01*
X113347846Y-76027694D01*
X113360080Y-75993648D01*
X113372299Y-75958852D01*
X113384096Y-75924375D01*
X113395368Y-75890645D01*
X113406116Y-75857662D01*
X113416339Y-75825426D01*
X113426037Y-75793938D01*
X113435210Y-75763196D01*
X113443859Y-75733201D01*
X113451983Y-75703954D01*
X113466657Y-75647700D01*
X113479231Y-75594434D01*
X113489707Y-75544156D01*
X113498084Y-75496866D01*
X113504362Y-75452565D01*
X113508541Y-75411251D01*
X113510620Y-75372926D01*
X113510601Y-75337589D01*
X113508483Y-75305241D01*
X113504266Y-75275880D01*
X113494005Y-75237442D01*
X113489535Y-75226123D01*
X113473722Y-75194696D01*
X113454216Y-75166360D01*
X113422464Y-75133387D01*
X113384148Y-75105910D01*
X113339269Y-75083928D01*
X113287825Y-75067441D01*
X113229818Y-75056451D01*
X113165246Y-75050955D01*
X113130498Y-75050268D01*
X113076567Y-75051859D01*
X113024224Y-75056631D01*
X112973470Y-75064584D01*
X112924304Y-75075719D01*
X112876727Y-75090035D01*
X112830738Y-75107533D01*
X112786338Y-75128211D01*
X112743526Y-75152072D01*
X112702303Y-75179113D01*
X112662668Y-75209336D01*
X112637128Y-75231252D01*
X112599629Y-75268490D01*
X112574690Y-75296987D01*
X112549798Y-75328420D01*
X112524954Y-75362789D01*
X112500158Y-75400095D01*
X112475409Y-75440338D01*
X112450708Y-75483518D01*
X112426055Y-75529634D01*
X112401449Y-75578686D01*
X112376891Y-75630676D01*
X112352381Y-75685602D01*
X112340144Y-75714166D01*
X112327919Y-75743464D01*
X112315705Y-75773497D01*
X112303504Y-75804264D01*
X112291314Y-75835765D01*
X112279137Y-75868000D01*
X112266971Y-75900969D01*
X112254817Y-75934672D01*
X112242676Y-75969110D01*
X112231173Y-76002873D01*
X112220174Y-76035925D01*
X112209678Y-76068269D01*
X112199685Y-76099902D01*
X112190196Y-76130825D01*
X112181210Y-76161039D01*
X112172727Y-76190543D01*
X112157271Y-76247421D01*
X112143828Y-76301459D01*
X112132398Y-76352659D01*
X112122981Y-76401019D01*
X112115578Y-76446540D01*
X112110187Y-76489221D01*
X112106810Y-76529063D01*
X112105445Y-76566066D01*
X110990997Y-76566066D01*
X110990820Y-76560090D01*
X110990869Y-76524655D01*
X110991994Y-76488557D01*
X110994194Y-76451795D01*
X110997470Y-76414368D01*
X111001822Y-76376278D01*
X111007249Y-76337523D01*
X111013753Y-76298105D01*
X111021331Y-76258022D01*
X111029986Y-76217276D01*
X111039716Y-76175865D01*
X111050523Y-76133790D01*
X111062404Y-76091052D01*
X111075362Y-76047649D01*
X111089395Y-76003582D01*
X111104504Y-75958852D01*
X111137565Y-75868331D01*
X111172940Y-75780684D01*
X111210628Y-75695911D01*
X111250630Y-75614011D01*
X111292946Y-75534985D01*
X111337575Y-75458833D01*
X111384517Y-75385554D01*
X111433774Y-75315150D01*
X111485344Y-75247618D01*
X111539228Y-75182961D01*
X111595425Y-75121177D01*
X111653936Y-75062267D01*
X111714761Y-75006230D01*
X111777899Y-74953067D01*
X111843351Y-74902778D01*
X111911116Y-74855362D01*
X111981195Y-74810820D01*
X112053588Y-74769152D01*
X112128294Y-74730358D01*
X112205314Y-74694437D01*
X112284648Y-74661390D01*
X112366295Y-74631216D01*
X112450256Y-74603916D01*
X112536530Y-74579490D01*
X112625119Y-74557938D01*
X112716020Y-74539259D01*
X112809236Y-74523454D01*
X112904765Y-74510522D01*
X113002607Y-74500464D01*
X113102764Y-74493280D01*
X113205233Y-74488969D01*
X113310017Y-74487533D01*
X113361859Y-74487898D01*
G37*
G36*
X116899366Y-74534897D02*
G01*
X116985147Y-74536305D01*
X117068580Y-74538652D01*
X117149667Y-74541938D01*
X117228407Y-74546162D01*
X117304800Y-74551326D01*
X117378845Y-74557428D01*
X117450544Y-74564469D01*
X117519895Y-74572449D01*
X117586900Y-74581368D01*
X117651558Y-74591225D01*
X117713868Y-74602021D01*
X117773832Y-74613757D01*
X117831448Y-74626431D01*
X117886718Y-74640043D01*
X117939640Y-74654595D01*
X117990397Y-74670314D01*
X118039169Y-74687613D01*
X118085957Y-74706493D01*
X118130760Y-74726952D01*
X118173579Y-74748991D01*
X118214413Y-74772610D01*
X118253263Y-74797809D01*
X118290129Y-74824588D01*
X118325010Y-74852947D01*
X118357906Y-74882885D01*
X118388818Y-74914404D01*
X118417745Y-74947503D01*
X118444689Y-74982182D01*
X118469647Y-75018440D01*
X118492621Y-75056279D01*
X118513611Y-75095697D01*
X118532253Y-75136670D01*
X118548186Y-75179354D01*
X118561410Y-75223750D01*
X118571924Y-75269858D01*
X118579728Y-75317677D01*
X118584823Y-75367208D01*
X118587208Y-75418450D01*
X118586884Y-75471404D01*
X118583850Y-75526069D01*
X118578106Y-75582447D01*
X118569653Y-75640535D01*
X118564410Y-75670222D01*
X118558490Y-75700336D01*
X118551893Y-75730878D01*
X118544618Y-75761848D01*
X118536666Y-75793246D01*
X118528036Y-75825071D01*
X118518729Y-75857325D01*
X118508745Y-75890007D01*
X118498083Y-75923116D01*
X118486744Y-75956653D01*
X118469585Y-76004043D01*
X118451386Y-76050775D01*
X118432147Y-76096848D01*
X118411868Y-76142263D01*
X118390550Y-76187019D01*
X118368191Y-76231117D01*
X118344792Y-76274557D01*
X118320354Y-76317339D01*
X118294875Y-76359462D01*
X118268357Y-76400927D01*
X118240798Y-76441734D01*
X118212200Y-76481882D01*
X118182562Y-76521372D01*
X118151883Y-76560204D01*
X118120165Y-76598378D01*
X118087407Y-76635893D01*
X118054043Y-76672501D01*
X118020202Y-76708135D01*
X117985884Y-76742797D01*
X117951089Y-76776485D01*
X117915817Y-76809200D01*
X117880068Y-76840942D01*
X117843842Y-76871711D01*
X117807138Y-76901507D01*
X117769958Y-76930329D01*
X117732301Y-76958179D01*
X117694167Y-76985055D01*
X117655555Y-77010958D01*
X117616467Y-77035888D01*
X117576901Y-77059845D01*
X117536859Y-77082829D01*
X117496339Y-77104839D01*
X117455462Y-77125922D01*
X117414346Y-77146124D01*
X117372992Y-77165444D01*
X117331399Y-77183882D01*
X117289568Y-77201439D01*
X117247498Y-77218114D01*
X117205189Y-77233908D01*
X117162643Y-77248820D01*
X117098375Y-77269535D01*
X117033571Y-77288267D01*
X116968230Y-77305016D01*
X116902352Y-77319780D01*
X116835938Y-77332562D01*
X116813681Y-77336381D01*
X116745574Y-77346857D01*
X116674977Y-77356302D01*
X116626530Y-77362027D01*
X116576975Y-77367293D01*
X116526314Y-77372102D01*
X116474546Y-77376452D01*
X116421671Y-77380345D01*
X116367689Y-77383780D01*
X116312601Y-77386756D01*
X116256406Y-77389275D01*
X116199105Y-77391336D01*
X116140696Y-77392939D01*
X116081181Y-77394084D01*
X116020559Y-77394771D01*
X115958831Y-77395000D01*
X114704644Y-77395000D01*
X114883241Y-76879159D01*
X115971043Y-76879159D01*
X116093164Y-76879159D01*
X116155693Y-76878450D01*
X116215968Y-76876325D01*
X116273989Y-76872783D01*
X116329755Y-76867824D01*
X116383268Y-76861449D01*
X116434527Y-76853656D01*
X116483532Y-76844447D01*
X116530283Y-76833821D01*
X116589111Y-76817449D01*
X116643932Y-76798558D01*
X116696291Y-76776485D01*
X116734960Y-76757405D01*
X116773113Y-76736162D01*
X116810752Y-76712755D01*
X116847875Y-76687184D01*
X116884482Y-76659449D01*
X116920575Y-76629550D01*
X116956152Y-76597487D01*
X116991215Y-76563261D01*
X117025762Y-76526871D01*
X117037163Y-76514260D01*
X117059870Y-76488068D01*
X117082195Y-76460416D01*
X117104139Y-76431304D01*
X117125701Y-76400733D01*
X117146881Y-76368702D01*
X117167680Y-76335211D01*
X117188097Y-76300260D01*
X117208133Y-76263850D01*
X117227787Y-76225980D01*
X117247059Y-76186650D01*
X117265950Y-76145860D01*
X117284459Y-76103611D01*
X117302586Y-76059902D01*
X117320332Y-76014734D01*
X117337696Y-75968105D01*
X117354678Y-75920017D01*
X117369548Y-75875710D01*
X117383014Y-75832731D01*
X117395079Y-75791080D01*
X117405741Y-75750757D01*
X117415000Y-75711762D01*
X117422857Y-75674095D01*
X117429311Y-75637756D01*
X117434363Y-75602745D01*
X117438012Y-75569063D01*
X117440259Y-75536708D01*
X117441103Y-75505682D01*
X117440545Y-75475983D01*
X117437078Y-75433926D01*
X117430456Y-75394857D01*
X117424288Y-75370471D01*
X117413104Y-75335982D01*
X117400159Y-75303683D01*
X117385455Y-75273574D01*
X117368990Y-75245655D01*
X117344298Y-75211835D01*
X117316477Y-75181907D01*
X117285527Y-75155873D01*
X117251448Y-75133731D01*
X117214239Y-75115481D01*
X117162158Y-75096694D01*
X117114741Y-75083957D01*
X117062210Y-75073258D01*
X117004564Y-75064597D01*
X116941806Y-75057974D01*
X116891380Y-75054344D01*
X116838079Y-75051860D01*
X116781900Y-75050523D01*
X116742850Y-75050268D01*
X116604853Y-75050268D01*
X115971043Y-76879159D01*
X114883241Y-76879159D01*
X115695048Y-74534427D01*
X116811238Y-74534427D01*
X116899366Y-74534897D01*
G37*
G36*
X119627358Y-74534427D02*
G01*
X122494769Y-74534427D01*
X122316472Y-75050268D01*
X120537163Y-75050268D01*
X120325893Y-75659898D01*
X121708307Y-75659898D01*
X121530010Y-76175739D01*
X120147595Y-76175739D01*
X119919228Y-76832264D01*
X121698538Y-76832264D01*
X121504364Y-77395000D01*
X118636953Y-77395000D01*
X119627358Y-74534427D01*
G37*
D13*
G36*
X61176189Y-106305767D02*
G01*
X61176189Y-105377400D01*
X62557993Y-105350289D01*
X61176189Y-104588984D01*
X61176189Y-103684064D01*
X63560000Y-104278307D01*
X63560000Y-104892334D01*
X61577358Y-104374295D01*
X63560000Y-105411106D01*
X63560000Y-105889577D01*
X61577358Y-105890310D01*
X63560000Y-106360722D01*
X63560000Y-106900010D01*
X61176189Y-106305767D01*
G37*
G36*
X63560000Y-102484588D02*
G01*
X63051974Y-102494846D01*
X63051974Y-103231238D01*
X63560000Y-103492822D01*
X63560000Y-104103185D01*
X61176189Y-102667770D01*
X61176189Y-102549801D01*
X61783743Y-102549801D01*
X62622107Y-102997498D01*
X62622107Y-102513897D01*
X61783743Y-102549801D01*
X61176189Y-102549801D01*
X61176189Y-102022236D01*
X63560000Y-101817805D01*
X63560000Y-102484588D01*
G37*
G36*
X62659965Y-100062920D02*
G01*
X62692327Y-99465013D01*
X62718000Y-99473666D01*
X62743348Y-99482679D01*
X62768371Y-99492053D01*
X62793067Y-99501787D01*
X62817439Y-99511882D01*
X62841484Y-99522338D01*
X62865204Y-99533154D01*
X62888599Y-99544331D01*
X62911668Y-99555869D01*
X62934411Y-99567767D01*
X62956829Y-99580026D01*
X62978921Y-99592646D01*
X63022129Y-99618967D01*
X63064034Y-99646730D01*
X63104637Y-99675936D01*
X63143938Y-99706585D01*
X63181936Y-99738676D01*
X63218632Y-99772210D01*
X63254026Y-99807186D01*
X63288117Y-99843605D01*
X63320906Y-99881467D01*
X63352393Y-99920771D01*
X63382265Y-99961125D01*
X63410210Y-100002321D01*
X63436228Y-100044358D01*
X63460318Y-100087237D01*
X63482481Y-100130958D01*
X63502717Y-100175520D01*
X63521026Y-100220923D01*
X63537407Y-100267168D01*
X63551861Y-100314254D01*
X63564388Y-100362182D01*
X63574988Y-100410952D01*
X63583661Y-100460563D01*
X63590406Y-100511015D01*
X63595224Y-100562309D01*
X63598115Y-100614444D01*
X63599078Y-100667421D01*
X63598756Y-100699750D01*
X63597788Y-100731432D01*
X63596175Y-100762467D01*
X63593917Y-100792855D01*
X63591013Y-100822596D01*
X63587465Y-100851691D01*
X63578432Y-100907939D01*
X63566819Y-100961600D01*
X63552625Y-101012674D01*
X63535850Y-101061160D01*
X63516494Y-101107058D01*
X63494557Y-101150369D01*
X63470040Y-101191093D01*
X63442942Y-101229229D01*
X63413263Y-101264778D01*
X63381003Y-101297739D01*
X63346163Y-101328113D01*
X63308742Y-101355900D01*
X63268740Y-101381099D01*
X63226432Y-101403610D01*
X63182244Y-101423517D01*
X63136176Y-101440819D01*
X63112438Y-101448493D01*
X63088229Y-101455516D01*
X63063551Y-101461888D01*
X63038403Y-101467609D01*
X63012785Y-101472679D01*
X62986697Y-101477097D01*
X62960139Y-101480865D01*
X62933111Y-101483981D01*
X62905614Y-101486446D01*
X62877646Y-101488260D01*
X62849209Y-101489423D01*
X62820301Y-101489935D01*
X62790924Y-101489795D01*
X62761077Y-101489004D01*
X62730760Y-101487562D01*
X62699974Y-101485469D01*
X62668717Y-101482725D01*
X62636991Y-101479330D01*
X62604794Y-101475284D01*
X62572128Y-101470586D01*
X62538992Y-101465237D01*
X62505386Y-101459237D01*
X62471310Y-101452586D01*
X62436764Y-101445284D01*
X62401748Y-101437330D01*
X62366263Y-101428726D01*
X62330593Y-101419593D01*
X62295406Y-101410056D01*
X62260702Y-101400113D01*
X62226481Y-101389765D01*
X62192743Y-101379013D01*
X62159489Y-101367855D01*
X62126717Y-101356292D01*
X62094428Y-101344325D01*
X62062622Y-101331952D01*
X62031299Y-101319174D01*
X62000459Y-101305992D01*
X61970103Y-101292404D01*
X61940229Y-101278411D01*
X61910838Y-101264014D01*
X61881930Y-101249211D01*
X61853505Y-101234003D01*
X61825563Y-101218391D01*
X61798105Y-101202373D01*
X61771129Y-101185950D01*
X61744636Y-101169123D01*
X61718626Y-101151890D01*
X61693099Y-101134252D01*
X61668055Y-101116209D01*
X61643495Y-101097762D01*
X61619417Y-101078909D01*
X61595822Y-101059651D01*
X61572710Y-101039988D01*
X61550081Y-101019921D01*
X61527935Y-100999448D01*
X61506273Y-100978570D01*
X61485093Y-100957287D01*
X61464396Y-100935600D01*
X61444260Y-100913489D01*
X61424764Y-100891029D01*
X61405906Y-100868220D01*
X61387688Y-100845062D01*
X61370110Y-100821554D01*
X61353170Y-100797698D01*
X61336870Y-100773492D01*
X61321209Y-100748937D01*
X61306187Y-100724033D01*
X61291804Y-100698779D01*
X61278061Y-100673177D01*
X61264956Y-100647225D01*
X61252491Y-100620924D01*
X61240666Y-100594274D01*
X61229479Y-100567275D01*
X61218932Y-100539926D01*
X61209024Y-100512229D01*
X61199755Y-100484182D01*
X61191125Y-100455786D01*
X61183135Y-100427040D01*
X61175784Y-100397946D01*
X61169072Y-100368502D01*
X61162999Y-100338709D01*
X61157566Y-100308567D01*
X61152772Y-100278076D01*
X61148617Y-100247236D01*
X61145101Y-100216046D01*
X61142224Y-100184507D01*
X61139987Y-100152619D01*
X61138389Y-100120382D01*
X61137430Y-100087796D01*
X61137110Y-100054860D01*
X61138030Y-100000375D01*
X61140788Y-99947927D01*
X61145386Y-99897518D01*
X61151822Y-99849146D01*
X61160098Y-99802813D01*
X61170212Y-99758517D01*
X61182165Y-99716259D01*
X61195958Y-99676039D01*
X61211589Y-99637857D01*
X61229059Y-99601713D01*
X61248369Y-99567607D01*
X61269517Y-99535539D01*
X61292504Y-99505508D01*
X61317330Y-99477516D01*
X61343995Y-99451561D01*
X61372500Y-99427644D01*
X61402843Y-99405765D01*
X61435025Y-99385925D01*
X61469046Y-99368122D01*
X61504906Y-99352356D01*
X61542605Y-99338629D01*
X61582143Y-99326940D01*
X61623520Y-99317289D01*
X61666736Y-99309675D01*
X61711791Y-99304099D01*
X61758685Y-99300562D01*
X61807418Y-99299062D01*
X61857989Y-99299600D01*
X61910400Y-99302176D01*
X61964650Y-99306790D01*
X62020739Y-99313442D01*
X62078667Y-99322131D01*
X62115914Y-99931762D01*
X62084546Y-99925640D01*
X62054173Y-99920373D01*
X62024797Y-99915960D01*
X61996416Y-99912401D01*
X61969031Y-99909697D01*
X61942642Y-99907848D01*
X61917249Y-99906852D01*
X61869450Y-99907425D01*
X61825634Y-99911415D01*
X61785801Y-99918822D01*
X61749952Y-99929647D01*
X61718086Y-99943889D01*
X61690203Y-99961549D01*
X61666303Y-99982627D01*
X61646387Y-100007122D01*
X61630454Y-100035034D01*
X61618504Y-100066364D01*
X61610538Y-100101111D01*
X61606555Y-100139276D01*
X61606057Y-100159640D01*
X61607474Y-100192761D01*
X61611724Y-100225354D01*
X61618808Y-100257419D01*
X61628726Y-100288955D01*
X61641477Y-100319964D01*
X61657061Y-100350444D01*
X61675480Y-100380397D01*
X61696732Y-100409821D01*
X61720817Y-100438717D01*
X61747737Y-100467086D01*
X61767257Y-100485704D01*
X61788635Y-100504094D01*
X61812471Y-100522261D01*
X61838762Y-100540204D01*
X61867511Y-100557924D01*
X61898716Y-100575421D01*
X61932379Y-100592694D01*
X61968497Y-100609744D01*
X62007073Y-100626571D01*
X62048105Y-100643175D01*
X62091594Y-100659556D01*
X62137540Y-100675713D01*
X62161434Y-100683708D01*
X62185943Y-100691647D01*
X62211065Y-100699530D01*
X62236802Y-100707358D01*
X62263153Y-100715129D01*
X62290118Y-100722845D01*
X62317697Y-100730505D01*
X62345891Y-100738109D01*
X62374698Y-100745658D01*
X62404120Y-100753150D01*
X62430302Y-100759585D01*
X62455953Y-100765698D01*
X62481073Y-100771491D01*
X62505662Y-100776964D01*
X62529721Y-100782116D01*
X62576246Y-100791458D01*
X62620649Y-100799518D01*
X62662929Y-100806296D01*
X62703086Y-100811791D01*
X62741120Y-100816005D01*
X62777031Y-100818936D01*
X62810820Y-100820584D01*
X62842485Y-100820951D01*
X62872028Y-100820035D01*
X62899448Y-100817836D01*
X62924746Y-100814356D01*
X62958711Y-100806731D01*
X62978702Y-100800045D01*
X63005764Y-100787783D01*
X63030164Y-100773254D01*
X63051903Y-100756459D01*
X63070980Y-100737397D01*
X63092274Y-100708454D01*
X63108837Y-100675481D01*
X63118154Y-100648107D01*
X63124808Y-100618466D01*
X63128801Y-100586558D01*
X63130132Y-100552383D01*
X63128295Y-100513806D01*
X63122786Y-100476293D01*
X63113603Y-100439846D01*
X63100747Y-100404463D01*
X63084217Y-100370145D01*
X63064015Y-100336892D01*
X63040139Y-100304703D01*
X63012590Y-100273579D01*
X62981368Y-100243520D01*
X62946473Y-100214526D01*
X62907904Y-100186597D01*
X62865663Y-100159732D01*
X62843165Y-100146699D01*
X62819748Y-100133932D01*
X62795413Y-100121431D01*
X62770160Y-100109196D01*
X62743989Y-100097228D01*
X62716899Y-100085526D01*
X62688891Y-100074090D01*
X62659965Y-100062920D01*
G37*
G36*
X61736295Y-97057256D02*
G01*
X61769377Y-97059669D01*
X61803092Y-97063679D01*
X61837440Y-97069286D01*
X61872422Y-97076490D01*
X61896095Y-97082180D01*
X61923689Y-97089403D01*
X61950754Y-97097241D01*
X61977289Y-97105695D01*
X62003295Y-97114764D01*
X62028771Y-97124448D01*
X62053718Y-97134748D01*
X62078135Y-97145663D01*
X62102022Y-97157193D01*
X62125380Y-97169339D01*
X62148209Y-97182100D01*
X62170508Y-97195477D01*
X62192278Y-97209469D01*
X62213518Y-97224076D01*
X62254409Y-97255137D01*
X62293183Y-97288659D01*
X62329838Y-97324643D01*
X62364376Y-97363089D01*
X62396795Y-97403995D01*
X62427097Y-97447364D01*
X62455280Y-97493194D01*
X62481345Y-97541485D01*
X62505293Y-97592238D01*
X62516472Y-97618538D01*
X63560000Y-97368677D01*
X63560000Y-98076493D01*
X62622107Y-98209849D01*
X62622107Y-98472166D01*
X63560000Y-98705907D01*
X63560000Y-99358768D01*
X61176189Y-98764525D01*
X61176189Y-98218642D01*
X61606057Y-98218642D01*
X62192240Y-98365188D01*
X62192240Y-98128517D01*
X62191042Y-98087490D01*
X62187450Y-98048489D01*
X62181463Y-98011515D01*
X62173082Y-97976567D01*
X62162305Y-97943646D01*
X62149135Y-97912751D01*
X62133569Y-97883883D01*
X62115608Y-97857041D01*
X62095253Y-97832225D01*
X62072503Y-97809436D01*
X62047359Y-97788674D01*
X62019819Y-97769938D01*
X61989885Y-97753228D01*
X61957557Y-97738545D01*
X61922833Y-97725888D01*
X61885715Y-97715258D01*
X61860098Y-97709579D01*
X61835759Y-97705732D01*
X61807134Y-97703500D01*
X61780507Y-97704129D01*
X61755877Y-97707621D01*
X61728958Y-97715590D01*
X61716577Y-97721120D01*
X61693786Y-97733836D01*
X61670941Y-97750952D01*
X61652129Y-97770521D01*
X61635566Y-97795892D01*
X61629260Y-97809780D01*
X61620219Y-97838005D01*
X61614237Y-97867835D01*
X61609886Y-97902868D01*
X61607507Y-97936038D01*
X61606261Y-97972821D01*
X61606057Y-97996625D01*
X61606057Y-98218642D01*
X61176189Y-98218642D01*
X61176189Y-97880854D01*
X61176268Y-97849545D01*
X61176504Y-97819179D01*
X61176898Y-97789758D01*
X61177783Y-97747398D01*
X61179023Y-97707163D01*
X61180617Y-97669054D01*
X61182565Y-97633069D01*
X61184867Y-97599210D01*
X61187524Y-97567476D01*
X61190534Y-97537867D01*
X61195100Y-97501694D01*
X61196339Y-97493241D01*
X61202474Y-97459936D01*
X61210803Y-97427066D01*
X61221327Y-97394632D01*
X61234044Y-97362632D01*
X61248957Y-97331068D01*
X61266063Y-97299938D01*
X61285364Y-97269244D01*
X61301280Y-97246508D01*
X61306859Y-97238984D01*
X61324258Y-97217135D01*
X61342794Y-97196652D01*
X61362469Y-97177534D01*
X61383281Y-97159781D01*
X61405230Y-97143393D01*
X61428318Y-97128371D01*
X61452543Y-97114714D01*
X61477906Y-97102422D01*
X61504406Y-97091495D01*
X61532044Y-97081934D01*
X61551102Y-97076318D01*
X61580384Y-97069149D01*
X61610300Y-97063576D01*
X61640849Y-97059600D01*
X61672031Y-97057222D01*
X61703846Y-97056440D01*
X61736295Y-97057256D01*
G37*
G36*
X61924624Y-94767810D02*
G01*
X61955505Y-94769117D01*
X61986972Y-94771084D01*
X62019025Y-94773713D01*
X62051663Y-94777003D01*
X62084887Y-94780955D01*
X62118697Y-94785567D01*
X62153092Y-94790841D01*
X62188072Y-94796776D01*
X62223638Y-94803372D01*
X62259790Y-94810629D01*
X62296527Y-94818547D01*
X62333850Y-94827127D01*
X62371758Y-94836367D01*
X62447267Y-94856158D01*
X62520379Y-94877337D01*
X62591094Y-94899904D01*
X62659411Y-94923860D01*
X62725332Y-94949203D01*
X62788855Y-94975935D01*
X62849981Y-95004055D01*
X62908711Y-95033563D01*
X62965043Y-95064459D01*
X63018978Y-95096743D01*
X63070516Y-95130416D01*
X63119656Y-95165477D01*
X63166400Y-95201926D01*
X63210747Y-95239763D01*
X63252696Y-95278988D01*
X63292248Y-95319602D01*
X63329403Y-95361603D01*
X63364162Y-95404993D01*
X63396523Y-95449771D01*
X63426486Y-95495937D01*
X63454053Y-95543492D01*
X63479223Y-95592434D01*
X63501995Y-95642765D01*
X63522371Y-95694484D01*
X63540349Y-95747591D01*
X63555930Y-95802086D01*
X63569114Y-95857970D01*
X63579901Y-95915241D01*
X63588291Y-95973901D01*
X63594284Y-96033949D01*
X63597880Y-96095385D01*
X63599078Y-96158210D01*
X63598768Y-96189806D01*
X63597838Y-96220758D01*
X63596288Y-96251064D01*
X63594117Y-96280724D01*
X63587916Y-96338109D01*
X63579234Y-96392912D01*
X63568071Y-96445133D01*
X63554428Y-96494772D01*
X63538304Y-96541830D01*
X63519699Y-96586306D01*
X63498614Y-96628201D01*
X63475049Y-96667513D01*
X63449003Y-96704244D01*
X63420476Y-96738393D01*
X63389468Y-96769961D01*
X63355980Y-96798946D01*
X63320012Y-96825350D01*
X63281563Y-96849173D01*
X63240766Y-96870413D01*
X63197757Y-96889072D01*
X63152534Y-96905149D01*
X63105097Y-96918644D01*
X63080549Y-96924424D01*
X63055447Y-96929558D01*
X63029792Y-96934047D01*
X63003584Y-96937890D01*
X62976822Y-96941088D01*
X62949507Y-96943640D01*
X62921638Y-96945547D01*
X62893217Y-96946809D01*
X62864241Y-96947425D01*
X62834713Y-96947395D01*
X62804631Y-96946721D01*
X62773995Y-96945400D01*
X62742807Y-96943435D01*
X62711065Y-96940824D01*
X62678769Y-96937567D01*
X62645921Y-96933665D01*
X62612519Y-96929118D01*
X62578563Y-96923925D01*
X62544054Y-96918087D01*
X62508992Y-96911603D01*
X62473376Y-96904474D01*
X62437207Y-96896700D01*
X62400485Y-96888280D01*
X62363210Y-96879214D01*
X62287776Y-96859378D01*
X62214737Y-96838153D01*
X62144092Y-96815540D01*
X62075843Y-96791539D01*
X62009988Y-96766150D01*
X61946527Y-96739372D01*
X61885462Y-96711206D01*
X61826791Y-96681653D01*
X61770515Y-96650710D01*
X61716634Y-96618380D01*
X61665147Y-96584662D01*
X61616055Y-96549555D01*
X61569358Y-96513061D01*
X61525056Y-96475178D01*
X61483148Y-96435907D01*
X61443635Y-96395247D01*
X61406517Y-96353200D01*
X61371793Y-96309764D01*
X61339465Y-96264940D01*
X61309531Y-96218728D01*
X61281991Y-96171128D01*
X61256847Y-96122140D01*
X61234097Y-96071763D01*
X61213742Y-96019999D01*
X61195781Y-95966846D01*
X61180216Y-95912305D01*
X61167045Y-95856375D01*
X61156268Y-95799058D01*
X61147887Y-95740352D01*
X61141900Y-95680259D01*
X61140928Y-95663618D01*
X61606057Y-95663618D01*
X61607382Y-95695977D01*
X61611359Y-95727382D01*
X61617987Y-95757835D01*
X61627266Y-95787334D01*
X61639196Y-95815881D01*
X61653777Y-95843474D01*
X61671009Y-95870114D01*
X61690893Y-95895801D01*
X61713428Y-95920535D01*
X61738613Y-95944316D01*
X61756877Y-95959640D01*
X61787909Y-95982139D01*
X61811655Y-95997103D01*
X61837850Y-96012038D01*
X61866491Y-96026945D01*
X61897579Y-96041822D01*
X61931115Y-96056672D01*
X61967098Y-96071492D01*
X62005528Y-96086284D01*
X62046405Y-96101047D01*
X62089730Y-96115782D01*
X62135501Y-96130488D01*
X62159305Y-96137831D01*
X62183720Y-96145166D01*
X62208747Y-96152494D01*
X62234386Y-96159815D01*
X62260637Y-96167128D01*
X62287500Y-96174435D01*
X62314974Y-96181734D01*
X62343060Y-96189026D01*
X62371758Y-96196311D01*
X62399894Y-96203213D01*
X62427438Y-96209813D01*
X62454390Y-96216110D01*
X62480751Y-96222106D01*
X62506521Y-96227799D01*
X62531699Y-96233191D01*
X62556285Y-96238281D01*
X62603684Y-96247554D01*
X62648716Y-96255620D01*
X62691382Y-96262478D01*
X62731682Y-96268128D01*
X62769616Y-96272570D01*
X62805184Y-96275805D01*
X62838386Y-96277831D01*
X62869222Y-96278650D01*
X62897691Y-96278260D01*
X62923795Y-96276663D01*
X62958513Y-96272003D01*
X62978702Y-96267386D01*
X63005764Y-96258284D01*
X63030164Y-96246915D01*
X63051903Y-96233280D01*
X63076747Y-96211573D01*
X63096859Y-96185836D01*
X63112238Y-96156069D01*
X63122886Y-96122272D01*
X63128801Y-96084444D01*
X63130132Y-96053429D01*
X63128823Y-96021195D01*
X63124894Y-95989888D01*
X63118347Y-95959508D01*
X63109181Y-95930056D01*
X63097395Y-95901531D01*
X63082991Y-95873934D01*
X63065968Y-95847264D01*
X63046326Y-95821521D01*
X63024065Y-95796705D01*
X62999185Y-95772817D01*
X62981144Y-95757407D01*
X62950397Y-95734640D01*
X62926774Y-95719504D01*
X62900651Y-95704403D01*
X62872029Y-95689336D01*
X62840907Y-95674304D01*
X62807286Y-95659306D01*
X62771164Y-95644342D01*
X62732543Y-95629413D01*
X62691423Y-95614518D01*
X62647803Y-95599657D01*
X62601683Y-95584831D01*
X62577685Y-95577431D01*
X62553063Y-95570039D01*
X62527816Y-95562656D01*
X62501944Y-95555281D01*
X62475447Y-95547915D01*
X62448325Y-95540558D01*
X62420578Y-95533209D01*
X62392206Y-95525869D01*
X62363210Y-95518538D01*
X62334479Y-95511459D01*
X62306371Y-95504696D01*
X62278885Y-95498247D01*
X62252022Y-95492114D01*
X62225781Y-95486295D01*
X62200163Y-95480791D01*
X62175168Y-95475601D01*
X62150795Y-95470727D01*
X62103916Y-95461923D01*
X62059528Y-95454378D01*
X62017630Y-95448093D01*
X61978222Y-95443066D01*
X61941304Y-95439300D01*
X61906876Y-95436793D01*
X61874939Y-95435545D01*
X61845491Y-95435556D01*
X61818534Y-95436827D01*
X61794066Y-95439357D01*
X61762035Y-95445514D01*
X61752602Y-95448196D01*
X61726413Y-95457684D01*
X61702800Y-95469387D01*
X61675322Y-95488438D01*
X61652425Y-95511428D01*
X61634106Y-95538356D01*
X61620368Y-95569222D01*
X61611209Y-95604026D01*
X61606629Y-95642769D01*
X61606057Y-95663618D01*
X61140928Y-95663618D01*
X61138308Y-95618777D01*
X61137110Y-95555907D01*
X61137415Y-95524802D01*
X61138329Y-95494317D01*
X61139853Y-95464454D01*
X61141986Y-95435213D01*
X61148080Y-95378592D01*
X61156612Y-95324456D01*
X61167581Y-95272804D01*
X61180988Y-95223637D01*
X61196833Y-95176954D01*
X61215116Y-95132756D01*
X61235836Y-95091042D01*
X61258993Y-95051812D01*
X61284589Y-95015067D01*
X61312622Y-94980806D01*
X61343093Y-94949030D01*
X61376001Y-94919738D01*
X61411347Y-94892930D01*
X61449131Y-94868607D01*
X61489228Y-94846757D01*
X61531668Y-94827552D01*
X61576449Y-94810991D01*
X61623574Y-94797075D01*
X61648014Y-94791108D01*
X61673040Y-94785803D01*
X61698651Y-94781159D01*
X61724848Y-94777177D01*
X61751631Y-94773855D01*
X61778999Y-94771194D01*
X61806953Y-94769195D01*
X61835492Y-94767857D01*
X61864617Y-94767180D01*
X61894328Y-94767164D01*
X61924624Y-94767810D01*
G37*
G36*
X61742900Y-92426114D02*
G01*
X61773647Y-92427765D01*
X61805076Y-92430682D01*
X61837188Y-92434864D01*
X61869982Y-92440311D01*
X61903458Y-92447022D01*
X61937616Y-92455000D01*
X61970088Y-92463500D01*
X62001864Y-92472699D01*
X62032943Y-92482597D01*
X62063325Y-92493193D01*
X62093011Y-92504487D01*
X62122001Y-92516480D01*
X62150294Y-92529171D01*
X62177890Y-92542561D01*
X62204790Y-92556648D01*
X62230994Y-92571435D01*
X62256501Y-92586919D01*
X62281312Y-92603102D01*
X62305426Y-92619984D01*
X62328844Y-92637563D01*
X62351565Y-92655842D01*
X62373590Y-92674818D01*
X62394816Y-92694384D01*
X62415292Y-92714431D01*
X62435020Y-92734959D01*
X62453999Y-92755968D01*
X62472229Y-92777457D01*
X62489710Y-92799428D01*
X62506442Y-92821879D01*
X62522425Y-92844811D01*
X62537660Y-92868224D01*
X62552145Y-92892118D01*
X62565881Y-92916493D01*
X62578868Y-92941348D01*
X62596945Y-92979533D01*
X62613337Y-93018800D01*
X62623328Y-93045579D01*
X62632645Y-93073334D01*
X62641360Y-93102560D01*
X62649475Y-93133257D01*
X62656988Y-93165426D01*
X62663900Y-93199065D01*
X62670211Y-93234176D01*
X62675921Y-93270758D01*
X62681031Y-93308811D01*
X62685539Y-93348336D01*
X62689445Y-93389331D01*
X62692751Y-93431798D01*
X62695456Y-93475736D01*
X62697560Y-93521145D01*
X62699063Y-93568026D01*
X62699964Y-93616377D01*
X62700265Y-93666200D01*
X62700265Y-93860373D01*
X63560000Y-94075062D01*
X63560000Y-94727923D01*
X61176189Y-94133681D01*
X61176189Y-93587798D01*
X61606057Y-93587798D01*
X62270397Y-93753394D01*
X62270397Y-93594392D01*
X62269576Y-93551429D01*
X62267113Y-93511016D01*
X62263007Y-93473153D01*
X62257260Y-93437840D01*
X62249870Y-93405078D01*
X62240838Y-93374866D01*
X62230163Y-93347204D01*
X62213376Y-93314288D01*
X62193670Y-93285907D01*
X62176974Y-93267595D01*
X62152521Y-93245694D01*
X62126179Y-93225418D01*
X62097948Y-93206768D01*
X62075535Y-93193847D01*
X62052060Y-93181840D01*
X62027522Y-93170749D01*
X62001921Y-93160571D01*
X61975258Y-93151308D01*
X61947532Y-93142960D01*
X61928457Y-93137903D01*
X61897221Y-93130850D01*
X61867626Y-93125812D01*
X61839671Y-93122790D01*
X61813358Y-93121782D01*
X61788685Y-93122790D01*
X61760153Y-93126883D01*
X61734184Y-93134124D01*
X61724515Y-93137903D01*
X61697846Y-93150997D01*
X61675084Y-93166101D01*
X61653466Y-93186262D01*
X61637167Y-93209157D01*
X61627428Y-93230959D01*
X61619101Y-93260506D01*
X61613591Y-93291023D01*
X61610147Y-93320114D01*
X61607747Y-93352533D01*
X61606391Y-93388278D01*
X61606057Y-93419270D01*
X61606057Y-93587798D01*
X61176189Y-93587798D01*
X61176189Y-93322550D01*
X61176399Y-93277610D01*
X61177029Y-93234016D01*
X61178078Y-93191767D01*
X61179548Y-93150863D01*
X61181437Y-93111304D01*
X61183746Y-93073090D01*
X61186474Y-93036222D01*
X61189623Y-93000699D01*
X61193191Y-92966521D01*
X61197179Y-92933689D01*
X61201587Y-92902201D01*
X61206414Y-92872059D01*
X61211662Y-92843263D01*
X61220320Y-92802590D01*
X61229923Y-92764944D01*
X61241189Y-92729687D01*
X61254838Y-92696182D01*
X61270870Y-92664428D01*
X61289285Y-92634426D01*
X61310083Y-92606176D01*
X61333263Y-92579678D01*
X61358826Y-92554931D01*
X61386772Y-92531936D01*
X61417101Y-92510693D01*
X61449813Y-92491201D01*
X61472944Y-92479180D01*
X61496870Y-92468180D01*
X61521478Y-92458446D01*
X61546768Y-92449976D01*
X61572740Y-92442772D01*
X61599395Y-92436833D01*
X61626731Y-92432159D01*
X61654750Y-92428750D01*
X61683451Y-92426606D01*
X61712834Y-92425728D01*
X61742900Y-92426114D01*
G37*
G36*
X63560000Y-91347114D02*
G01*
X63051974Y-91357372D01*
X63051974Y-92093764D01*
X63560000Y-92355348D01*
X63560000Y-92965711D01*
X61176189Y-91530296D01*
X61176189Y-91412327D01*
X61783743Y-91412327D01*
X62622107Y-91860024D01*
X62622107Y-91376423D01*
X61783743Y-91412327D01*
X61176189Y-91412327D01*
X61176189Y-90884762D01*
X63560000Y-90680331D01*
X63560000Y-91347114D01*
G37*
G36*
X61957003Y-88172201D02*
G01*
X62002558Y-88174022D01*
X62049539Y-88177468D01*
X62097946Y-88182540D01*
X62122685Y-88185685D01*
X62147780Y-88189237D01*
X62173231Y-88193196D01*
X62199040Y-88197560D01*
X62225205Y-88202332D01*
X62251726Y-88207510D01*
X62278604Y-88213094D01*
X62305839Y-88219084D01*
X62333430Y-88225481D01*
X62361378Y-88232285D01*
X62400869Y-88242580D01*
X62439812Y-88253500D01*
X62478206Y-88265043D01*
X62516052Y-88277210D01*
X62553349Y-88290002D01*
X62590098Y-88303417D01*
X62626298Y-88317456D01*
X62661949Y-88332119D01*
X62697052Y-88347406D01*
X62731606Y-88363317D01*
X62765612Y-88379852D01*
X62799069Y-88397011D01*
X62831977Y-88414794D01*
X62864337Y-88433201D01*
X62896148Y-88452232D01*
X62927411Y-88471887D01*
X62957917Y-88491906D01*
X62987613Y-88512210D01*
X63016497Y-88532801D01*
X63044571Y-88553678D01*
X63071833Y-88574841D01*
X63098285Y-88596291D01*
X63123926Y-88618026D01*
X63148756Y-88640048D01*
X63172774Y-88662356D01*
X63195982Y-88684951D01*
X63218379Y-88707831D01*
X63239965Y-88730998D01*
X63260740Y-88754451D01*
X63280704Y-88778191D01*
X63299857Y-88802216D01*
X63318199Y-88826528D01*
X63335768Y-88851054D01*
X63352603Y-88875724D01*
X63368703Y-88900536D01*
X63384068Y-88925492D01*
X63398699Y-88950591D01*
X63412595Y-88975833D01*
X63425757Y-89001218D01*
X63438183Y-89026746D01*
X63455446Y-89065306D01*
X63471056Y-89104189D01*
X63485013Y-89143394D01*
X63497317Y-89182920D01*
X63507968Y-89222769D01*
X63511151Y-89236123D01*
X63519881Y-89276987D01*
X63527752Y-89319345D01*
X63532522Y-89348414D01*
X63536911Y-89378146D01*
X63540918Y-89408543D01*
X63544544Y-89439604D01*
X63547787Y-89471329D01*
X63550650Y-89503718D01*
X63553130Y-89536771D01*
X63555229Y-89570488D01*
X63556946Y-89604869D01*
X63558282Y-89639914D01*
X63559236Y-89675623D01*
X63559809Y-89711996D01*
X63560000Y-89749033D01*
X63560000Y-90501545D01*
X61176189Y-89907302D01*
X61176189Y-89361420D01*
X61606057Y-89361420D01*
X63130132Y-89741706D01*
X63130132Y-89668433D01*
X63129542Y-89630916D01*
X63127771Y-89594751D01*
X63124819Y-89559938D01*
X63120687Y-89526478D01*
X63115374Y-89494370D01*
X63108880Y-89463615D01*
X63101206Y-89434212D01*
X63092351Y-89406162D01*
X63078708Y-89370865D01*
X63062965Y-89337972D01*
X63044571Y-89306557D01*
X63028671Y-89283355D01*
X63010968Y-89260463D01*
X62991462Y-89237880D01*
X62970153Y-89215607D01*
X62947041Y-89193642D01*
X62922125Y-89171986D01*
X62895406Y-89150640D01*
X62866884Y-89129603D01*
X62836559Y-89108874D01*
X62826050Y-89102034D01*
X62804223Y-89088410D01*
X62781180Y-89075014D01*
X62756920Y-89061848D01*
X62731444Y-89048911D01*
X62704751Y-89036203D01*
X62676842Y-89023723D01*
X62647717Y-89011473D01*
X62617375Y-88999452D01*
X62585816Y-88987659D01*
X62553042Y-88976096D01*
X62519050Y-88964762D01*
X62483843Y-88953656D01*
X62447418Y-88942780D01*
X62409778Y-88932132D01*
X62370921Y-88921714D01*
X62330847Y-88911524D01*
X62293925Y-88902603D01*
X62258109Y-88894523D01*
X62223400Y-88887284D01*
X62189797Y-88880887D01*
X62157301Y-88875331D01*
X62125912Y-88870617D01*
X62095630Y-88866745D01*
X62066454Y-88863714D01*
X62038386Y-88861524D01*
X62011424Y-88860176D01*
X61985568Y-88859669D01*
X61960819Y-88860004D01*
X61925772Y-88862084D01*
X61893214Y-88866058D01*
X61872892Y-88869759D01*
X61844152Y-88876469D01*
X61817236Y-88884236D01*
X61792145Y-88893059D01*
X61768879Y-88902938D01*
X61740696Y-88917752D01*
X61715756Y-88934445D01*
X61694060Y-88953015D01*
X61675609Y-88973463D01*
X61660401Y-88995788D01*
X61644745Y-89027036D01*
X61634131Y-89055487D01*
X61625215Y-89087006D01*
X61617998Y-89121593D01*
X61612478Y-89159248D01*
X61609453Y-89189503D01*
X61607383Y-89221484D01*
X61606269Y-89255191D01*
X61606057Y-89278621D01*
X61606057Y-89361420D01*
X61176189Y-89361420D01*
X61176189Y-89237588D01*
X61176580Y-89184712D01*
X61177754Y-89133243D01*
X61179710Y-89083183D01*
X61182448Y-89034531D01*
X61185969Y-88987287D01*
X61190271Y-88941452D01*
X61195357Y-88897024D01*
X61201224Y-88854005D01*
X61207874Y-88812394D01*
X61215306Y-88772191D01*
X61223521Y-88733397D01*
X61232518Y-88696010D01*
X61242297Y-88660032D01*
X61252859Y-88625462D01*
X61264203Y-88592301D01*
X61276329Y-88560547D01*
X61289428Y-88530093D01*
X61303844Y-88500830D01*
X61319577Y-88472757D01*
X61336626Y-88445875D01*
X61354992Y-88420184D01*
X61374675Y-88395683D01*
X61395674Y-88372373D01*
X61417990Y-88350254D01*
X61441622Y-88329326D01*
X61466571Y-88309588D01*
X61492837Y-88291041D01*
X61520419Y-88273684D01*
X61549318Y-88257518D01*
X61579533Y-88242543D01*
X61611066Y-88228759D01*
X61643914Y-88216165D01*
X61678058Y-88204979D01*
X61713629Y-88195420D01*
X61750625Y-88187485D01*
X61789048Y-88181177D01*
X61828897Y-88176495D01*
X61870173Y-88173438D01*
X61912875Y-88172007D01*
X61957003Y-88172201D01*
G37*
D10*
X102884524Y-30469809D02*
X103217857Y-30469809D01*
X103360714Y-30993619D02*
X102884524Y-30993619D01*
X102884524Y-30993619D02*
X102884524Y-29993619D01*
X102884524Y-29993619D02*
X103360714Y-29993619D01*
X103694048Y-29993619D02*
X104313095Y-29993619D01*
X104313095Y-29993619D02*
X103979762Y-30374571D01*
X103979762Y-30374571D02*
X104122619Y-30374571D01*
X104122619Y-30374571D02*
X104217857Y-30422190D01*
X104217857Y-30422190D02*
X104265476Y-30469809D01*
X104265476Y-30469809D02*
X104313095Y-30565047D01*
X104313095Y-30565047D02*
X104313095Y-30803142D01*
X104313095Y-30803142D02*
X104265476Y-30898380D01*
X104265476Y-30898380D02*
X104217857Y-30946000D01*
X104217857Y-30946000D02*
X104122619Y-30993619D01*
X104122619Y-30993619D02*
X103836905Y-30993619D01*
X103836905Y-30993619D02*
X103741667Y-30946000D01*
X103741667Y-30946000D02*
X103694048Y-30898380D01*
X103889761Y-67117619D02*
X103318333Y-67117619D01*
X103604047Y-67117619D02*
X103604047Y-66117619D01*
X103604047Y-66117619D02*
X103508809Y-66260476D01*
X103508809Y-66260476D02*
X103413571Y-66355714D01*
X103413571Y-66355714D02*
X103318333Y-66403333D01*
X104223095Y-66117619D02*
X104889761Y-66117619D01*
X104889761Y-66117619D02*
X104461190Y-67117619D01*
X105461190Y-66117619D02*
X105556428Y-66117619D01*
X105556428Y-66117619D02*
X105651666Y-66165238D01*
X105651666Y-66165238D02*
X105699285Y-66212857D01*
X105699285Y-66212857D02*
X105746904Y-66308095D01*
X105746904Y-66308095D02*
X105794523Y-66498571D01*
X105794523Y-66498571D02*
X105794523Y-66736666D01*
X105794523Y-66736666D02*
X105746904Y-66927142D01*
X105746904Y-66927142D02*
X105699285Y-67022380D01*
X105699285Y-67022380D02*
X105651666Y-67070000D01*
X105651666Y-67070000D02*
X105556428Y-67117619D01*
X105556428Y-67117619D02*
X105461190Y-67117619D01*
X105461190Y-67117619D02*
X105365952Y-67070000D01*
X105365952Y-67070000D02*
X105318333Y-67022380D01*
X105318333Y-67022380D02*
X105270714Y-66927142D01*
X105270714Y-66927142D02*
X105223095Y-66736666D01*
X105223095Y-66736666D02*
X105223095Y-66498571D01*
X105223095Y-66498571D02*
X105270714Y-66308095D01*
X105270714Y-66308095D02*
X105318333Y-66212857D01*
X105318333Y-66212857D02*
X105365952Y-66165238D01*
X105365952Y-66165238D02*
X105461190Y-66117619D01*
X106080238Y-66117619D02*
X106413571Y-67117619D01*
X106413571Y-67117619D02*
X106746904Y-66117619D01*
X91794905Y-106452619D02*
X91794905Y-105452619D01*
X92366333Y-106452619D02*
X91937762Y-105881190D01*
X92366333Y-105452619D02*
X91794905Y-106024047D01*
X93271095Y-105452619D02*
X92794905Y-105452619D01*
X92794905Y-105452619D02*
X92747286Y-105928809D01*
X92747286Y-105928809D02*
X92794905Y-105881190D01*
X92794905Y-105881190D02*
X92890143Y-105833571D01*
X92890143Y-105833571D02*
X93128238Y-105833571D01*
X93128238Y-105833571D02*
X93223476Y-105881190D01*
X93223476Y-105881190D02*
X93271095Y-105928809D01*
X93271095Y-105928809D02*
X93318714Y-106024047D01*
X93318714Y-106024047D02*
X93318714Y-106262142D01*
X93318714Y-106262142D02*
X93271095Y-106357380D01*
X93271095Y-106357380D02*
X93223476Y-106405000D01*
X93223476Y-106405000D02*
X93128238Y-106452619D01*
X93128238Y-106452619D02*
X92890143Y-106452619D01*
X92890143Y-106452619D02*
X92794905Y-106405000D01*
X92794905Y-106405000D02*
X92747286Y-106357380D01*
X135856905Y-93973619D02*
X135856905Y-92973619D01*
X135856905Y-92973619D02*
X136095000Y-92973619D01*
X136095000Y-92973619D02*
X136237857Y-93021238D01*
X136237857Y-93021238D02*
X136333095Y-93116476D01*
X136333095Y-93116476D02*
X136380714Y-93211714D01*
X136380714Y-93211714D02*
X136428333Y-93402190D01*
X136428333Y-93402190D02*
X136428333Y-93545047D01*
X136428333Y-93545047D02*
X136380714Y-93735523D01*
X136380714Y-93735523D02*
X136333095Y-93830761D01*
X136333095Y-93830761D02*
X136237857Y-93926000D01*
X136237857Y-93926000D02*
X136095000Y-93973619D01*
X136095000Y-93973619D02*
X135856905Y-93973619D01*
X136761667Y-92973619D02*
X137428333Y-92973619D01*
X137428333Y-92973619D02*
X136999762Y-93973619D01*
X147842333Y-91289619D02*
X147509000Y-90813428D01*
X147270905Y-91289619D02*
X147270905Y-90289619D01*
X147270905Y-90289619D02*
X147651857Y-90289619D01*
X147651857Y-90289619D02*
X147747095Y-90337238D01*
X147747095Y-90337238D02*
X147794714Y-90384857D01*
X147794714Y-90384857D02*
X147842333Y-90480095D01*
X147842333Y-90480095D02*
X147842333Y-90622952D01*
X147842333Y-90622952D02*
X147794714Y-90718190D01*
X147794714Y-90718190D02*
X147747095Y-90765809D01*
X147747095Y-90765809D02*
X147651857Y-90813428D01*
X147651857Y-90813428D02*
X147270905Y-90813428D01*
X148794714Y-91289619D02*
X148223286Y-91289619D01*
X148509000Y-91289619D02*
X148509000Y-90289619D01*
X148509000Y-90289619D02*
X148413762Y-90432476D01*
X148413762Y-90432476D02*
X148318524Y-90527714D01*
X148318524Y-90527714D02*
X148223286Y-90575333D01*
X128030524Y-30469809D02*
X128363857Y-30469809D01*
X128506714Y-30993619D02*
X128030524Y-30993619D01*
X128030524Y-30993619D02*
X128030524Y-29993619D01*
X128030524Y-29993619D02*
X128506714Y-29993619D01*
X129459095Y-30993619D02*
X128887667Y-30993619D01*
X129173381Y-30993619D02*
X129173381Y-29993619D01*
X129173381Y-29993619D02*
X129078143Y-30136476D01*
X129078143Y-30136476D02*
X128982905Y-30231714D01*
X128982905Y-30231714D02*
X128887667Y-30279333D01*
X124139761Y-72617619D02*
X123568333Y-72617619D01*
X123854047Y-72617619D02*
X123854047Y-71617619D01*
X123854047Y-71617619D02*
X123758809Y-71760476D01*
X123758809Y-71760476D02*
X123663571Y-71855714D01*
X123663571Y-71855714D02*
X123568333Y-71903333D01*
X124473095Y-71617619D02*
X125139761Y-71617619D01*
X125139761Y-71617619D02*
X124711190Y-72617619D01*
X125711190Y-71617619D02*
X125806428Y-71617619D01*
X125806428Y-71617619D02*
X125901666Y-71665238D01*
X125901666Y-71665238D02*
X125949285Y-71712857D01*
X125949285Y-71712857D02*
X125996904Y-71808095D01*
X125996904Y-71808095D02*
X126044523Y-71998571D01*
X126044523Y-71998571D02*
X126044523Y-72236666D01*
X126044523Y-72236666D02*
X125996904Y-72427142D01*
X125996904Y-72427142D02*
X125949285Y-72522380D01*
X125949285Y-72522380D02*
X125901666Y-72570000D01*
X125901666Y-72570000D02*
X125806428Y-72617619D01*
X125806428Y-72617619D02*
X125711190Y-72617619D01*
X125711190Y-72617619D02*
X125615952Y-72570000D01*
X125615952Y-72570000D02*
X125568333Y-72522380D01*
X125568333Y-72522380D02*
X125520714Y-72427142D01*
X125520714Y-72427142D02*
X125473095Y-72236666D01*
X125473095Y-72236666D02*
X125473095Y-71998571D01*
X125473095Y-71998571D02*
X125520714Y-71808095D01*
X125520714Y-71808095D02*
X125568333Y-71712857D01*
X125568333Y-71712857D02*
X125615952Y-71665238D01*
X125615952Y-71665238D02*
X125711190Y-71617619D01*
X126330238Y-71617619D02*
X126663571Y-72617619D01*
X126663571Y-72617619D02*
X126996904Y-71617619D01*
X147842333Y-88143619D02*
X147509000Y-87667428D01*
X147270905Y-88143619D02*
X147270905Y-87143619D01*
X147270905Y-87143619D02*
X147651857Y-87143619D01*
X147651857Y-87143619D02*
X147747095Y-87191238D01*
X147747095Y-87191238D02*
X147794714Y-87238857D01*
X147794714Y-87238857D02*
X147842333Y-87334095D01*
X147842333Y-87334095D02*
X147842333Y-87476952D01*
X147842333Y-87476952D02*
X147794714Y-87572190D01*
X147794714Y-87572190D02*
X147747095Y-87619809D01*
X147747095Y-87619809D02*
X147651857Y-87667428D01*
X147651857Y-87667428D02*
X147270905Y-87667428D01*
X148223286Y-87238857D02*
X148270905Y-87191238D01*
X148270905Y-87191238D02*
X148366143Y-87143619D01*
X148366143Y-87143619D02*
X148604238Y-87143619D01*
X148604238Y-87143619D02*
X148699476Y-87191238D01*
X148699476Y-87191238D02*
X148747095Y-87238857D01*
X148747095Y-87238857D02*
X148794714Y-87334095D01*
X148794714Y-87334095D02*
X148794714Y-87429333D01*
X148794714Y-87429333D02*
X148747095Y-87572190D01*
X148747095Y-87572190D02*
X148175667Y-88143619D01*
X148175667Y-88143619D02*
X148794714Y-88143619D01*
X145762905Y-76175619D02*
X145762905Y-75175619D01*
X145762905Y-75175619D02*
X146001000Y-75175619D01*
X146001000Y-75175619D02*
X146143857Y-75223238D01*
X146143857Y-75223238D02*
X146239095Y-75318476D01*
X146239095Y-75318476D02*
X146286714Y-75413714D01*
X146286714Y-75413714D02*
X146334333Y-75604190D01*
X146334333Y-75604190D02*
X146334333Y-75747047D01*
X146334333Y-75747047D02*
X146286714Y-75937523D01*
X146286714Y-75937523D02*
X146239095Y-76032761D01*
X146239095Y-76032761D02*
X146143857Y-76128000D01*
X146143857Y-76128000D02*
X146001000Y-76175619D01*
X146001000Y-76175619D02*
X145762905Y-76175619D01*
X146715286Y-75270857D02*
X146762905Y-75223238D01*
X146762905Y-75223238D02*
X146858143Y-75175619D01*
X146858143Y-75175619D02*
X147096238Y-75175619D01*
X147096238Y-75175619D02*
X147191476Y-75223238D01*
X147191476Y-75223238D02*
X147239095Y-75270857D01*
X147239095Y-75270857D02*
X147286714Y-75366095D01*
X147286714Y-75366095D02*
X147286714Y-75461333D01*
X147286714Y-75461333D02*
X147239095Y-75604190D01*
X147239095Y-75604190D02*
X146667667Y-76175619D01*
X146667667Y-76175619D02*
X147286714Y-76175619D01*
X133801095Y-61997619D02*
X133801095Y-62807142D01*
X133801095Y-62807142D02*
X133848714Y-62902380D01*
X133848714Y-62902380D02*
X133896333Y-62950000D01*
X133896333Y-62950000D02*
X133991571Y-62997619D01*
X133991571Y-62997619D02*
X134182047Y-62997619D01*
X134182047Y-62997619D02*
X134277285Y-62950000D01*
X134277285Y-62950000D02*
X134324904Y-62902380D01*
X134324904Y-62902380D02*
X134372523Y-62807142D01*
X134372523Y-62807142D02*
X134372523Y-61997619D01*
X134801095Y-62092857D02*
X134848714Y-62045238D01*
X134848714Y-62045238D02*
X134943952Y-61997619D01*
X134943952Y-61997619D02*
X135182047Y-61997619D01*
X135182047Y-61997619D02*
X135277285Y-62045238D01*
X135277285Y-62045238D02*
X135324904Y-62092857D01*
X135324904Y-62092857D02*
X135372523Y-62188095D01*
X135372523Y-62188095D02*
X135372523Y-62283333D01*
X135372523Y-62283333D02*
X135324904Y-62426190D01*
X135324904Y-62426190D02*
X134753476Y-62997619D01*
X134753476Y-62997619D02*
X135372523Y-62997619D01*
X77992524Y-30469809D02*
X78325857Y-30469809D01*
X78468714Y-30993619D02*
X77992524Y-30993619D01*
X77992524Y-30993619D02*
X77992524Y-29993619D01*
X77992524Y-29993619D02*
X78468714Y-29993619D01*
X79325857Y-30326952D02*
X79325857Y-30993619D01*
X79087762Y-29946000D02*
X78849667Y-30660285D01*
X78849667Y-30660285D02*
X79468714Y-30660285D01*
X78889761Y-67117619D02*
X78318333Y-67117619D01*
X78604047Y-67117619D02*
X78604047Y-66117619D01*
X78604047Y-66117619D02*
X78508809Y-66260476D01*
X78508809Y-66260476D02*
X78413571Y-66355714D01*
X78413571Y-66355714D02*
X78318333Y-66403333D01*
X79223095Y-66117619D02*
X79889761Y-66117619D01*
X79889761Y-66117619D02*
X79461190Y-67117619D01*
X80461190Y-66117619D02*
X80556428Y-66117619D01*
X80556428Y-66117619D02*
X80651666Y-66165238D01*
X80651666Y-66165238D02*
X80699285Y-66212857D01*
X80699285Y-66212857D02*
X80746904Y-66308095D01*
X80746904Y-66308095D02*
X80794523Y-66498571D01*
X80794523Y-66498571D02*
X80794523Y-66736666D01*
X80794523Y-66736666D02*
X80746904Y-66927142D01*
X80746904Y-66927142D02*
X80699285Y-67022380D01*
X80699285Y-67022380D02*
X80651666Y-67070000D01*
X80651666Y-67070000D02*
X80556428Y-67117619D01*
X80556428Y-67117619D02*
X80461190Y-67117619D01*
X80461190Y-67117619D02*
X80365952Y-67070000D01*
X80365952Y-67070000D02*
X80318333Y-67022380D01*
X80318333Y-67022380D02*
X80270714Y-66927142D01*
X80270714Y-66927142D02*
X80223095Y-66736666D01*
X80223095Y-66736666D02*
X80223095Y-66498571D01*
X80223095Y-66498571D02*
X80270714Y-66308095D01*
X80270714Y-66308095D02*
X80318333Y-66212857D01*
X80318333Y-66212857D02*
X80365952Y-66165238D01*
X80365952Y-66165238D02*
X80461190Y-66117619D01*
X81080238Y-66117619D02*
X81413571Y-67117619D01*
X81413571Y-67117619D02*
X81746904Y-66117619D01*
X133126333Y-75504380D02*
X133078714Y-75552000D01*
X133078714Y-75552000D02*
X132935857Y-75599619D01*
X132935857Y-75599619D02*
X132840619Y-75599619D01*
X132840619Y-75599619D02*
X132697762Y-75552000D01*
X132697762Y-75552000D02*
X132602524Y-75456761D01*
X132602524Y-75456761D02*
X132554905Y-75361523D01*
X132554905Y-75361523D02*
X132507286Y-75171047D01*
X132507286Y-75171047D02*
X132507286Y-75028190D01*
X132507286Y-75028190D02*
X132554905Y-74837714D01*
X132554905Y-74837714D02*
X132602524Y-74742476D01*
X132602524Y-74742476D02*
X132697762Y-74647238D01*
X132697762Y-74647238D02*
X132840619Y-74599619D01*
X132840619Y-74599619D02*
X132935857Y-74599619D01*
X132935857Y-74599619D02*
X133078714Y-74647238D01*
X133078714Y-74647238D02*
X133126333Y-74694857D01*
X133983476Y-74932952D02*
X133983476Y-75599619D01*
X133745381Y-74552000D02*
X133507286Y-75266285D01*
X133507286Y-75266285D02*
X134126333Y-75266285D01*
X71580905Y-106452619D02*
X71580905Y-105452619D01*
X72152333Y-106452619D02*
X71723762Y-105881190D01*
X72152333Y-105452619D02*
X71580905Y-106024047D01*
X73009476Y-105785952D02*
X73009476Y-106452619D01*
X72771381Y-105405000D02*
X72533286Y-106119285D01*
X72533286Y-106119285D02*
X73152333Y-106119285D01*
X71594905Y-86252619D02*
X71594905Y-85252619D01*
X72166333Y-86252619D02*
X71737762Y-85681190D01*
X72166333Y-85252619D02*
X71594905Y-85824047D01*
X73118714Y-86252619D02*
X72547286Y-86252619D01*
X72833000Y-86252619D02*
X72833000Y-85252619D01*
X72833000Y-85252619D02*
X72737762Y-85395476D01*
X72737762Y-85395476D02*
X72642524Y-85490714D01*
X72642524Y-85490714D02*
X72547286Y-85538333D01*
X143730905Y-79737619D02*
X143730905Y-78737619D01*
X143730905Y-78737619D02*
X143969000Y-78737619D01*
X143969000Y-78737619D02*
X144111857Y-78785238D01*
X144111857Y-78785238D02*
X144207095Y-78880476D01*
X144207095Y-78880476D02*
X144254714Y-78975714D01*
X144254714Y-78975714D02*
X144302333Y-79166190D01*
X144302333Y-79166190D02*
X144302333Y-79309047D01*
X144302333Y-79309047D02*
X144254714Y-79499523D01*
X144254714Y-79499523D02*
X144207095Y-79594761D01*
X144207095Y-79594761D02*
X144111857Y-79690000D01*
X144111857Y-79690000D02*
X143969000Y-79737619D01*
X143969000Y-79737619D02*
X143730905Y-79737619D01*
X144635667Y-78737619D02*
X145254714Y-78737619D01*
X145254714Y-78737619D02*
X144921381Y-79118571D01*
X144921381Y-79118571D02*
X145064238Y-79118571D01*
X145064238Y-79118571D02*
X145159476Y-79166190D01*
X145159476Y-79166190D02*
X145207095Y-79213809D01*
X145207095Y-79213809D02*
X145254714Y-79309047D01*
X145254714Y-79309047D02*
X145254714Y-79547142D01*
X145254714Y-79547142D02*
X145207095Y-79642380D01*
X145207095Y-79642380D02*
X145159476Y-79690000D01*
X145159476Y-79690000D02*
X145064238Y-79737619D01*
X145064238Y-79737619D02*
X144778524Y-79737619D01*
X144778524Y-79737619D02*
X144683286Y-79690000D01*
X144683286Y-79690000D02*
X144635667Y-79642380D01*
X145112000Y-66070332D02*
X145159619Y-65927475D01*
X145159619Y-65927475D02*
X145159619Y-65689380D01*
X145159619Y-65689380D02*
X145112000Y-65594142D01*
X145112000Y-65594142D02*
X145064380Y-65546523D01*
X145064380Y-65546523D02*
X144969142Y-65498904D01*
X144969142Y-65498904D02*
X144873904Y-65498904D01*
X144873904Y-65498904D02*
X144778666Y-65546523D01*
X144778666Y-65546523D02*
X144731047Y-65594142D01*
X144731047Y-65594142D02*
X144683428Y-65689380D01*
X144683428Y-65689380D02*
X144635809Y-65879856D01*
X144635809Y-65879856D02*
X144588190Y-65975094D01*
X144588190Y-65975094D02*
X144540571Y-66022713D01*
X144540571Y-66022713D02*
X144445333Y-66070332D01*
X144445333Y-66070332D02*
X144350095Y-66070332D01*
X144350095Y-66070332D02*
X144254857Y-66022713D01*
X144254857Y-66022713D02*
X144207238Y-65975094D01*
X144207238Y-65975094D02*
X144159619Y-65879856D01*
X144159619Y-65879856D02*
X144159619Y-65641761D01*
X144159619Y-65641761D02*
X144207238Y-65498904D01*
X144159619Y-65165570D02*
X145159619Y-64927475D01*
X145159619Y-64927475D02*
X144445333Y-64736999D01*
X144445333Y-64736999D02*
X145159619Y-64546523D01*
X145159619Y-64546523D02*
X144159619Y-64308428D01*
X145159619Y-63403666D02*
X145159619Y-63975094D01*
X145159619Y-63689380D02*
X144159619Y-63689380D01*
X144159619Y-63689380D02*
X144302476Y-63784618D01*
X144302476Y-63784618D02*
X144397714Y-63879856D01*
X144397714Y-63879856D02*
X144445333Y-63975094D01*
X147794905Y-72619619D02*
X147794905Y-71619619D01*
X147794905Y-71619619D02*
X148033000Y-71619619D01*
X148033000Y-71619619D02*
X148175857Y-71667238D01*
X148175857Y-71667238D02*
X148271095Y-71762476D01*
X148271095Y-71762476D02*
X148318714Y-71857714D01*
X148318714Y-71857714D02*
X148366333Y-72048190D01*
X148366333Y-72048190D02*
X148366333Y-72191047D01*
X148366333Y-72191047D02*
X148318714Y-72381523D01*
X148318714Y-72381523D02*
X148271095Y-72476761D01*
X148271095Y-72476761D02*
X148175857Y-72572000D01*
X148175857Y-72572000D02*
X148033000Y-72619619D01*
X148033000Y-72619619D02*
X147794905Y-72619619D01*
X149318714Y-72619619D02*
X148747286Y-72619619D01*
X149033000Y-72619619D02*
X149033000Y-71619619D01*
X149033000Y-71619619D02*
X148937762Y-71762476D01*
X148937762Y-71762476D02*
X148842524Y-71857714D01*
X148842524Y-71857714D02*
X148747286Y-71905333D01*
X137634905Y-90417619D02*
X137634905Y-89417619D01*
X137634905Y-89417619D02*
X137873000Y-89417619D01*
X137873000Y-89417619D02*
X138015857Y-89465238D01*
X138015857Y-89465238D02*
X138111095Y-89560476D01*
X138111095Y-89560476D02*
X138158714Y-89655714D01*
X138158714Y-89655714D02*
X138206333Y-89846190D01*
X138206333Y-89846190D02*
X138206333Y-89989047D01*
X138206333Y-89989047D02*
X138158714Y-90179523D01*
X138158714Y-90179523D02*
X138111095Y-90274761D01*
X138111095Y-90274761D02*
X138015857Y-90370000D01*
X138015857Y-90370000D02*
X137873000Y-90417619D01*
X137873000Y-90417619D02*
X137634905Y-90417619D01*
X139063476Y-89417619D02*
X138873000Y-89417619D01*
X138873000Y-89417619D02*
X138777762Y-89465238D01*
X138777762Y-89465238D02*
X138730143Y-89512857D01*
X138730143Y-89512857D02*
X138634905Y-89655714D01*
X138634905Y-89655714D02*
X138587286Y-89846190D01*
X138587286Y-89846190D02*
X138587286Y-90227142D01*
X138587286Y-90227142D02*
X138634905Y-90322380D01*
X138634905Y-90322380D02*
X138682524Y-90370000D01*
X138682524Y-90370000D02*
X138777762Y-90417619D01*
X138777762Y-90417619D02*
X138968238Y-90417619D01*
X138968238Y-90417619D02*
X139063476Y-90370000D01*
X139063476Y-90370000D02*
X139111095Y-90322380D01*
X139111095Y-90322380D02*
X139158714Y-90227142D01*
X139158714Y-90227142D02*
X139158714Y-89989047D01*
X139158714Y-89989047D02*
X139111095Y-89893809D01*
X139111095Y-89893809D02*
X139063476Y-89846190D01*
X139063476Y-89846190D02*
X138968238Y-89798571D01*
X138968238Y-89798571D02*
X138777762Y-89798571D01*
X138777762Y-89798571D02*
X138682524Y-89846190D01*
X138682524Y-89846190D02*
X138634905Y-89893809D01*
X138634905Y-89893809D02*
X138587286Y-89989047D01*
X91794905Y-86252619D02*
X91794905Y-85252619D01*
X92366333Y-86252619D02*
X91937762Y-85681190D01*
X92366333Y-85252619D02*
X91794905Y-85824047D01*
X92747286Y-85347857D02*
X92794905Y-85300238D01*
X92794905Y-85300238D02*
X92890143Y-85252619D01*
X92890143Y-85252619D02*
X93128238Y-85252619D01*
X93128238Y-85252619D02*
X93223476Y-85300238D01*
X93223476Y-85300238D02*
X93271095Y-85347857D01*
X93271095Y-85347857D02*
X93318714Y-85443095D01*
X93318714Y-85443095D02*
X93318714Y-85538333D01*
X93318714Y-85538333D02*
X93271095Y-85681190D01*
X93271095Y-85681190D02*
X92699667Y-86252619D01*
X92699667Y-86252619D02*
X93318714Y-86252619D01*
X111994905Y-106452619D02*
X111994905Y-105452619D01*
X112566333Y-106452619D02*
X112137762Y-105881190D01*
X112566333Y-105452619D02*
X111994905Y-106024047D01*
X113423476Y-105452619D02*
X113233000Y-105452619D01*
X113233000Y-105452619D02*
X113137762Y-105500238D01*
X113137762Y-105500238D02*
X113090143Y-105547857D01*
X113090143Y-105547857D02*
X112994905Y-105690714D01*
X112994905Y-105690714D02*
X112947286Y-105881190D01*
X112947286Y-105881190D02*
X112947286Y-106262142D01*
X112947286Y-106262142D02*
X112994905Y-106357380D01*
X112994905Y-106357380D02*
X113042524Y-106405000D01*
X113042524Y-106405000D02*
X113137762Y-106452619D01*
X113137762Y-106452619D02*
X113328238Y-106452619D01*
X113328238Y-106452619D02*
X113423476Y-106405000D01*
X113423476Y-106405000D02*
X113471095Y-106357380D01*
X113471095Y-106357380D02*
X113518714Y-106262142D01*
X113518714Y-106262142D02*
X113518714Y-106024047D01*
X113518714Y-106024047D02*
X113471095Y-105928809D01*
X113471095Y-105928809D02*
X113423476Y-105881190D01*
X113423476Y-105881190D02*
X113328238Y-105833571D01*
X113328238Y-105833571D02*
X113137762Y-105833571D01*
X113137762Y-105833571D02*
X113042524Y-105881190D01*
X113042524Y-105881190D02*
X112994905Y-105928809D01*
X112994905Y-105928809D02*
X112947286Y-106024047D01*
X147842333Y-94141619D02*
X147509000Y-93665428D01*
X147270905Y-94141619D02*
X147270905Y-93141619D01*
X147270905Y-93141619D02*
X147651857Y-93141619D01*
X147651857Y-93141619D02*
X147747095Y-93189238D01*
X147747095Y-93189238D02*
X147794714Y-93236857D01*
X147794714Y-93236857D02*
X147842333Y-93332095D01*
X147842333Y-93332095D02*
X147842333Y-93474952D01*
X147842333Y-93474952D02*
X147794714Y-93570190D01*
X147794714Y-93570190D02*
X147747095Y-93617809D01*
X147747095Y-93617809D02*
X147651857Y-93665428D01*
X147651857Y-93665428D02*
X147270905Y-93665428D01*
X148175667Y-93141619D02*
X148794714Y-93141619D01*
X148794714Y-93141619D02*
X148461381Y-93522571D01*
X148461381Y-93522571D02*
X148604238Y-93522571D01*
X148604238Y-93522571D02*
X148699476Y-93570190D01*
X148699476Y-93570190D02*
X148747095Y-93617809D01*
X148747095Y-93617809D02*
X148794714Y-93713047D01*
X148794714Y-93713047D02*
X148794714Y-93951142D01*
X148794714Y-93951142D02*
X148747095Y-94046380D01*
X148747095Y-94046380D02*
X148699476Y-94094000D01*
X148699476Y-94094000D02*
X148604238Y-94141619D01*
X148604238Y-94141619D02*
X148318524Y-94141619D01*
X148318524Y-94141619D02*
X148223286Y-94094000D01*
X148223286Y-94094000D02*
X148175667Y-94046380D01*
X111994905Y-86252619D02*
X111994905Y-85252619D01*
X112566333Y-86252619D02*
X112137762Y-85681190D01*
X112566333Y-85252619D02*
X111994905Y-85824047D01*
X112899667Y-85252619D02*
X113518714Y-85252619D01*
X113518714Y-85252619D02*
X113185381Y-85633571D01*
X113185381Y-85633571D02*
X113328238Y-85633571D01*
X113328238Y-85633571D02*
X113423476Y-85681190D01*
X113423476Y-85681190D02*
X113471095Y-85728809D01*
X113471095Y-85728809D02*
X113518714Y-85824047D01*
X113518714Y-85824047D02*
X113518714Y-86062142D01*
X113518714Y-86062142D02*
X113471095Y-86157380D01*
X113471095Y-86157380D02*
X113423476Y-86205000D01*
X113423476Y-86205000D02*
X113328238Y-86252619D01*
X113328238Y-86252619D02*
X113042524Y-86252619D01*
X113042524Y-86252619D02*
X112947286Y-86205000D01*
X112947286Y-86205000D02*
X112899667Y-86157380D01*
X139666905Y-86861619D02*
X139666905Y-85861619D01*
X139666905Y-85861619D02*
X139905000Y-85861619D01*
X139905000Y-85861619D02*
X140047857Y-85909238D01*
X140047857Y-85909238D02*
X140143095Y-86004476D01*
X140143095Y-86004476D02*
X140190714Y-86099714D01*
X140190714Y-86099714D02*
X140238333Y-86290190D01*
X140238333Y-86290190D02*
X140238333Y-86433047D01*
X140238333Y-86433047D02*
X140190714Y-86623523D01*
X140190714Y-86623523D02*
X140143095Y-86718761D01*
X140143095Y-86718761D02*
X140047857Y-86814000D01*
X140047857Y-86814000D02*
X139905000Y-86861619D01*
X139905000Y-86861619D02*
X139666905Y-86861619D01*
X141143095Y-85861619D02*
X140666905Y-85861619D01*
X140666905Y-85861619D02*
X140619286Y-86337809D01*
X140619286Y-86337809D02*
X140666905Y-86290190D01*
X140666905Y-86290190D02*
X140762143Y-86242571D01*
X140762143Y-86242571D02*
X141000238Y-86242571D01*
X141000238Y-86242571D02*
X141095476Y-86290190D01*
X141095476Y-86290190D02*
X141143095Y-86337809D01*
X141143095Y-86337809D02*
X141190714Y-86433047D01*
X141190714Y-86433047D02*
X141190714Y-86671142D01*
X141190714Y-86671142D02*
X141143095Y-86766380D01*
X141143095Y-86766380D02*
X141095476Y-86814000D01*
X141095476Y-86814000D02*
X141000238Y-86861619D01*
X141000238Y-86861619D02*
X140762143Y-86861619D01*
X140762143Y-86861619D02*
X140666905Y-86814000D01*
X140666905Y-86814000D02*
X140619286Y-86766380D01*
X141698905Y-83305619D02*
X141698905Y-82305619D01*
X141698905Y-82305619D02*
X141937000Y-82305619D01*
X141937000Y-82305619D02*
X142079857Y-82353238D01*
X142079857Y-82353238D02*
X142175095Y-82448476D01*
X142175095Y-82448476D02*
X142222714Y-82543714D01*
X142222714Y-82543714D02*
X142270333Y-82734190D01*
X142270333Y-82734190D02*
X142270333Y-82877047D01*
X142270333Y-82877047D02*
X142222714Y-83067523D01*
X142222714Y-83067523D02*
X142175095Y-83162761D01*
X142175095Y-83162761D02*
X142079857Y-83258000D01*
X142079857Y-83258000D02*
X141937000Y-83305619D01*
X141937000Y-83305619D02*
X141698905Y-83305619D01*
X143127476Y-82638952D02*
X143127476Y-83305619D01*
X142889381Y-82258000D02*
X142651286Y-82972285D01*
X142651286Y-82972285D02*
X143270333Y-82972285D01*
X139457667Y-111806000D02*
X139600524Y-111853619D01*
X139600524Y-111853619D02*
X139838619Y-111853619D01*
X139838619Y-111853619D02*
X139933857Y-111806000D01*
X139933857Y-111806000D02*
X139981476Y-111758380D01*
X139981476Y-111758380D02*
X140029095Y-111663142D01*
X140029095Y-111663142D02*
X140029095Y-111567904D01*
X140029095Y-111567904D02*
X139981476Y-111472666D01*
X139981476Y-111472666D02*
X139933857Y-111425047D01*
X139933857Y-111425047D02*
X139838619Y-111377428D01*
X139838619Y-111377428D02*
X139648143Y-111329809D01*
X139648143Y-111329809D02*
X139552905Y-111282190D01*
X139552905Y-111282190D02*
X139505286Y-111234571D01*
X139505286Y-111234571D02*
X139457667Y-111139333D01*
X139457667Y-111139333D02*
X139457667Y-111044095D01*
X139457667Y-111044095D02*
X139505286Y-110948857D01*
X139505286Y-110948857D02*
X139552905Y-110901238D01*
X139552905Y-110901238D02*
X139648143Y-110853619D01*
X139648143Y-110853619D02*
X139886238Y-110853619D01*
X139886238Y-110853619D02*
X140029095Y-110901238D01*
X140362429Y-110853619D02*
X140600524Y-111853619D01*
X140600524Y-111853619D02*
X140791000Y-111139333D01*
X140791000Y-111139333D02*
X140981476Y-111853619D01*
X140981476Y-111853619D02*
X141219572Y-110853619D01*
X141552905Y-110948857D02*
X141600524Y-110901238D01*
X141600524Y-110901238D02*
X141695762Y-110853619D01*
X141695762Y-110853619D02*
X141933857Y-110853619D01*
X141933857Y-110853619D02*
X142029095Y-110901238D01*
X142029095Y-110901238D02*
X142076714Y-110948857D01*
X142076714Y-110948857D02*
X142124333Y-111044095D01*
X142124333Y-111044095D02*
X142124333Y-111139333D01*
X142124333Y-111139333D02*
X142076714Y-111282190D01*
X142076714Y-111282190D02*
X141505286Y-111853619D01*
X141505286Y-111853619D02*
X142124333Y-111853619D01*
X132531095Y-28723619D02*
X132531095Y-29533142D01*
X132531095Y-29533142D02*
X132578714Y-29628380D01*
X132578714Y-29628380D02*
X132626333Y-29676000D01*
X132626333Y-29676000D02*
X132721571Y-29723619D01*
X132721571Y-29723619D02*
X132912047Y-29723619D01*
X132912047Y-29723619D02*
X133007285Y-29676000D01*
X133007285Y-29676000D02*
X133054904Y-29628380D01*
X133054904Y-29628380D02*
X133102523Y-29533142D01*
X133102523Y-29533142D02*
X133102523Y-28723619D01*
X134102523Y-29723619D02*
X133531095Y-29723619D01*
X133816809Y-29723619D02*
X133816809Y-28723619D01*
X133816809Y-28723619D02*
X133721571Y-28866476D01*
X133721571Y-28866476D02*
X133626333Y-28961714D01*
X133626333Y-28961714D02*
X133531095Y-29009333D01*
D14*
X102473000Y-70014000D02*
X82473000Y-70014000D01*
X82473000Y-70014000D02*
X82473000Y-30014000D01*
X82473000Y-30014000D02*
X102473000Y-30014000D01*
X102473000Y-30014000D02*
X102473000Y-70014000D01*
D10*
X85533000Y-108245000D02*
X85533000Y-107245000D01*
X85533000Y-121245000D02*
X85533000Y-120245000D01*
X85533000Y-121245000D02*
X86533000Y-121245000D01*
X86533000Y-107245000D02*
X85533000Y-107245000D01*
X98533000Y-121245000D02*
X99533000Y-121245000D01*
X99533000Y-107245000D02*
X98533000Y-107245000D01*
X99533000Y-107245000D02*
X99533000Y-108245000D01*
X99533000Y-120245000D02*
X99533000Y-121245000D01*
D15*
X133269000Y-93511000D02*
X132619000Y-93511000D01*
X132619000Y-94631000D02*
X132619000Y-92391000D01*
X132619000Y-92391000D02*
X128379000Y-92391000D01*
X132019000Y-94631000D02*
X132019000Y-92391000D01*
X131899000Y-94631000D02*
X131899000Y-92391000D01*
X131779000Y-94631000D02*
X131779000Y-92391000D01*
X128379000Y-94631000D02*
X132619000Y-94631000D01*
X128379000Y-92391000D02*
X128379000Y-94631000D01*
X127729000Y-93511000D02*
X128379000Y-93511000D01*
X145204064Y-91464000D02*
X144749936Y-91464000D01*
X145204064Y-89994000D02*
X144749936Y-89994000D01*
D14*
X127503000Y-70014000D02*
X107503000Y-70014000D01*
X107503000Y-70014000D02*
X107503000Y-30014000D01*
X107503000Y-30014000D02*
X127503000Y-30014000D01*
X127503000Y-30014000D02*
X127503000Y-70014000D01*
D15*
X145204064Y-88416000D02*
X144749936Y-88416000D01*
X145204064Y-86946000D02*
X144749936Y-86946000D01*
X143175000Y-75743000D02*
X142525000Y-75743000D01*
X142525000Y-76863000D02*
X142525000Y-74623000D01*
X142525000Y-74623000D02*
X138285000Y-74623000D01*
X141925000Y-76863000D02*
X141925000Y-74623000D01*
X141805000Y-76863000D02*
X141805000Y-74623000D01*
X141685000Y-76863000D02*
X141685000Y-74623000D01*
X138285000Y-76863000D02*
X142525000Y-76863000D01*
X138285000Y-74623000D02*
X138285000Y-76863000D01*
X137635000Y-75743000D02*
X138285000Y-75743000D01*
X128613000Y-71817000D02*
X128613000Y-65807000D01*
X135433000Y-69567000D02*
X135433000Y-65807000D01*
X128613000Y-65807000D02*
X129873000Y-65807000D01*
X135433000Y-65807000D02*
X134173000Y-65807000D01*
D14*
X77513000Y-70014000D02*
X57513000Y-70014000D01*
X57513000Y-70014000D02*
X57513000Y-30014000D01*
X57513000Y-30014000D02*
X77513000Y-30014000D01*
X77513000Y-30014000D02*
X77513000Y-70014000D01*
D15*
X133554252Y-74192000D02*
X133031748Y-74192000D01*
X133554252Y-72722000D02*
X133031748Y-72722000D01*
D10*
X65319000Y-108245000D02*
X65319000Y-107245000D01*
X65319000Y-121245000D02*
X65319000Y-120245000D01*
X65319000Y-121245000D02*
X66319000Y-121245000D01*
X66319000Y-107245000D02*
X65319000Y-107245000D01*
X78319000Y-121245000D02*
X79319000Y-121245000D01*
X79319000Y-107245000D02*
X78319000Y-107245000D01*
X79319000Y-107245000D02*
X79319000Y-108245000D01*
X79319000Y-120245000D02*
X79319000Y-121245000D01*
X65333000Y-88045000D02*
X65333000Y-87045000D01*
X65333000Y-101045000D02*
X65333000Y-100045000D01*
X65333000Y-101045000D02*
X66333000Y-101045000D01*
X66333000Y-87045000D02*
X65333000Y-87045000D01*
X78333000Y-101045000D02*
X79333000Y-101045000D01*
X79333000Y-87045000D02*
X78333000Y-87045000D01*
X79333000Y-87045000D02*
X79333000Y-88045000D01*
X79333000Y-100045000D02*
X79333000Y-101045000D01*
G36*
X97500196Y-124775407D02*
G01*
X99777715Y-124777382D01*
X98661491Y-125893585D01*
X97545267Y-127009788D01*
X95265793Y-127009788D01*
X92986320Y-127009788D01*
X94104498Y-125891610D01*
X95222677Y-124773432D01*
X97500196Y-124775407D01*
G37*
G36*
X70311133Y-124775406D02*
G01*
X72431715Y-124777382D01*
X71315491Y-125893585D01*
X70199267Y-127009788D01*
X68076729Y-127009788D01*
X65954191Y-127009788D01*
X67072371Y-125891609D01*
X68190550Y-124773430D01*
X70311133Y-124775406D01*
G37*
G36*
X75717558Y-124775406D02*
G01*
X77838141Y-124777382D01*
X76721917Y-125893585D01*
X75605693Y-127009788D01*
X73483155Y-127009788D01*
X71360617Y-127009788D01*
X72478796Y-125891609D01*
X73596976Y-124773430D01*
X75717558Y-124775406D01*
G37*
G36*
X81123984Y-124775406D02*
G01*
X83244567Y-124777382D01*
X82128343Y-125893585D01*
X81012119Y-127009788D01*
X78889581Y-127009788D01*
X76767043Y-127009788D01*
X77885222Y-125891609D01*
X79003401Y-124773430D01*
X81123984Y-124775406D01*
G37*
G36*
X86530410Y-124775406D02*
G01*
X88650992Y-124777382D01*
X87534768Y-125893585D01*
X86418545Y-127009788D01*
X84296006Y-127009788D01*
X82173468Y-127009788D01*
X83291648Y-125891609D01*
X84409827Y-124773430D01*
X86530410Y-124775406D01*
G37*
G36*
X91936835Y-124775406D02*
G01*
X94057418Y-124777382D01*
X92941194Y-125893585D01*
X91824970Y-127009788D01*
X89702432Y-127009788D01*
X87579894Y-127009788D01*
X88698073Y-125891609D01*
X89816253Y-124773430D01*
X91936835Y-124775406D01*
G37*
G36*
X109101635Y-123292374D02*
G01*
X114239307Y-123294342D01*
X112381571Y-125152065D01*
X110523835Y-127009788D01*
X105384208Y-127009788D01*
X100244581Y-127009788D01*
X102104272Y-125150098D01*
X103963963Y-123290407D01*
X109101635Y-123292374D01*
G37*
G36*
X126943442Y-117731151D02*
G01*
X127131588Y-117919348D01*
X127310120Y-118098021D01*
X127478953Y-118267085D01*
X127638000Y-118426453D01*
X127787177Y-118576038D01*
X127926397Y-118715754D01*
X128055574Y-118845514D01*
X128174624Y-118965233D01*
X128283459Y-119074823D01*
X128381994Y-119174199D01*
X128470144Y-119263272D01*
X128547823Y-119341958D01*
X128614944Y-119410170D01*
X128671423Y-119467821D01*
X128717173Y-119514825D01*
X128752109Y-119551094D01*
X128776145Y-119576544D01*
X128789195Y-119591087D01*
X128791722Y-119594784D01*
X128783326Y-119595423D01*
X128759837Y-119596034D01*
X128721845Y-119596619D01*
X128669941Y-119597178D01*
X128604715Y-119597709D01*
X128526757Y-119598214D01*
X128436660Y-119598693D01*
X128335012Y-119599146D01*
X128222405Y-119599572D01*
X128099429Y-119599973D01*
X127966675Y-119600347D01*
X127824734Y-119600695D01*
X127674196Y-119601018D01*
X127515651Y-119601314D01*
X127349691Y-119601585D01*
X127176906Y-119601831D01*
X126997886Y-119602051D01*
X126813223Y-119602245D01*
X126623506Y-119602415D01*
X126429327Y-119602559D01*
X126231276Y-119602677D01*
X126029943Y-119602771D01*
X125825919Y-119602840D01*
X125619795Y-119602884D01*
X125412162Y-119602904D01*
X125203609Y-119602898D01*
X124994729Y-119602868D01*
X124786110Y-119602814D01*
X124578344Y-119602735D01*
X124372022Y-119602631D01*
X124167733Y-119602504D01*
X123966070Y-119602352D01*
X123767621Y-119602177D01*
X123572979Y-119601977D01*
X123382733Y-119601753D01*
X123197473Y-119601506D01*
X123017792Y-119601235D01*
X122844279Y-119600940D01*
X122677525Y-119600622D01*
X122518120Y-119600281D01*
X122366655Y-119599916D01*
X122223721Y-119599527D01*
X122089909Y-119599116D01*
X121965808Y-119598681D01*
X121852010Y-119598224D01*
X121749105Y-119597744D01*
X121657683Y-119597240D01*
X121578336Y-119596715D01*
X121511654Y-119596166D01*
X121458228Y-119595595D01*
X121418648Y-119595001D01*
X121393504Y-119594386D01*
X121383388Y-119593747D01*
X121383208Y-119593664D01*
X121388237Y-119587396D01*
X121404094Y-119570344D01*
X121430487Y-119542799D01*
X121467126Y-119505054D01*
X121513723Y-119457402D01*
X121569986Y-119400134D01*
X121635625Y-119333543D01*
X121710351Y-119257922D01*
X121793873Y-119173562D01*
X121885901Y-119080757D01*
X121986145Y-118979798D01*
X122094315Y-118870977D01*
X122210120Y-118754588D01*
X122333272Y-118630921D01*
X122463479Y-118500271D01*
X122600452Y-118362928D01*
X122743900Y-118219186D01*
X122893533Y-118069337D01*
X123049062Y-117913672D01*
X123210195Y-117752485D01*
X123232648Y-117730031D01*
X125087510Y-115875170D01*
X126943442Y-117731151D01*
G37*
G36*
X137746335Y-123295887D02*
G01*
X137762854Y-123311962D01*
X137789452Y-123338147D01*
X137825636Y-123373948D01*
X137870910Y-123418869D01*
X137924778Y-123472415D01*
X137986747Y-123534089D01*
X138056321Y-123603397D01*
X138133004Y-123679844D01*
X138216303Y-123762932D01*
X138305721Y-123852168D01*
X138400764Y-123947055D01*
X138500937Y-124047099D01*
X138605744Y-124151803D01*
X138714691Y-124260672D01*
X138827282Y-124373211D01*
X138943023Y-124488924D01*
X139061419Y-124607316D01*
X139181974Y-124727891D01*
X139304193Y-124850154D01*
X139427582Y-124973609D01*
X139551645Y-125097761D01*
X139675888Y-125222115D01*
X139799814Y-125346174D01*
X139922930Y-125469444D01*
X140044740Y-125591428D01*
X140164749Y-125711632D01*
X140282462Y-125829560D01*
X140397383Y-125944717D01*
X140509019Y-126056606D01*
X140616874Y-126164733D01*
X140720453Y-126268602D01*
X140819260Y-126367718D01*
X140912802Y-126461584D01*
X141000582Y-126549706D01*
X141082105Y-126631589D01*
X141156877Y-126706736D01*
X141224403Y-126774652D01*
X141284188Y-126834842D01*
X141335736Y-126886810D01*
X141378552Y-126930061D01*
X141412142Y-126964099D01*
X141436010Y-126988429D01*
X141449662Y-127002555D01*
X141452897Y-127006174D01*
X141444804Y-127006516D01*
X141421621Y-127006840D01*
X141383935Y-127007146D01*
X141332336Y-127007434D01*
X141267413Y-127007706D01*
X141189756Y-127007960D01*
X141099953Y-127008197D01*
X140998594Y-127008418D01*
X140886267Y-127008622D01*
X140763562Y-127008810D01*
X140631068Y-127008981D01*
X140489375Y-127009136D01*
X140339070Y-127009276D01*
X140180744Y-127009400D01*
X140014986Y-127009509D01*
X139842384Y-127009602D01*
X139663528Y-127009680D01*
X139479007Y-127009743D01*
X139289409Y-127009792D01*
X139095326Y-127009826D01*
X138897344Y-127009846D01*
X138696054Y-127009851D01*
X138492044Y-127009842D01*
X138285905Y-127009820D01*
X138078224Y-127009784D01*
X137869591Y-127009735D01*
X137660595Y-127009672D01*
X137451826Y-127009596D01*
X137243872Y-127009507D01*
X137037323Y-127009406D01*
X136832767Y-127009291D01*
X136630794Y-127009165D01*
X136431993Y-127009026D01*
X136236953Y-127008876D01*
X136046264Y-127008713D01*
X135860514Y-127008539D01*
X135680292Y-127008353D01*
X135506188Y-127008157D01*
X135338791Y-127007949D01*
X135178689Y-127007730D01*
X135026473Y-127007500D01*
X134882731Y-127007260D01*
X134748052Y-127007009D01*
X134623026Y-127006749D01*
X134508241Y-127006478D01*
X134404287Y-127006197D01*
X134311753Y-127005907D01*
X134231228Y-127005607D01*
X134163301Y-127005299D01*
X134108562Y-127004980D01*
X134067598Y-127004653D01*
X134041001Y-127004318D01*
X134029358Y-127003973D01*
X134028852Y-127003885D01*
X134034322Y-126997989D01*
X134050399Y-126981499D01*
X134076588Y-126954912D01*
X134112393Y-126918722D01*
X134157319Y-126873427D01*
X134210869Y-126819523D01*
X134272547Y-126757505D01*
X134341858Y-126687870D01*
X134418306Y-126611114D01*
X134501394Y-126527733D01*
X134590628Y-126438224D01*
X134685510Y-126343081D01*
X134785546Y-126242803D01*
X134890238Y-126137884D01*
X134999092Y-126028821D01*
X135111612Y-125916110D01*
X135227301Y-125800247D01*
X135345664Y-125681728D01*
X135466205Y-125561050D01*
X135588427Y-125438708D01*
X135711836Y-125315199D01*
X135835935Y-125191019D01*
X135960228Y-125066664D01*
X136084219Y-124942630D01*
X136207413Y-124819414D01*
X136329313Y-124697511D01*
X136449424Y-124577417D01*
X136567250Y-124459629D01*
X136682295Y-124344644D01*
X136794063Y-124232956D01*
X136902058Y-124125062D01*
X137005784Y-124021459D01*
X137104746Y-123922642D01*
X137198447Y-123829108D01*
X137286391Y-123741352D01*
X137368084Y-123659872D01*
X137443028Y-123585162D01*
X137510728Y-123517720D01*
X137570688Y-123458041D01*
X137622412Y-123406622D01*
X137665405Y-123363958D01*
X137699169Y-123330546D01*
X137723211Y-123306882D01*
X137737033Y-123293463D01*
X137740392Y-123290419D01*
X137746335Y-123295887D01*
G37*
G36*
X140896936Y-115882992D02*
G01*
X141154838Y-115883010D01*
X141408803Y-115883049D01*
X141658381Y-115883108D01*
X141903121Y-115883187D01*
X142142573Y-115883285D01*
X142376285Y-115883401D01*
X142603807Y-115883535D01*
X142824687Y-115883686D01*
X143038476Y-115883853D01*
X143244721Y-115884036D01*
X143442974Y-115884234D01*
X143632781Y-115884447D01*
X143813694Y-115884673D01*
X143985260Y-115884913D01*
X144147030Y-115885165D01*
X144298552Y-115885430D01*
X144439376Y-115885706D01*
X144569050Y-115885992D01*
X144687124Y-115886289D01*
X144793147Y-115886595D01*
X144886668Y-115886909D01*
X144967237Y-115887232D01*
X145034403Y-115887563D01*
X145087714Y-115887900D01*
X145126721Y-115888244D01*
X145150971Y-115888593D01*
X145160015Y-115888948D01*
X145160068Y-115888976D01*
X145154626Y-115894906D01*
X145138481Y-115911514D01*
X145112041Y-115938392D01*
X145075713Y-115975133D01*
X145029901Y-116021329D01*
X144975014Y-116076574D01*
X144911458Y-116140458D01*
X144839640Y-116212576D01*
X144759965Y-116292520D01*
X144672841Y-116379881D01*
X144578675Y-116474253D01*
X144477872Y-116575228D01*
X144370840Y-116682399D01*
X144257985Y-116795358D01*
X144139713Y-116913698D01*
X144016432Y-117037011D01*
X143888548Y-117164890D01*
X143756467Y-117296928D01*
X143620597Y-117432716D01*
X143481343Y-117571848D01*
X143339112Y-117713916D01*
X143304346Y-117748636D01*
X141448054Y-119602436D01*
X139623640Y-119602888D01*
X139455174Y-119602953D01*
X139290665Y-119603062D01*
X139130814Y-119603212D01*
X138976327Y-119603401D01*
X138827905Y-119603628D01*
X138686254Y-119603889D01*
X138552076Y-119604183D01*
X138426074Y-119604508D01*
X138308952Y-119604861D01*
X138201414Y-119605239D01*
X138104163Y-119605641D01*
X138017902Y-119606065D01*
X137943336Y-119606508D01*
X137881166Y-119606968D01*
X137832097Y-119607443D01*
X137796833Y-119607930D01*
X137776076Y-119608427D01*
X137770592Y-119608773D01*
X137767778Y-119610049D01*
X137763056Y-119613300D01*
X137756184Y-119618766D01*
X137746919Y-119626688D01*
X137735019Y-119637306D01*
X137720244Y-119650861D01*
X137702350Y-119667591D01*
X137681096Y-119687739D01*
X137656239Y-119711543D01*
X137627539Y-119739244D01*
X137594754Y-119771082D01*
X137557640Y-119807298D01*
X137515957Y-119848132D01*
X137469462Y-119893824D01*
X137417914Y-119944613D01*
X137361070Y-120000741D01*
X137298689Y-120062448D01*
X137230529Y-120129974D01*
X137156348Y-120203558D01*
X137075903Y-120283442D01*
X136988954Y-120369865D01*
X136895258Y-120463068D01*
X136794574Y-120563291D01*
X136686658Y-120670774D01*
X136571271Y-120785757D01*
X136448168Y-120908481D01*
X136317110Y-121039186D01*
X136177853Y-121178111D01*
X136030156Y-121325498D01*
X135873777Y-121481586D01*
X135708474Y-121646616D01*
X135534005Y-121820828D01*
X135350128Y-122004462D01*
X135156601Y-122197758D01*
X134953183Y-122400957D01*
X134739632Y-122614299D01*
X134515705Y-122838023D01*
X134281161Y-123072371D01*
X134041346Y-123311997D01*
X130340734Y-127009788D01*
X121778019Y-127009788D01*
X113215303Y-127009788D01*
X115074939Y-125150139D01*
X116934576Y-123290490D01*
X122859276Y-123288493D01*
X123225904Y-123288368D01*
X123577168Y-123288245D01*
X123913394Y-123288122D01*
X124234911Y-123288000D01*
X124542049Y-123287877D01*
X124835134Y-123287753D01*
X125114496Y-123287626D01*
X125380462Y-123287496D01*
X125633362Y-123287362D01*
X125873522Y-123287224D01*
X126101272Y-123287079D01*
X126316940Y-123286928D01*
X126520855Y-123286769D01*
X126713343Y-123286602D01*
X126894735Y-123286426D01*
X127065358Y-123286240D01*
X127225540Y-123286044D01*
X127375610Y-123285836D01*
X127515896Y-123285615D01*
X127646726Y-123285381D01*
X127768429Y-123285133D01*
X127881333Y-123284870D01*
X127985767Y-123284591D01*
X128082058Y-123284295D01*
X128170535Y-123283982D01*
X128251526Y-123283651D01*
X128325360Y-123283300D01*
X128392365Y-123282930D01*
X128452868Y-123282538D01*
X128507200Y-123282125D01*
X128555687Y-123281689D01*
X128598658Y-123281230D01*
X128636442Y-123280747D01*
X128669367Y-123280239D01*
X128697760Y-123279705D01*
X128721951Y-123279144D01*
X128742268Y-123278556D01*
X128759039Y-123277939D01*
X128772592Y-123277293D01*
X128783255Y-123276616D01*
X128791358Y-123275909D01*
X128797228Y-123275171D01*
X128801193Y-123274399D01*
X128803583Y-123273594D01*
X128804130Y-123273289D01*
X128810688Y-123267361D01*
X128828298Y-123250997D01*
X128856604Y-123224532D01*
X128895248Y-123188306D01*
X128943873Y-123142655D01*
X129002120Y-123087917D01*
X129069633Y-123024429D01*
X129146053Y-122952529D01*
X129231024Y-122872553D01*
X129324187Y-122784839D01*
X129425185Y-122689725D01*
X129533661Y-122587548D01*
X129649256Y-122478646D01*
X129771614Y-122363355D01*
X129900376Y-122242013D01*
X130035186Y-122114957D01*
X130175685Y-121982525D01*
X130321516Y-121845055D01*
X130472321Y-121702883D01*
X130627743Y-121556346D01*
X130787424Y-121405783D01*
X130951007Y-121251531D01*
X131118134Y-121093927D01*
X131288447Y-120933308D01*
X131461589Y-120770012D01*
X131637203Y-120604376D01*
X131814930Y-120436737D01*
X131994414Y-120267433D01*
X132175296Y-120096801D01*
X132357219Y-119925179D01*
X132539825Y-119752904D01*
X132722758Y-119580314D01*
X132905658Y-119407745D01*
X133088170Y-119235535D01*
X133269934Y-119064021D01*
X133450594Y-118893541D01*
X133629792Y-118724433D01*
X133807170Y-118557033D01*
X133982371Y-118391678D01*
X134155038Y-118228707D01*
X134324812Y-118068457D01*
X134491336Y-117911265D01*
X134654252Y-117757468D01*
X134813203Y-117607404D01*
X134967832Y-117461410D01*
X135117781Y-117319823D01*
X135262691Y-117182982D01*
X135402206Y-117051222D01*
X135535969Y-116924882D01*
X135663620Y-116804299D01*
X135784804Y-116689811D01*
X135899162Y-116581754D01*
X136006336Y-116480466D01*
X136105970Y-116386285D01*
X136197705Y-116299547D01*
X136281184Y-116220591D01*
X136356050Y-116149753D01*
X136421944Y-116087371D01*
X136478510Y-116033782D01*
X136525389Y-115989324D01*
X136562225Y-115954334D01*
X136588658Y-115929150D01*
X136604333Y-115914108D01*
X136608675Y-115909833D01*
X136634374Y-115882867D01*
X140896936Y-115882992D01*
G37*
D15*
X141143000Y-79299000D02*
X140493000Y-79299000D01*
X140493000Y-80419000D02*
X140493000Y-78179000D01*
X140493000Y-78179000D02*
X136253000Y-78179000D01*
X139893000Y-80419000D02*
X139893000Y-78179000D01*
X139773000Y-80419000D02*
X139773000Y-78179000D01*
X139653000Y-80419000D02*
X139653000Y-78179000D01*
X136253000Y-80419000D02*
X140493000Y-80419000D01*
X136253000Y-78179000D02*
X136253000Y-80419000D01*
X135603000Y-79299000D02*
X136253000Y-79299000D01*
D16*
X139901480Y-62197000D02*
X142411000Y-62197000D01*
X143681000Y-63197760D02*
X143681000Y-66276240D01*
X138601000Y-66276240D02*
X138601000Y-63197760D01*
X142380520Y-67277000D02*
X139901480Y-67277000D01*
X142411000Y-64737000D02*
G75*
G03*
X142411000Y-64737000I-1270000J0D01*
G01*
D15*
X145207000Y-72187000D02*
X144557000Y-72187000D01*
X144557000Y-73307000D02*
X144557000Y-71067000D01*
X144557000Y-71067000D02*
X140317000Y-71067000D01*
X143957000Y-73307000D02*
X143957000Y-71067000D01*
X143837000Y-73307000D02*
X143837000Y-71067000D01*
X143717000Y-73307000D02*
X143717000Y-71067000D01*
X140317000Y-73307000D02*
X144557000Y-73307000D01*
X140317000Y-71067000D02*
X140317000Y-73307000D01*
X139667000Y-72187000D02*
X140317000Y-72187000D01*
X135047000Y-89955000D02*
X134397000Y-89955000D01*
X134397000Y-91075000D02*
X134397000Y-88835000D01*
X134397000Y-88835000D02*
X130157000Y-88835000D01*
X133797000Y-91075000D02*
X133797000Y-88835000D01*
X133677000Y-91075000D02*
X133677000Y-88835000D01*
X133557000Y-91075000D02*
X133557000Y-88835000D01*
X130157000Y-91075000D02*
X134397000Y-91075000D01*
X130157000Y-88835000D02*
X130157000Y-91075000D01*
X129507000Y-89955000D02*
X130157000Y-89955000D01*
D10*
X85533000Y-88045000D02*
X85533000Y-87045000D01*
X85533000Y-101045000D02*
X85533000Y-100045000D01*
X85533000Y-101045000D02*
X86533000Y-101045000D01*
X86533000Y-87045000D02*
X85533000Y-87045000D01*
X98533000Y-101045000D02*
X99533000Y-101045000D01*
X99533000Y-87045000D02*
X98533000Y-87045000D01*
X99533000Y-87045000D02*
X99533000Y-88045000D01*
X99533000Y-100045000D02*
X99533000Y-101045000D01*
X105733000Y-108245000D02*
X105733000Y-107245000D01*
X105733000Y-121245000D02*
X105733000Y-120245000D01*
X105733000Y-121245000D02*
X106733000Y-121245000D01*
X106733000Y-107245000D02*
X105733000Y-107245000D01*
X118733000Y-121245000D02*
X119733000Y-121245000D01*
X119733000Y-107245000D02*
X118733000Y-107245000D01*
X119733000Y-107245000D02*
X119733000Y-108245000D01*
X119733000Y-120245000D02*
X119733000Y-121245000D01*
D15*
X144749936Y-92944000D02*
X145204064Y-92944000D01*
X144749936Y-94414000D02*
X145204064Y-94414000D01*
D10*
X105733000Y-88045000D02*
X105733000Y-87045000D01*
X105733000Y-101045000D02*
X105733000Y-100045000D01*
X105733000Y-101045000D02*
X106733000Y-101045000D01*
X106733000Y-87045000D02*
X105733000Y-87045000D01*
X118733000Y-101045000D02*
X119733000Y-101045000D01*
X119733000Y-87045000D02*
X118733000Y-87045000D01*
X119733000Y-87045000D02*
X119733000Y-88045000D01*
X119733000Y-100045000D02*
X119733000Y-101045000D01*
D15*
X137079000Y-86399000D02*
X136429000Y-86399000D01*
X136429000Y-87519000D02*
X136429000Y-85279000D01*
X136429000Y-85279000D02*
X132189000Y-85279000D01*
X135829000Y-87519000D02*
X135829000Y-85279000D01*
X135709000Y-87519000D02*
X135709000Y-85279000D01*
X135589000Y-87519000D02*
X135589000Y-85279000D01*
X132189000Y-87519000D02*
X136429000Y-87519000D01*
X132189000Y-85279000D02*
X132189000Y-87519000D01*
X131539000Y-86399000D02*
X132189000Y-86399000D01*
X139111000Y-82855000D02*
X138461000Y-82855000D01*
X138461000Y-83975000D02*
X138461000Y-81735000D01*
X138461000Y-81735000D02*
X134221000Y-81735000D01*
X137861000Y-83975000D02*
X137861000Y-81735000D01*
X137741000Y-83975000D02*
X137741000Y-81735000D01*
X137621000Y-83975000D02*
X137621000Y-81735000D01*
X134221000Y-83975000D02*
X138461000Y-83975000D01*
X134221000Y-81735000D02*
X134221000Y-83975000D01*
X133571000Y-82855000D02*
X134221000Y-82855000D01*
X143891000Y-108291000D02*
X143291000Y-108291000D01*
X143591000Y-107991000D02*
X143891000Y-108291000D01*
X143291000Y-108291000D02*
X143591000Y-107991000D01*
X142191000Y-110091000D02*
X142191000Y-98291000D01*
X138091000Y-110091000D02*
X142191000Y-110091000D01*
X138091000Y-98291000D02*
X142191000Y-98291000D01*
X136591000Y-104191000D02*
X135591000Y-104191000D01*
X136091000Y-104691000D02*
X136091000Y-103691000D01*
X134091000Y-110091000D02*
X129991000Y-110091000D01*
X129991000Y-110091000D02*
X129991000Y-107691000D01*
X129991000Y-105491000D02*
X129991000Y-102891000D01*
X129991000Y-100691000D02*
X129991000Y-98291000D01*
X129991000Y-98291000D02*
X134091000Y-98291000D01*
X139091000Y-104191000D02*
G75*
G03*
X139091000Y-104191000I-3000000J0D01*
G01*
D10*
X144977000Y-27483000D02*
X144977000Y-30023000D01*
X137357000Y-27483000D02*
X144977000Y-27483000D01*
X150057000Y-30023000D02*
X150057000Y-60503000D01*
X144977000Y-30023000D02*
X150057000Y-30023000D01*
X137357000Y-30023000D02*
X137357000Y-27483000D01*
X132277000Y-30023000D02*
X137357000Y-30023000D01*
X132277000Y-30023000D02*
X132277000Y-60503000D01*
X150057000Y-60503000D02*
X132277000Y-60503000D01*
D17*
X133547000Y-31293000D03*
D18*
X133547000Y-33833000D03*
X133547000Y-36373000D03*
X133547000Y-38913000D03*
X133547000Y-41453000D03*
X133547000Y-43993000D03*
X133547000Y-46533000D03*
X133547000Y-49073000D03*
X133547000Y-51613000D03*
X133547000Y-54153000D03*
X133547000Y-56693000D03*
X133547000Y-59233000D03*
X148787000Y-59233000D03*
X148787000Y-56693000D03*
X148787000Y-54153000D03*
X148787000Y-51613000D03*
X148787000Y-49073000D03*
X148787000Y-46533000D03*
X148787000Y-43993000D03*
X148787000Y-41453000D03*
X148787000Y-38913000D03*
X148787000Y-36373000D03*
X148787000Y-33833000D03*
X148787000Y-31293000D03*
M02*
