G04 #@! TF.GenerationSoftware,KiCad,Pcbnew,7.0.1*
G04 #@! TF.CreationDate,2023-04-24T18:26:11+10:00*
G04 #@! TF.ProjectId,phi,7068692e-6b69-4636-9164-5f7063625858,rev?*
G04 #@! TF.SameCoordinates,Original*
G04 #@! TF.FileFunction,Soldermask,Top*
G04 #@! TF.FilePolarity,Negative*
%FSLAX46Y46*%
G04 Gerber Fmt 4.6, Leading zero omitted, Abs format (unit mm)*
G04 Created by KiCad (PCBNEW 7.0.1) date 2023-04-24 18:26:11*
%MOMM*%
%LPD*%
G01*
G04 APERTURE LIST*
G04 Aperture macros list*
%AMRoundRect*
0 Rectangle with rounded corners*
0 $1 Rounding radius*
0 $2 $3 $4 $5 $6 $7 $8 $9 X,Y pos of 4 corners*
0 Add a 4 corners polygon primitive as box body*
4,1,4,$2,$3,$4,$5,$6,$7,$8,$9,$2,$3,0*
0 Add four circle primitives for the rounded corners*
1,1,$1+$1,$2,$3*
1,1,$1+$1,$4,$5*
1,1,$1+$1,$6,$7*
1,1,$1+$1,$8,$9*
0 Add four rect primitives between the rounded corners*
20,1,$1+$1,$2,$3,$4,$5,0*
20,1,$1+$1,$4,$5,$6,$7,0*
20,1,$1+$1,$6,$7,$8,$9,0*
20,1,$1+$1,$8,$9,$2,$3,0*%
G04 Aperture macros list end*
%ADD10C,1.700000*%
%ADD11C,1.701800*%
%ADD12C,3.000000*%
%ADD13C,3.987800*%
%ADD14C,2.286000*%
%ADD15R,1.600000X1.600000*%
%ADD16O,1.600000X1.600000*%
%ADD17RoundRect,0.250000X0.350000X0.450000X-0.350000X0.450000X-0.350000X-0.450000X0.350000X-0.450000X0*%
%ADD18R,1.500000X2.000000*%
%ADD19R,3.800000X2.000000*%
%ADD20C,0.800000*%
%ADD21C,6.400000*%
%ADD22RoundRect,0.250000X0.337500X0.475000X-0.337500X0.475000X-0.337500X-0.475000X0.337500X-0.475000X0*%
%ADD23RoundRect,0.101600X-0.381000X-0.762000X0.381000X-0.762000X0.381000X0.762000X-0.381000X0.762000X0*%
%ADD24RoundRect,0.250000X-0.350000X-0.450000X0.350000X-0.450000X0.350000X0.450000X-0.350000X0.450000X0*%
%ADD25R,2.000000X2.000000*%
%ADD26C,2.000000*%
%ADD27R,3.200000X2.000000*%
%ADD28C,1.600000*%
G04 APERTURE END LIST*
D10*
X100100000Y-68200000D03*
X87400000Y-68200000D03*
X84860000Y-68200000D03*
X100080000Y-31800000D03*
X97540000Y-31800000D03*
X95000000Y-31800000D03*
X92460000Y-31800000D03*
X89920000Y-31800000D03*
X87380000Y-31800000D03*
X84840000Y-31800000D03*
D11*
X87453000Y-114245000D03*
D12*
X89993000Y-119325000D03*
D13*
X92533000Y-114245000D03*
D12*
X96343000Y-116785000D03*
D11*
X97613000Y-114245000D03*
D14*
X95073000Y-109165000D03*
X88723000Y-111705000D03*
D15*
X134309000Y-93511000D03*
D16*
X126689000Y-93511000D03*
D17*
X145977000Y-90729000D03*
X143977000Y-90729000D03*
D10*
X125130000Y-68200000D03*
X112430000Y-68200000D03*
X109890000Y-68200000D03*
X125110000Y-31800000D03*
X122570000Y-31800000D03*
X120030000Y-31800000D03*
X117490000Y-31800000D03*
X114950000Y-31800000D03*
X112410000Y-31800000D03*
X109870000Y-31800000D03*
D17*
X145977000Y-87681000D03*
X143977000Y-87681000D03*
D15*
X144215000Y-75743000D03*
D16*
X136595000Y-75743000D03*
D18*
X129723000Y-70867000D03*
X132023000Y-70867000D03*
D19*
X132023000Y-64567000D03*
D18*
X134323000Y-70867000D03*
D20*
X126067000Y-77775000D03*
X126769944Y-76077944D03*
X126769944Y-79472056D03*
X128467000Y-75375000D03*
D21*
X128467000Y-77775000D03*
D20*
X128467000Y-80175000D03*
X130164056Y-76077944D03*
X130164056Y-79472056D03*
X130867000Y-77775000D03*
X138940056Y-38659000D03*
X139643000Y-36961944D03*
X139643000Y-40356056D03*
X141340056Y-36259000D03*
D21*
X141340056Y-38659000D03*
D20*
X141340056Y-41059000D03*
X143037112Y-36961944D03*
X143037112Y-40356056D03*
X143740056Y-38659000D03*
D10*
X75140000Y-68200000D03*
X62440000Y-68200000D03*
X59900000Y-68200000D03*
X75120000Y-31800000D03*
X72580000Y-31800000D03*
X70040000Y-31800000D03*
X67500000Y-31800000D03*
X64960000Y-31800000D03*
X62420000Y-31800000D03*
X59880000Y-31800000D03*
D20*
X143085000Y-125155000D03*
X143787944Y-123457944D03*
X143787944Y-126852056D03*
X145485000Y-122755000D03*
D21*
X145485000Y-125155000D03*
D20*
X145485000Y-127555000D03*
X147182056Y-123457944D03*
X147182056Y-126852056D03*
X147885000Y-125155000D03*
D22*
X134330500Y-73457000D03*
X132255500Y-73457000D03*
D20*
X59011000Y-38659000D03*
X59713944Y-36961944D03*
X59713944Y-40356056D03*
X61411000Y-36259000D03*
D21*
X61411000Y-38659000D03*
D20*
X61411000Y-41059000D03*
X63108056Y-36961944D03*
X63108056Y-40356056D03*
X63811000Y-38659000D03*
D11*
X67239000Y-114245000D03*
D12*
X69779000Y-119325000D03*
D13*
X72319000Y-114245000D03*
D12*
X76129000Y-116785000D03*
D11*
X77399000Y-114245000D03*
D14*
X74859000Y-109165000D03*
X68509000Y-111705000D03*
D11*
X67253000Y-94045000D03*
D12*
X69793000Y-99125000D03*
D13*
X72333000Y-94045000D03*
D12*
X76143000Y-96585000D03*
D11*
X77413000Y-94045000D03*
D14*
X74873000Y-88965000D03*
X68523000Y-91505000D03*
D15*
X142183000Y-79299000D03*
D16*
X134563000Y-79299000D03*
D23*
X143046000Y-61943000D03*
X139236000Y-61943000D03*
X143046000Y-67531000D03*
X139236000Y-67531000D03*
D15*
X146247000Y-72187000D03*
D16*
X138627000Y-72187000D03*
D20*
X59011000Y-125155000D03*
X59713944Y-123457944D03*
X59713944Y-126852056D03*
X61411000Y-122755000D03*
D21*
X61411000Y-125155000D03*
D20*
X61411000Y-127555000D03*
X63108056Y-123457944D03*
X63108056Y-126852056D03*
X63811000Y-125155000D03*
X89999000Y-77775000D03*
X90701944Y-76077944D03*
X90701944Y-79472056D03*
X92399000Y-75375000D03*
D21*
X92399000Y-77775000D03*
D20*
X92399000Y-80175000D03*
X94096056Y-76077944D03*
X94096056Y-79472056D03*
X94799000Y-77775000D03*
D15*
X136087000Y-89955000D03*
D16*
X128467000Y-89955000D03*
D11*
X87453000Y-94045000D03*
D12*
X89993000Y-99125000D03*
D13*
X92533000Y-94045000D03*
D12*
X96343000Y-96585000D03*
D11*
X97613000Y-94045000D03*
D14*
X95073000Y-88965000D03*
X88723000Y-91505000D03*
D20*
X59011000Y-77775000D03*
X59713944Y-76077944D03*
X59713944Y-79472056D03*
X61411000Y-75375000D03*
D21*
X61411000Y-77775000D03*
D20*
X61411000Y-80175000D03*
X63108056Y-76077944D03*
X63108056Y-79472056D03*
X63811000Y-77775000D03*
D11*
X107653000Y-114245000D03*
D12*
X110193000Y-119325000D03*
D13*
X112733000Y-114245000D03*
D12*
X116543000Y-116785000D03*
D11*
X117813000Y-114245000D03*
D14*
X115273000Y-109165000D03*
X108923000Y-111705000D03*
D24*
X143977000Y-93679000D03*
X145977000Y-93679000D03*
D11*
X107653000Y-94045000D03*
D12*
X110193000Y-99125000D03*
D13*
X112733000Y-94045000D03*
D12*
X116543000Y-96585000D03*
D11*
X117813000Y-94045000D03*
D14*
X115273000Y-88965000D03*
X108923000Y-91505000D03*
D15*
X138119000Y-86399000D03*
D16*
X130499000Y-86399000D03*
D15*
X140151000Y-82855000D03*
D16*
X132531000Y-82855000D03*
D25*
X143591000Y-106691000D03*
D26*
X143591000Y-101691000D03*
X143591000Y-104191000D03*
D27*
X136091000Y-109791000D03*
X136091000Y-98591000D03*
D26*
X129091000Y-101691000D03*
X129091000Y-106691000D03*
D15*
X133547000Y-31293000D03*
D28*
X133547000Y-33833000D03*
X133547000Y-36373000D03*
X133547000Y-38913000D03*
X133547000Y-41453000D03*
X133547000Y-43993000D03*
X133547000Y-46533000D03*
X133547000Y-49073000D03*
X133547000Y-51613000D03*
X133547000Y-54153000D03*
X133547000Y-56693000D03*
X133547000Y-59233000D03*
X148787000Y-59233000D03*
X148787000Y-56693000D03*
X148787000Y-54153000D03*
X148787000Y-51613000D03*
X148787000Y-49073000D03*
X148787000Y-46533000D03*
X148787000Y-43993000D03*
X148787000Y-41453000D03*
X148787000Y-38913000D03*
X148787000Y-36373000D03*
X148787000Y-33833000D03*
X148787000Y-31293000D03*
D10*
X109925000Y-37897000D03*
X117545000Y-37897000D03*
X109925000Y-53137000D03*
X122625000Y-53137000D03*
M02*
