M48
; DRILL file {KiCad 7.0.1} date Mon Apr 24 18:26:16 2023
; FORMAT={-:-/ absolute / inch / decimal}
; #@! TF.CreationDate,2023-04-24T18:26:16+10:00
; #@! TF.GenerationSoftware,Kicad,Pcbnew,7.0.1
; #@! TF.FileFunction,MixedPlating,1,2
FMAT,2
INCH
; #@! TA.AperFunction,Plated,PTH,ViaDrill
T1C0.0157
; #@! TA.AperFunction,Plated,PTH,ComponentDrill
T2C0.0197
; #@! TA.AperFunction,Plated,PTH,ComponentDrill
T3C0.0315
; #@! TA.AperFunction,Plated,PTH,ComponentDrill
T4C0.0394
; #@! TA.AperFunction,Plated,PTH,ComponentDrill
T5C0.0433
; #@! TA.AperFunction,Plated,PTH,ComponentDrill
T6C0.0590
; #@! TA.AperFunction,Plated,PTH,ComponentDrill
T7C0.0591
; #@! TA.AperFunction,Plated,PTH,ComponentDrill
T8C0.1260
; #@! TA.AperFunction,NonPlated,NPTH,ComponentDrill
T9C0.0670
; #@! TA.AperFunction,NonPlated,NPTH,ComponentDrill
T10C0.1181
; #@! TA.AperFunction,NonPlated,NPTH,ComponentDrill
T11C0.1570
%
G90
G05
T1
X5.104Y-2.8637
X5.1378Y-2.662
X5.4278Y-2.582
T2
X2.3233Y-1.522
X2.3233Y-3.062
X2.3233Y-4.9274
X2.3509Y-1.4552
X2.3509Y-1.5888
X2.3509Y-2.9952
X2.3509Y-3.1288
X2.3509Y-4.8605
X2.3509Y-4.9942
X2.4178Y-1.4275
X2.4178Y-1.6165
X2.4178Y-2.9675
X2.4178Y-3.1565
X2.4178Y-4.8329
X2.4178Y-5.0219
X2.4846Y-1.4552
X2.4846Y-1.5888
X2.4846Y-2.9952
X2.4846Y-3.1288
X2.4846Y-4.8605
X2.4846Y-4.9942
X2.5122Y-1.522
X2.5122Y-3.062
X2.5122Y-4.9274
X3.5433Y-3.062
X3.5709Y-2.9952
X3.5709Y-3.1288
X3.6378Y-2.9675
X3.6378Y-3.1565
X3.7046Y-2.9952
X3.7046Y-3.1288
X3.7322Y-3.062
X4.9633Y-3.062
X4.9909Y-2.9952
X4.9909Y-3.1288
X5.0578Y-2.9675
X5.0578Y-3.1565
X5.1246Y-2.9952
X5.1246Y-3.1288
X5.1522Y-3.062
X5.4701Y-1.522
X5.4978Y-1.4552
X5.4978Y-1.5888
X5.5646Y-1.4275
X5.5646Y-1.6165
X5.6314Y-1.4552
X5.6314Y-1.5888
X5.6333Y-4.9274
X5.6591Y-1.522
X5.6609Y-4.8605
X5.6609Y-4.9942
X5.7278Y-4.8329
X5.7278Y-5.0219
X5.7946Y-4.8605
X5.7946Y-4.9942
X5.8222Y-4.9274
T3
X4.9878Y-3.6815
X5.0578Y-3.5415
X5.1378Y-3.4015
X5.2178Y-3.262
X5.2878Y-3.6815
X5.2978Y-3.122
X5.3578Y-3.5415
X5.3778Y-2.982
X5.4378Y-3.4015
X5.4578Y-2.842
X5.5178Y-3.262
X5.5978Y-3.122
X5.6778Y-2.982
X5.7578Y-2.842
T4
X5.0823Y-4.0036
X5.0823Y-4.2004
X5.6532Y-4.0036
X5.6532Y-4.102
X5.6532Y-4.2004
T5
X2.3575Y-1.252
X2.3583Y-2.685
X2.4575Y-1.252
X2.4583Y-2.685
X2.5575Y-1.252
X2.6575Y-1.252
X2.7575Y-1.252
X2.8575Y-1.252
X2.9575Y-1.252
X2.9583Y-2.685
X3.3402Y-1.252
X3.3409Y-2.685
X3.4402Y-1.252
X3.4409Y-2.685
X3.5402Y-1.252
X3.6402Y-1.252
X3.7402Y-1.252
X3.8402Y-1.252
X3.9402Y-1.252
X3.9409Y-2.685
X4.3256Y-1.252
X4.3264Y-2.685
X4.3278Y-1.492
X4.3278Y-2.092
X4.4256Y-1.252
X4.4264Y-2.685
X4.5256Y-1.252
X4.6256Y-1.252
X4.6278Y-1.492
X4.7256Y-1.252
X4.8256Y-1.252
X4.8278Y-2.092
X4.9256Y-1.252
X4.9264Y-2.685
X5.2578Y-1.232
X5.2578Y-1.332
X5.2578Y-1.432
X5.2578Y-1.532
X5.2578Y-1.632
X5.2578Y-1.732
X5.2578Y-1.832
X5.2578Y-1.932
X5.2578Y-2.032
X5.2578Y-2.132
X5.2578Y-2.232
X5.2578Y-2.332
X5.8578Y-1.232
X5.8578Y-1.332
X5.8578Y-1.432
X5.8578Y-1.532
X5.8578Y-1.632
X5.8578Y-1.732
X5.8578Y-1.832
X5.8578Y-1.932
X5.8578Y-2.032
X5.8578Y-2.132
X5.8578Y-2.232
X5.8578Y-2.332
T6
X2.6972Y-4.3978
X2.6978Y-3.6026
X2.9472Y-4.2978
X2.9478Y-3.5026
X3.493Y-3.6026
X3.493Y-4.3978
X3.743Y-3.5026
X3.743Y-4.2978
X4.2883Y-3.6026
X4.2883Y-4.3978
X4.5383Y-3.5026
X4.5383Y-4.2978
T8
X2.4178Y-1.522
X2.4178Y-3.062
X2.4178Y-4.9274
X3.6378Y-3.062
X5.0578Y-3.062
X5.5646Y-1.522
X5.7278Y-4.9274
T9
X2.6472Y-4.4978
X2.6478Y-3.7026
X3.0472Y-4.4978
X3.0478Y-3.7026
X3.443Y-3.7026
X3.443Y-4.4978
X3.843Y-3.7026
X3.843Y-4.4978
X4.2383Y-3.7026
X4.2383Y-4.4978
X4.6383Y-3.7026
X4.6383Y-4.4978
T10
X2.7472Y-4.6978
X2.7478Y-3.9026
X2.9972Y-4.5978
X2.9978Y-3.8026
X3.543Y-3.9026
X3.543Y-4.6978
X3.793Y-3.8026
X3.793Y-4.5978
X4.3383Y-3.9026
X4.3383Y-4.6978
X4.5883Y-3.8026
X4.5883Y-4.5978
T11
X2.8472Y-4.4978
X2.8478Y-3.7026
X3.643Y-3.7026
X3.643Y-4.4978
X4.4383Y-3.7026
X4.4383Y-4.4978
T7
G00X5.3835Y-3.8815
M15
G01X5.3323Y-3.8815
M16
G05
G00X5.3835Y-4.3225
M15
G01X5.3323Y-4.3225
M16
G05
T0
M30
